G75*
%MOIN*%
%OFA0B0*%
%FSLAX24Y24*%
%IPPOS*%
%LPD*%
%AMOC8*
5,1,8,0,0,1.08239X$1,22.5*
%
%ADD10C,0.0000*%
%ADD11C,0.0050*%
%ADD12C,0.0200*%
%ADD13C,0.0080*%
%ADD14C,0.0100*%
%ADD15C,0.0100*%
%ADD16R,0.0007X0.1419*%
%ADD17R,0.0007X0.1472*%
%ADD18R,0.0007X0.1525*%
%ADD19R,0.0007X0.1538*%
%ADD20R,0.0007X0.1564*%
%ADD21R,0.0007X0.1577*%
%ADD22R,0.0007X0.1604*%
%ADD23R,0.0007X0.1617*%
%ADD24R,0.0007X0.1624*%
%ADD25R,0.0007X0.1630*%
%ADD26R,0.0007X0.1643*%
%ADD27R,0.0007X0.1657*%
%ADD28R,0.0007X0.1657*%
%ADD29R,0.0007X0.1670*%
%ADD30R,0.0007X0.1683*%
%ADD31R,0.0007X0.1683*%
%ADD32R,0.0007X0.1696*%
%ADD33R,0.0007X0.1696*%
%ADD34R,0.0007X0.1709*%
%ADD35R,0.0007X0.1709*%
%ADD36R,0.0007X0.0231*%
%ADD37R,0.0007X0.0574*%
%ADD38R,0.0007X0.0719*%
%ADD39R,0.0007X0.0198*%
%ADD40R,0.0007X0.0178*%
%ADD41R,0.0007X0.0185*%
%ADD42R,0.0007X0.0310*%
%ADD43R,0.0007X0.0218*%
%ADD44R,0.0007X0.0178*%
%ADD45R,0.0007X0.0158*%
%ADD46R,0.0007X0.0165*%
%ADD47R,0.0007X0.0284*%
%ADD48R,0.0007X0.0211*%
%ADD49R,0.0007X0.0139*%
%ADD50R,0.0007X0.0152*%
%ADD51R,0.0007X0.0264*%
%ADD52R,0.0007X0.0152*%
%ADD53R,0.0007X0.0125*%
%ADD54R,0.0007X0.0139*%
%ADD55R,0.0007X0.0251*%
%ADD56R,0.0007X0.0211*%
%ADD57R,0.0007X0.0139*%
%ADD58R,0.0007X0.0119*%
%ADD59R,0.0007X0.0125*%
%ADD60R,0.0007X0.0238*%
%ADD61R,0.0007X0.0205*%
%ADD62R,0.0007X0.0132*%
%ADD63R,0.0007X0.0106*%
%ADD64R,0.0007X0.0119*%
%ADD65R,0.0007X0.0224*%
%ADD66R,0.0007X0.0125*%
%ADD67R,0.0007X0.0099*%
%ADD68R,0.0007X0.0112*%
%ADD69R,0.0007X0.0205*%
%ADD70R,0.0007X0.0112*%
%ADD71R,0.0007X0.0092*%
%ADD72R,0.0007X0.0099*%
%ADD73R,0.0007X0.0198*%
%ADD74R,0.0007X0.0106*%
%ADD75R,0.0007X0.0086*%
%ADD76R,0.0007X0.0092*%
%ADD77R,0.0007X0.0198*%
%ADD78R,0.0007X0.0106*%
%ADD79R,0.0007X0.0079*%
%ADD80R,0.0007X0.0191*%
%ADD81R,0.0007X0.0073*%
%ADD82R,0.0007X0.0086*%
%ADD83R,0.0007X0.0178*%
%ADD84R,0.0007X0.0191*%
%ADD85R,0.0007X0.0073*%
%ADD86R,0.0007X0.0079*%
%ADD87R,0.0007X0.0191*%
%ADD88R,0.0007X0.0066*%
%ADD89R,0.0007X0.0172*%
%ADD90R,0.0007X0.0059*%
%ADD91R,0.0007X0.0066*%
%ADD92R,0.0007X0.0158*%
%ADD93R,0.0007X0.0079*%
%ADD94R,0.0007X0.0059*%
%ADD95R,0.0007X0.0066*%
%ADD96R,0.0007X0.0185*%
%ADD97R,0.0007X0.0046*%
%ADD98R,0.0007X0.0053*%
%ADD99R,0.0007X0.0046*%
%ADD100R,0.0007X0.0145*%
%ADD101R,0.0007X0.0053*%
%ADD102R,0.0007X0.0145*%
%ADD103R,0.0007X0.0099*%
%ADD104R,0.0007X0.0139*%
%ADD105R,0.0007X0.0046*%
%ADD106R,0.0007X0.0244*%
%ADD107R,0.0007X0.0244*%
%ADD108R,0.0007X0.0132*%
%ADD109R,0.0007X0.0172*%
%ADD110R,0.0007X0.0132*%
%ADD111R,0.0007X0.0132*%
%ADD112R,0.0007X0.0238*%
%ADD113R,0.0007X0.0165*%
%ADD114R,0.0007X0.0290*%
%ADD115R,0.0007X0.0356*%
%ADD116R,0.0007X0.0323*%
%ADD117R,0.0007X0.0515*%
%ADD118R,0.0007X0.0007*%
%ADD119R,0.0007X0.0317*%
%ADD120R,0.0007X0.0508*%
%ADD121R,0.0007X0.0007*%
%ADD122R,0.0007X0.0310*%
%ADD123R,0.0007X0.0502*%
%ADD124R,0.0007X0.0297*%
%ADD125R,0.0007X0.0495*%
%ADD126R,0.0007X0.0020*%
%ADD127R,0.0007X0.0198*%
%ADD128R,0.0007X0.0396*%
%ADD129R,0.0007X0.0125*%
%ADD130R,0.0007X0.0020*%
%ADD131R,0.0007X0.0403*%
%ADD132R,0.0007X0.0409*%
%ADD133R,0.0007X0.0026*%
%ADD134R,0.0007X0.0416*%
%ADD135R,0.0007X0.0033*%
%ADD136R,0.0007X0.0422*%
%ADD137R,0.0007X0.0033*%
%ADD138R,0.0007X0.0429*%
%ADD139R,0.0007X0.0442*%
%ADD140R,0.0007X0.0046*%
%ADD141R,0.0007X0.0455*%
%ADD142R,0.0007X0.0172*%
%ADD143R,0.0007X0.0469*%
%ADD144R,0.0007X0.0462*%
%ADD145R,0.0007X0.0449*%
%ADD146R,0.0007X0.0158*%
%ADD147R,0.0007X0.0436*%
%ADD148R,0.0007X0.0422*%
%ADD149R,0.0007X0.0416*%
%ADD150R,0.0007X0.0112*%
%ADD151R,0.0007X0.0079*%
%ADD152R,0.0007X0.0119*%
%ADD153R,0.0007X0.0297*%
%ADD154R,0.0007X0.0508*%
%ADD155R,0.0007X0.0086*%
%ADD156R,0.0007X0.0521*%
%ADD157R,0.0007X0.0317*%
%ADD158R,0.0007X0.0521*%
%ADD159R,0.0007X0.0323*%
%ADD160R,0.0007X0.0528*%
%ADD161R,0.0007X0.0383*%
%ADD162R,0.0007X0.0330*%
%ADD163R,0.0007X0.0106*%
%ADD164R,0.0007X0.0099*%
%ADD165R,0.0007X0.0271*%
%ADD166R,0.0007X0.0271*%
%ADD167R,0.0007X0.0119*%
%ADD168R,0.0007X0.0277*%
%ADD169R,0.0007X0.0277*%
%ADD170R,0.0007X0.0284*%
%ADD171R,0.0007X0.0086*%
%ADD172R,0.0007X0.0284*%
%ADD173R,0.0007X0.0304*%
%ADD174R,0.0007X0.0152*%
%ADD175R,0.0007X0.0317*%
%ADD176R,0.0007X0.0066*%
%ADD177R,0.0007X0.0337*%
%ADD178R,0.0007X0.0343*%
%ADD179R,0.0007X0.0356*%
%ADD180R,0.0007X0.0376*%
%ADD181R,0.0007X0.0389*%
%ADD182R,0.0007X0.0178*%
%ADD183R,0.0007X0.0409*%
%ADD184R,0.0007X0.0429*%
%ADD185R,0.0007X0.0482*%
%ADD186R,0.0007X0.0211*%
%ADD187R,0.0007X0.0581*%
%ADD188R,0.0007X0.0719*%
%ADD189R,0.0007X0.0541*%
%ADD190R,0.0007X0.0264*%
%ADD191R,0.0007X0.0231*%
%ADD192R,0.0007X0.0013*%
%ADD193R,0.0007X0.0073*%
%ADD194R,0.0007X0.0040*%
%ADD195R,0.0007X0.0026*%
%ADD196R,0.0007X0.0026*%
%ADD197R,0.0007X0.0040*%
%ADD198R,0.0007X0.0053*%
%ADD199R,0.0007X0.0073*%
%ADD200R,0.0007X0.0053*%
%ADD201R,0.0007X0.0033*%
%ADD202R,0.0007X0.0350*%
%ADD203R,0.0007X0.0350*%
%ADD204R,0.0007X0.0033*%
%ADD205R,0.0007X0.0191*%
%ADD206R,0.0007X0.0224*%
%ADD207R,0.0007X0.0218*%
%ADD208R,0.0007X0.0535*%
%ADD209R,0.0007X0.0264*%
%ADD210R,0.0007X0.1643*%
%ADD211R,0.0007X0.1617*%
%ADD212R,0.0007X0.1591*%
%ADD213R,0.0007X0.1558*%
%ADD214R,0.0007X0.1406*%
D10*
X006673Y004315D02*
X025283Y004315D01*
X025283Y004314D02*
X025328Y004316D01*
X025372Y004321D01*
X025416Y004331D01*
X025458Y004343D01*
X025500Y004359D01*
X025540Y004379D01*
X025578Y004402D01*
X025615Y004428D01*
X025649Y004457D01*
X025680Y004488D01*
X025709Y004522D01*
X025735Y004559D01*
X025758Y004597D01*
X025778Y004637D01*
X025794Y004679D01*
X025806Y004721D01*
X025816Y004765D01*
X025821Y004809D01*
X025823Y004854D01*
X025823Y010825D01*
X025821Y010870D01*
X025816Y010914D01*
X025806Y010958D01*
X025794Y011000D01*
X025778Y011042D01*
X025758Y011082D01*
X025735Y011120D01*
X025709Y011157D01*
X025680Y011191D01*
X025649Y011222D01*
X025615Y011251D01*
X025578Y011277D01*
X025540Y011300D01*
X025500Y011320D01*
X025458Y011336D01*
X025416Y011348D01*
X025372Y011358D01*
X025328Y011363D01*
X025283Y011365D01*
X006673Y011365D01*
X006630Y011363D01*
X006587Y011358D01*
X006544Y011349D01*
X006503Y011337D01*
X006462Y011321D01*
X006423Y011302D01*
X006386Y011280D01*
X006351Y011254D01*
X006317Y011226D01*
X006287Y011196D01*
X006259Y011162D01*
X006233Y011127D01*
X006211Y011090D01*
X006192Y011051D01*
X006176Y011010D01*
X006164Y010969D01*
X006155Y010926D01*
X006150Y010883D01*
X006148Y010840D01*
X006148Y004840D01*
X006150Y004797D01*
X006155Y004754D01*
X006164Y004711D01*
X006176Y004670D01*
X006192Y004629D01*
X006211Y004590D01*
X006233Y004553D01*
X006259Y004518D01*
X006287Y004484D01*
X006317Y004454D01*
X006351Y004426D01*
X006386Y004400D01*
X006423Y004378D01*
X006462Y004359D01*
X006503Y004343D01*
X006544Y004331D01*
X006587Y004322D01*
X006630Y004317D01*
X006673Y004315D01*
X006892Y006954D02*
X006894Y006983D01*
X006900Y007011D01*
X006909Y007039D01*
X006922Y007065D01*
X006939Y007088D01*
X006958Y007110D01*
X006980Y007129D01*
X007005Y007144D01*
X007031Y007157D01*
X007059Y007165D01*
X007087Y007170D01*
X007116Y007171D01*
X007145Y007168D01*
X007173Y007161D01*
X007200Y007151D01*
X007226Y007137D01*
X007249Y007120D01*
X007270Y007100D01*
X007288Y007077D01*
X007303Y007052D01*
X007314Y007025D01*
X007322Y006997D01*
X007326Y006968D01*
X007326Y006940D01*
X007322Y006911D01*
X007314Y006883D01*
X007303Y006856D01*
X007288Y006831D01*
X007270Y006808D01*
X007249Y006788D01*
X007226Y006771D01*
X007200Y006757D01*
X007173Y006747D01*
X007145Y006740D01*
X007116Y006737D01*
X007087Y006738D01*
X007059Y006743D01*
X007031Y006751D01*
X007005Y006764D01*
X006980Y006779D01*
X006958Y006798D01*
X006939Y006820D01*
X006922Y006843D01*
X006909Y006869D01*
X006900Y006897D01*
X006894Y006925D01*
X006892Y006954D01*
X006892Y008725D02*
X006894Y008754D01*
X006900Y008782D01*
X006909Y008810D01*
X006922Y008836D01*
X006939Y008859D01*
X006958Y008881D01*
X006980Y008900D01*
X007005Y008915D01*
X007031Y008928D01*
X007059Y008936D01*
X007087Y008941D01*
X007116Y008942D01*
X007145Y008939D01*
X007173Y008932D01*
X007200Y008922D01*
X007226Y008908D01*
X007249Y008891D01*
X007270Y008871D01*
X007288Y008848D01*
X007303Y008823D01*
X007314Y008796D01*
X007322Y008768D01*
X007326Y008739D01*
X007326Y008711D01*
X007322Y008682D01*
X007314Y008654D01*
X007303Y008627D01*
X007288Y008602D01*
X007270Y008579D01*
X007249Y008559D01*
X007226Y008542D01*
X007200Y008528D01*
X007173Y008518D01*
X007145Y008511D01*
X007116Y008508D01*
X007087Y008509D01*
X007059Y008514D01*
X007031Y008522D01*
X007005Y008535D01*
X006980Y008550D01*
X006958Y008569D01*
X006939Y008591D01*
X006922Y008614D01*
X006909Y008640D01*
X006900Y008668D01*
X006894Y008696D01*
X006892Y008725D01*
X009064Y010811D02*
X009066Y010832D01*
X009072Y010852D01*
X009081Y010872D01*
X009093Y010889D01*
X009108Y010903D01*
X009126Y010915D01*
X009146Y010923D01*
X009166Y010928D01*
X009187Y010929D01*
X009208Y010926D01*
X009228Y010920D01*
X009247Y010909D01*
X009264Y010896D01*
X009277Y010880D01*
X009288Y010862D01*
X009296Y010842D01*
X009300Y010822D01*
X009300Y010800D01*
X009296Y010780D01*
X009288Y010760D01*
X009277Y010742D01*
X009264Y010726D01*
X009247Y010713D01*
X009228Y010702D01*
X009208Y010696D01*
X009187Y010693D01*
X009166Y010694D01*
X009146Y010699D01*
X009126Y010707D01*
X009108Y010719D01*
X009093Y010733D01*
X009081Y010750D01*
X009072Y010770D01*
X009066Y010790D01*
X009064Y010811D01*
X009995Y010811D02*
X009997Y010832D01*
X010003Y010852D01*
X010012Y010872D01*
X010024Y010889D01*
X010039Y010903D01*
X010057Y010915D01*
X010077Y010923D01*
X010097Y010928D01*
X010118Y010929D01*
X010139Y010926D01*
X010159Y010920D01*
X010178Y010909D01*
X010195Y010896D01*
X010208Y010880D01*
X010219Y010862D01*
X010227Y010842D01*
X010231Y010822D01*
X010231Y010800D01*
X010227Y010780D01*
X010219Y010760D01*
X010208Y010742D01*
X010195Y010726D01*
X010178Y010713D01*
X010159Y010702D01*
X010139Y010696D01*
X010118Y010693D01*
X010097Y010694D01*
X010077Y010699D01*
X010057Y010707D01*
X010039Y010719D01*
X010024Y010733D01*
X010012Y010750D01*
X010003Y010770D01*
X009997Y010790D01*
X009995Y010811D01*
X012970Y007840D02*
X012972Y007865D01*
X012978Y007890D01*
X012987Y007914D01*
X013000Y007936D01*
X013017Y007956D01*
X013036Y007973D01*
X013057Y007987D01*
X013081Y007997D01*
X013105Y008004D01*
X013131Y008007D01*
X013156Y008006D01*
X013181Y008001D01*
X013205Y007992D01*
X013228Y007980D01*
X013248Y007965D01*
X013266Y007946D01*
X013281Y007925D01*
X013292Y007902D01*
X013300Y007878D01*
X013304Y007853D01*
X013304Y007827D01*
X013300Y007802D01*
X013292Y007778D01*
X013281Y007755D01*
X013266Y007734D01*
X013248Y007715D01*
X013228Y007700D01*
X013205Y007688D01*
X013181Y007679D01*
X013156Y007674D01*
X013131Y007673D01*
X013105Y007676D01*
X013081Y007683D01*
X013057Y007693D01*
X013036Y007707D01*
X013017Y007724D01*
X013000Y007744D01*
X012987Y007766D01*
X012978Y007790D01*
X012972Y007815D01*
X012970Y007840D01*
X014742Y007840D02*
X014744Y007865D01*
X014750Y007890D01*
X014759Y007914D01*
X014772Y007936D01*
X014789Y007956D01*
X014808Y007973D01*
X014829Y007987D01*
X014853Y007997D01*
X014877Y008004D01*
X014903Y008007D01*
X014928Y008006D01*
X014953Y008001D01*
X014977Y007992D01*
X015000Y007980D01*
X015020Y007965D01*
X015038Y007946D01*
X015053Y007925D01*
X015064Y007902D01*
X015072Y007878D01*
X015076Y007853D01*
X015076Y007827D01*
X015072Y007802D01*
X015064Y007778D01*
X015053Y007755D01*
X015038Y007734D01*
X015020Y007715D01*
X015000Y007700D01*
X014977Y007688D01*
X014953Y007679D01*
X014928Y007674D01*
X014903Y007673D01*
X014877Y007676D01*
X014853Y007683D01*
X014829Y007693D01*
X014808Y007707D01*
X014789Y007724D01*
X014772Y007744D01*
X014759Y007766D01*
X014750Y007790D01*
X014744Y007815D01*
X014742Y007840D01*
D11*
X010943Y007821D02*
X010943Y007731D01*
X010898Y007686D01*
X010718Y007686D01*
X010673Y007731D01*
X010673Y007821D01*
X010718Y007866D01*
X010718Y007981D02*
X010673Y008026D01*
X010673Y008116D01*
X010718Y008161D01*
X010763Y008161D01*
X010808Y008116D01*
X010808Y008071D01*
X010808Y008116D02*
X010853Y008161D01*
X010898Y008161D01*
X010943Y008116D01*
X010943Y008026D01*
X010898Y007981D01*
X010898Y007866D02*
X010943Y007821D01*
X010943Y007580D02*
X010943Y007490D01*
X010943Y007535D02*
X010673Y007535D01*
X010673Y007490D02*
X010673Y007580D01*
X009873Y007015D02*
X009828Y007060D01*
X009738Y007060D01*
X009693Y007015D01*
X009578Y007060D02*
X009578Y006925D01*
X009488Y006970D01*
X009443Y006970D01*
X009398Y006925D01*
X009398Y006835D01*
X009443Y006790D01*
X009533Y006790D01*
X009578Y006835D01*
X009693Y006835D02*
X009738Y006790D01*
X009828Y006790D01*
X009873Y006835D01*
X009873Y007015D01*
X009578Y007060D02*
X009398Y007060D01*
X011643Y005909D02*
X011823Y006089D01*
X011868Y006089D01*
X011868Y005909D01*
X011823Y005795D02*
X011868Y005750D01*
X011868Y005660D01*
X011823Y005615D01*
X011643Y005615D01*
X011598Y005660D01*
X011598Y005750D01*
X011643Y005795D01*
X011643Y005909D02*
X011598Y005909D01*
X010693Y005499D02*
X010423Y005499D01*
X010423Y005409D02*
X010423Y005589D01*
X010603Y005409D02*
X010693Y005499D01*
X010693Y005295D02*
X010693Y005115D01*
X010423Y005115D01*
X010558Y005115D02*
X010558Y005205D01*
X017523Y005294D02*
X017651Y005167D01*
X017714Y005167D01*
X017778Y005231D01*
X017778Y005294D01*
X017859Y005375D02*
X017827Y005407D01*
X017827Y005471D01*
X017891Y005534D01*
X017891Y005598D01*
X017859Y005630D01*
X017795Y005630D01*
X017731Y005566D01*
X017731Y005503D01*
X017763Y005471D01*
X017827Y005471D01*
X017891Y005534D02*
X017954Y005534D01*
X017986Y005503D01*
X017986Y005439D01*
X017923Y005375D01*
X017859Y005375D01*
X017651Y005422D02*
X017587Y005422D01*
X017523Y005358D01*
X017523Y005294D01*
X018548Y005227D02*
X018548Y005046D01*
X018548Y005136D02*
X018818Y005136D01*
X018728Y005046D01*
X018683Y004932D02*
X018638Y004887D01*
X018638Y004752D01*
X018548Y004752D02*
X018818Y004752D01*
X018818Y004887D01*
X018773Y004932D01*
X018683Y004932D01*
X018818Y004637D02*
X018818Y004547D01*
X018818Y004592D02*
X018593Y004592D01*
X018548Y004547D01*
X018548Y004502D01*
X018593Y004457D01*
X023389Y004450D02*
X023569Y004450D01*
X023659Y004540D01*
X023569Y004630D01*
X023389Y004630D01*
X023389Y004745D02*
X023659Y004745D01*
X023389Y004925D01*
X023659Y004925D01*
X023659Y005040D02*
X023659Y005220D01*
X023659Y005130D02*
X023389Y005130D01*
X023389Y005334D02*
X023569Y005514D01*
X023614Y005514D01*
X023659Y005469D01*
X023659Y005379D01*
X023614Y005334D01*
X023389Y005334D02*
X023389Y005514D01*
X024973Y005589D02*
X024973Y005409D01*
X025153Y005589D01*
X025198Y005589D01*
X025243Y005544D01*
X025243Y005454D01*
X025198Y005409D01*
X025198Y005295D02*
X025108Y005295D01*
X025063Y005250D01*
X025063Y005115D01*
X025063Y005205D02*
X024973Y005295D01*
X025198Y005295D02*
X025243Y005250D01*
X025243Y005115D01*
X024973Y005115D01*
X023524Y004630D02*
X023524Y004450D01*
X025323Y007315D02*
X025503Y007315D01*
X025593Y007405D01*
X025503Y007495D01*
X025323Y007495D01*
X025323Y007609D02*
X025593Y007609D01*
X025323Y007789D01*
X025593Y007789D01*
X025593Y007904D02*
X025593Y008084D01*
X025593Y007994D02*
X025323Y007994D01*
X025323Y008198D02*
X025323Y008379D01*
X025323Y008289D02*
X025593Y008289D01*
X025503Y008198D01*
X025458Y007495D02*
X025458Y007315D01*
X025243Y010115D02*
X024973Y010115D01*
X025063Y010115D02*
X025063Y010250D01*
X025108Y010295D01*
X025198Y010295D01*
X025243Y010250D01*
X025243Y010115D01*
X025063Y010205D02*
X024973Y010295D01*
X025108Y010409D02*
X025108Y010589D01*
X024973Y010544D02*
X025243Y010544D01*
X025108Y010409D01*
X018072Y010297D02*
X018072Y010361D01*
X018009Y010425D01*
X017945Y010425D01*
X017818Y010297D01*
X017818Y010234D01*
X017881Y010170D01*
X017945Y010170D01*
X018072Y010297D01*
X017913Y010265D02*
X017786Y010265D01*
X017705Y010346D02*
X017578Y010474D01*
X017641Y010410D02*
X017832Y010601D01*
X017832Y010474D01*
X014998Y010840D02*
X014908Y010840D01*
X014953Y010840D02*
X014953Y011110D01*
X014998Y011110D02*
X014908Y011110D01*
X014801Y011065D02*
X014801Y010885D01*
X014756Y010840D01*
X014666Y010840D01*
X014621Y010885D01*
X014507Y010840D02*
X014327Y010840D01*
X014417Y010840D02*
X014417Y011110D01*
X014507Y011020D01*
X014621Y011065D02*
X014666Y011110D01*
X014756Y011110D01*
X014801Y011065D01*
X011868Y009999D02*
X011598Y009999D01*
X011598Y009909D02*
X011598Y010089D01*
X011778Y009909D02*
X011868Y009999D01*
X011823Y009795D02*
X011868Y009750D01*
X011868Y009660D01*
X011823Y009615D01*
X011643Y009615D01*
X011598Y009660D01*
X011598Y009750D01*
X011643Y009795D01*
X009898Y009835D02*
X009853Y009790D01*
X009763Y009790D01*
X009718Y009835D01*
X009603Y009925D02*
X009423Y009925D01*
X009468Y009790D02*
X009468Y010060D01*
X009603Y009925D01*
X009718Y010015D02*
X009763Y010060D01*
X009853Y010060D01*
X009898Y010015D01*
X009898Y009835D01*
D12*
X020448Y006215D02*
X020450Y006235D01*
X020456Y006253D01*
X020465Y006271D01*
X020477Y006286D01*
X020492Y006298D01*
X020510Y006307D01*
X020528Y006313D01*
X020548Y006315D01*
X020568Y006313D01*
X020586Y006307D01*
X020604Y006298D01*
X020619Y006286D01*
X020631Y006271D01*
X020640Y006253D01*
X020646Y006235D01*
X020648Y006215D01*
X020646Y006195D01*
X020640Y006177D01*
X020631Y006159D01*
X020619Y006144D01*
X020604Y006132D01*
X020586Y006123D01*
X020568Y006117D01*
X020548Y006115D01*
X020528Y006117D01*
X020510Y006123D01*
X020492Y006132D01*
X020477Y006144D01*
X020465Y006159D01*
X020456Y006177D01*
X020450Y006195D01*
X020448Y006215D01*
X021848Y010215D02*
X021850Y010235D01*
X021856Y010253D01*
X021865Y010271D01*
X021877Y010286D01*
X021892Y010298D01*
X021910Y010307D01*
X021928Y010313D01*
X021948Y010315D01*
X021968Y010313D01*
X021986Y010307D01*
X022004Y010298D01*
X022019Y010286D01*
X022031Y010271D01*
X022040Y010253D01*
X022046Y010235D01*
X022048Y010215D01*
X022046Y010195D01*
X022040Y010177D01*
X022031Y010159D01*
X022019Y010144D01*
X022004Y010132D01*
X021986Y010123D01*
X021968Y010117D01*
X021948Y010115D01*
X021928Y010117D01*
X021910Y010123D01*
X021892Y010132D01*
X021877Y010144D01*
X021865Y010159D01*
X021856Y010177D01*
X021850Y010195D01*
X021848Y010215D01*
X022548Y010915D02*
X022550Y010935D01*
X022556Y010953D01*
X022565Y010971D01*
X022577Y010986D01*
X022592Y010998D01*
X022610Y011007D01*
X022628Y011013D01*
X022648Y011015D01*
X022668Y011013D01*
X022686Y011007D01*
X022704Y010998D01*
X022719Y010986D01*
X022731Y010971D01*
X022740Y010953D01*
X022746Y010935D01*
X022748Y010915D01*
X022746Y010895D01*
X022740Y010877D01*
X022731Y010859D01*
X022719Y010844D01*
X022704Y010832D01*
X022686Y010823D01*
X022668Y010817D01*
X022648Y010815D01*
X022628Y010817D01*
X022610Y010823D01*
X022592Y010832D01*
X022577Y010844D01*
X022565Y010859D01*
X022556Y010877D01*
X022550Y010895D01*
X022548Y010915D01*
D13*
X022548Y010990D02*
X023848Y010990D01*
X023848Y005690D01*
X022548Y005690D01*
X022361Y005398D02*
X021810Y005398D01*
X021810Y004531D01*
X019684Y004531D01*
X021810Y004531D02*
X022361Y004531D01*
X023188Y004650D02*
X023188Y005279D01*
X021810Y005398D02*
X019684Y005398D01*
X018548Y005690D02*
X018448Y005690D01*
X018448Y006340D01*
X017209Y007728D02*
X017209Y007951D01*
X014759Y010401D01*
X014537Y010401D01*
X012087Y007951D01*
X012087Y007728D01*
X014537Y005278D01*
X014759Y005278D01*
X017209Y007728D01*
X017685Y009185D02*
X018047Y009547D01*
X017003Y010591D02*
X016641Y010229D01*
X018448Y010340D02*
X018448Y010990D01*
X018548Y010990D01*
X009942Y008340D02*
X009604Y008340D01*
X010052Y007945D02*
X010052Y007734D01*
X009942Y007340D02*
X009604Y007340D01*
X009451Y005635D02*
X009845Y005635D01*
X009845Y005044D02*
X009451Y005044D01*
D14*
X014537Y010067D02*
X014539Y010087D01*
X014544Y010107D01*
X014554Y010125D01*
X014566Y010142D01*
X014581Y010156D01*
X014599Y010166D01*
X014618Y010174D01*
X014638Y010178D01*
X014658Y010178D01*
X014678Y010174D01*
X014697Y010166D01*
X014715Y010156D01*
X014730Y010142D01*
X014742Y010125D01*
X014752Y010107D01*
X014757Y010087D01*
X014759Y010067D01*
X014757Y010047D01*
X014752Y010027D01*
X014742Y010009D01*
X014730Y009992D01*
X014715Y009978D01*
X014697Y009968D01*
X014678Y009960D01*
X014658Y009956D01*
X014638Y009956D01*
X014618Y009960D01*
X014599Y009968D01*
X014581Y009978D01*
X014566Y009992D01*
X014554Y010009D01*
X014544Y010027D01*
X014539Y010047D01*
X014537Y010067D01*
D15*
X009373Y007210D03*
D16*
X020286Y007841D03*
D17*
X020293Y007841D03*
X021983Y007841D03*
D18*
X021976Y007841D03*
X020300Y007841D03*
D19*
X020306Y007841D03*
X021969Y007841D03*
D20*
X020313Y007841D03*
D21*
X020319Y007841D03*
X021956Y007841D03*
D22*
X020326Y007841D03*
D23*
X020333Y007841D03*
X021943Y007841D03*
D24*
X020339Y007845D03*
D25*
X020346Y007841D03*
X021930Y007841D03*
D26*
X021923Y007841D03*
X020352Y007841D03*
D27*
X020359Y007841D03*
D28*
X020366Y007841D03*
X021910Y007841D03*
D29*
X021903Y007841D03*
X020372Y007841D03*
D30*
X020379Y007841D03*
X020399Y007841D03*
X021884Y007841D03*
X021897Y007841D03*
D31*
X021890Y007841D03*
X021877Y007841D03*
X020392Y007841D03*
X020385Y007841D03*
D32*
X020405Y007841D03*
X020418Y007841D03*
X020425Y007841D03*
X021857Y007841D03*
X021870Y007841D03*
D33*
X021864Y007841D03*
X020412Y007841D03*
D34*
X020432Y007841D03*
X020451Y007841D03*
X020471Y007841D03*
X020484Y007841D03*
X020504Y007841D03*
X020524Y007841D03*
X020544Y007841D03*
X020564Y007841D03*
X020577Y007841D03*
X020597Y007841D03*
X020616Y007841D03*
X020636Y007841D03*
X020649Y007841D03*
X020669Y007841D03*
X021224Y007841D03*
X021237Y007841D03*
X021257Y007841D03*
X021276Y007841D03*
X021296Y007841D03*
X021309Y007841D03*
X021329Y007841D03*
X021349Y007841D03*
X021369Y007841D03*
X021389Y007841D03*
X021402Y007841D03*
X021422Y007841D03*
X021441Y007841D03*
X021461Y007841D03*
X021474Y007841D03*
X021494Y007841D03*
D35*
X021488Y007841D03*
X021481Y007841D03*
X021468Y007841D03*
X021455Y007841D03*
X021448Y007841D03*
X021435Y007841D03*
X021428Y007841D03*
X021415Y007841D03*
X021408Y007841D03*
X021395Y007841D03*
X021382Y007841D03*
X021375Y007841D03*
X021362Y007841D03*
X021356Y007841D03*
X021342Y007841D03*
X021336Y007841D03*
X021323Y007841D03*
X021316Y007841D03*
X021303Y007841D03*
X021290Y007841D03*
X021283Y007841D03*
X021270Y007841D03*
X021263Y007841D03*
X021250Y007841D03*
X021243Y007841D03*
X021230Y007841D03*
X021217Y007841D03*
X021210Y007841D03*
X021501Y007841D03*
X021507Y007841D03*
X020676Y007841D03*
X020663Y007841D03*
X020656Y007841D03*
X020643Y007841D03*
X020630Y007841D03*
X020623Y007841D03*
X020610Y007841D03*
X020603Y007841D03*
X020590Y007841D03*
X020583Y007841D03*
X020570Y007841D03*
X020557Y007841D03*
X020550Y007841D03*
X020537Y007841D03*
X020531Y007841D03*
X020517Y007841D03*
X020511Y007841D03*
X020498Y007841D03*
X020491Y007841D03*
X020478Y007841D03*
X020465Y007841D03*
X020458Y007841D03*
X020445Y007841D03*
X020438Y007841D03*
D36*
X020682Y007102D03*
D37*
X020682Y007597D03*
D38*
X020682Y008336D03*
D39*
X020689Y007086D03*
X020907Y007086D03*
X020927Y007086D03*
X020946Y007086D03*
X020966Y007086D03*
X020979Y007086D03*
X020999Y007086D03*
D40*
X020689Y007432D03*
X020762Y008204D03*
X020801Y008607D03*
X020814Y008607D03*
X021587Y008607D03*
D41*
X021567Y008604D03*
X021791Y008604D03*
X020781Y008604D03*
X020689Y007759D03*
X021791Y007343D03*
D42*
X020689Y008165D03*
D43*
X020729Y008198D03*
X020689Y008587D03*
X021534Y008587D03*
X021844Y007729D03*
D44*
X020953Y008138D03*
X021158Y008416D03*
X021032Y007076D03*
X020696Y007076D03*
D45*
X020696Y007442D03*
X021620Y007330D03*
X021633Y007330D03*
X021725Y007330D03*
X021738Y007330D03*
X021745Y007330D03*
X020940Y008155D03*
X020788Y008208D03*
X020861Y008617D03*
X020867Y008617D03*
D46*
X020847Y008614D03*
X020841Y008614D03*
X021138Y008416D03*
X020775Y008204D03*
X021613Y008614D03*
X021620Y008614D03*
X021738Y008614D03*
X021745Y008614D03*
X021831Y007729D03*
X021765Y007333D03*
X021758Y007333D03*
X021613Y007333D03*
X021600Y007333D03*
X021600Y007069D03*
X021593Y007069D03*
X021580Y007069D03*
X021573Y007069D03*
X021560Y007069D03*
X021547Y007069D03*
X021540Y007069D03*
X021527Y007069D03*
X021521Y007069D03*
X021613Y007069D03*
X021620Y007069D03*
X021633Y007069D03*
X021646Y007069D03*
X021653Y007069D03*
X021666Y007069D03*
X021672Y007069D03*
X021686Y007069D03*
X021692Y007069D03*
X021705Y007069D03*
X021712Y007069D03*
X021725Y007069D03*
X021738Y007069D03*
X021745Y007069D03*
X021758Y007069D03*
X021765Y007069D03*
X021778Y007069D03*
X021785Y007069D03*
X021798Y007069D03*
X021811Y007069D03*
X021818Y007069D03*
X021831Y007069D03*
X021837Y007069D03*
X021177Y007069D03*
X020867Y007069D03*
X020702Y007069D03*
X020696Y007749D03*
D47*
X020696Y008171D03*
D48*
X020696Y008590D03*
X020702Y008590D03*
X021540Y008590D03*
X021521Y007726D03*
D49*
X020861Y007914D03*
X021197Y008079D03*
X020920Y008171D03*
X020828Y008204D03*
X020821Y008204D03*
X020920Y008627D03*
X020933Y008627D03*
X020702Y007452D03*
X020861Y007247D03*
D50*
X021171Y007063D03*
X021646Y007327D03*
X021653Y007327D03*
X021666Y007327D03*
X021672Y007327D03*
X021686Y007327D03*
X021692Y007327D03*
X021705Y007327D03*
X021712Y007327D03*
X020702Y007742D03*
X020795Y008204D03*
X020880Y008620D03*
X020887Y008620D03*
D51*
X020702Y008181D03*
D52*
X020894Y008620D03*
X021659Y007327D03*
X021679Y007327D03*
X021699Y007327D03*
X021719Y007327D03*
X020709Y007063D03*
D53*
X020834Y007254D03*
X020709Y007459D03*
X020834Y007921D03*
X020874Y008191D03*
X020854Y008198D03*
X021072Y008416D03*
X020979Y008633D03*
X020966Y008633D03*
D54*
X021092Y008416D03*
X021844Y008264D03*
X020709Y007736D03*
D55*
X020709Y008188D03*
X021844Y007376D03*
D56*
X021824Y007356D03*
X021824Y008590D03*
X020709Y008590D03*
D57*
X021098Y008416D03*
X021105Y008416D03*
X021521Y008264D03*
X021158Y007056D03*
X020715Y007056D03*
D58*
X020715Y007462D03*
X021521Y007442D03*
X021811Y007732D03*
X020993Y008155D03*
X021065Y008412D03*
X020993Y008637D03*
X020986Y008637D03*
X020828Y007917D03*
D59*
X021045Y007921D03*
X021052Y007921D03*
X021547Y007729D03*
X020887Y008191D03*
X020880Y008191D03*
X020861Y008198D03*
X021078Y008416D03*
X020973Y008633D03*
X020960Y008633D03*
X020715Y007729D03*
X021045Y007254D03*
X021052Y007254D03*
D60*
X021837Y007369D03*
X020847Y007587D03*
X021705Y007977D03*
X021712Y007977D03*
X021725Y007977D03*
X020715Y008188D03*
D61*
X020735Y008198D03*
X020722Y008594D03*
X020715Y008594D03*
X021547Y008594D03*
X021633Y008594D03*
X021818Y008594D03*
X021818Y007353D03*
D62*
X020867Y007244D03*
X020722Y007053D03*
X021818Y007732D03*
X021032Y007917D03*
X020847Y007917D03*
X020841Y007917D03*
X020913Y008175D03*
X020867Y008194D03*
X020847Y008201D03*
X020841Y008201D03*
X020986Y008155D03*
X021085Y008412D03*
X020953Y008630D03*
X020940Y008630D03*
D63*
X021026Y008643D03*
X021032Y008643D03*
X021006Y008161D03*
X021560Y007732D03*
X021831Y008043D03*
X021527Y007435D03*
X020722Y007468D03*
D64*
X020828Y007251D03*
X021138Y007046D03*
X020722Y007726D03*
X021191Y008089D03*
X021837Y008036D03*
D65*
X020722Y008194D03*
D66*
X020894Y008185D03*
X020729Y007049D03*
D67*
X020729Y007472D03*
X021567Y007729D03*
X021059Y008647D03*
D68*
X021019Y008640D03*
X021059Y008416D03*
X021534Y008251D03*
X021184Y008099D03*
X021554Y007729D03*
X020729Y007723D03*
X021131Y007043D03*
D69*
X020729Y008594D03*
D70*
X021006Y008640D03*
X021012Y008640D03*
X021052Y008416D03*
X021831Y008251D03*
X021065Y007921D03*
X020821Y007921D03*
X020821Y007254D03*
X020735Y007043D03*
X021065Y007254D03*
D71*
X021045Y007033D03*
X021098Y007033D03*
X021105Y007033D03*
X020735Y007475D03*
X020748Y007713D03*
X021026Y008161D03*
X021171Y008109D03*
X021633Y008392D03*
X021725Y008392D03*
X021811Y008241D03*
X021818Y008049D03*
X021798Y007732D03*
X021725Y007561D03*
X021712Y007561D03*
X021705Y007561D03*
X021692Y007561D03*
X021686Y007561D03*
X021672Y007561D03*
X021666Y007561D03*
X021653Y007561D03*
X021646Y007561D03*
X021078Y008650D03*
X021065Y008650D03*
D72*
X021032Y008416D03*
X021026Y008416D03*
X021012Y008158D03*
X021177Y008105D03*
X021547Y008244D03*
X021818Y008244D03*
X020735Y007716D03*
X020755Y007036D03*
X021118Y007036D03*
D73*
X021811Y007350D03*
X021197Y008412D03*
X020748Y008597D03*
X020735Y008597D03*
X021725Y008597D03*
X021811Y008597D03*
D74*
X021824Y008247D03*
X020742Y007039D03*
D75*
X020742Y007478D03*
X021164Y008119D03*
X021019Y008416D03*
X021092Y008653D03*
X021626Y008396D03*
X021732Y008396D03*
D76*
X021554Y008241D03*
X021019Y008161D03*
X021791Y007732D03*
X021719Y007561D03*
X021699Y007561D03*
X021679Y007561D03*
X021659Y007561D03*
X021639Y007561D03*
X021534Y007429D03*
X020742Y007713D03*
X020762Y007033D03*
X021072Y008650D03*
D77*
X021554Y008597D03*
X020742Y008597D03*
X020742Y008201D03*
D78*
X021045Y008412D03*
X021540Y008247D03*
X021125Y007039D03*
X020861Y007039D03*
X020748Y007039D03*
D79*
X021078Y007257D03*
X020748Y007482D03*
X020808Y007917D03*
X021158Y008122D03*
D80*
X020748Y008204D03*
X021837Y007729D03*
X021798Y007346D03*
X021191Y007082D03*
D81*
X021052Y007023D03*
X020795Y007023D03*
X020755Y007485D03*
X020768Y007703D03*
X020775Y007703D03*
X021580Y007729D03*
X021547Y007419D03*
X021151Y008125D03*
X021065Y008158D03*
X021052Y008158D03*
X020993Y008416D03*
X020986Y008416D03*
X021125Y008660D03*
X021138Y008660D03*
D82*
X021560Y008237D03*
X021573Y007729D03*
X020755Y007709D03*
X020768Y007030D03*
X020775Y007030D03*
X021085Y007030D03*
D83*
X021778Y007340D03*
X021785Y007340D03*
X020755Y008204D03*
X020808Y008607D03*
X021580Y008607D03*
X021778Y008607D03*
X021785Y008607D03*
D84*
X021560Y008600D03*
X021191Y008416D03*
X020775Y008600D03*
X020768Y008600D03*
X020755Y008600D03*
D85*
X021131Y008660D03*
X021059Y008158D03*
X021144Y008132D03*
X021791Y008059D03*
X021587Y007729D03*
X021752Y007564D03*
X020762Y007485D03*
X020801Y007023D03*
X021059Y007023D03*
D86*
X021072Y007026D03*
X020781Y007026D03*
X021626Y007561D03*
X020762Y007706D03*
X021626Y007904D03*
X021732Y007904D03*
X021804Y008056D03*
X021567Y008234D03*
X021039Y008161D03*
X021111Y008656D03*
D87*
X020762Y008600D03*
X021184Y008416D03*
X021804Y008600D03*
D88*
X021158Y008663D03*
X021151Y008663D03*
X021105Y008148D03*
X021098Y008148D03*
X021138Y008135D03*
X021600Y007561D03*
X021758Y007561D03*
X020775Y007488D03*
X020768Y007488D03*
D89*
X020960Y008142D03*
X020768Y008208D03*
X021151Y008412D03*
X020828Y008610D03*
X020821Y008610D03*
X021593Y008610D03*
X021600Y008610D03*
X021758Y008610D03*
X021765Y008610D03*
D90*
X021184Y008666D03*
X020966Y008416D03*
X021092Y008152D03*
X021111Y008145D03*
X021606Y008224D03*
X021752Y008224D03*
X021771Y008066D03*
X020801Y007696D03*
X020781Y007492D03*
X020834Y007016D03*
D91*
X020814Y007020D03*
X020781Y007699D03*
X021606Y007904D03*
X021771Y007732D03*
X021072Y008155D03*
X021587Y008227D03*
X021771Y008227D03*
X020979Y008412D03*
D92*
X021131Y008412D03*
X020781Y008208D03*
X020874Y008617D03*
X021626Y007330D03*
X021639Y007330D03*
X021732Y007330D03*
X021844Y007072D03*
D93*
X021078Y007026D03*
X021065Y007026D03*
X020788Y007026D03*
X020808Y007251D03*
X021613Y007561D03*
X021620Y007561D03*
X021633Y007561D03*
X021738Y007561D03*
X021745Y007561D03*
X021785Y007732D03*
X021745Y007904D03*
X021738Y007904D03*
X021620Y007904D03*
X021613Y007904D03*
X021798Y008056D03*
X021798Y008234D03*
X021613Y008392D03*
X021118Y008656D03*
X021105Y008656D03*
X021045Y008161D03*
X021078Y007924D03*
D94*
X021593Y007729D03*
X021600Y007729D03*
X021765Y007736D03*
X021765Y007901D03*
X021765Y008066D03*
X021758Y008066D03*
X021758Y008224D03*
X021765Y008224D03*
X021600Y008224D03*
X021765Y008396D03*
X021177Y008666D03*
X021171Y008666D03*
X020973Y008416D03*
X020960Y008416D03*
X020795Y007696D03*
X020795Y007492D03*
X020788Y007492D03*
X021560Y007412D03*
X021765Y007564D03*
X020841Y007016D03*
X020828Y007016D03*
X020821Y007016D03*
D95*
X020808Y007020D03*
X020788Y007699D03*
X021600Y007904D03*
X021758Y007904D03*
X021778Y008062D03*
X021785Y008062D03*
X021778Y008227D03*
X021593Y008227D03*
X021600Y008392D03*
X021125Y008142D03*
X021118Y008142D03*
X021085Y008155D03*
X021078Y008155D03*
D96*
X021171Y008412D03*
X021177Y008412D03*
X020795Y008604D03*
X020788Y008604D03*
X021573Y008604D03*
X021798Y008604D03*
X021527Y007726D03*
D97*
X020801Y007254D03*
X021639Y008218D03*
X021659Y008218D03*
X021679Y008218D03*
X021699Y008218D03*
X021719Y008218D03*
D98*
X021771Y008392D03*
X021752Y008069D03*
X021699Y008069D03*
X021679Y008069D03*
X021659Y008069D03*
X021639Y008069D03*
X021626Y008069D03*
X021606Y008069D03*
X021587Y008069D03*
X021567Y008069D03*
X021554Y008069D03*
X021534Y008069D03*
X021771Y007904D03*
X021752Y007732D03*
X021606Y007732D03*
X020814Y007693D03*
X020814Y007495D03*
X020801Y007495D03*
X021567Y007409D03*
X020854Y007013D03*
D99*
X020801Y007921D03*
X020946Y008416D03*
D100*
X021111Y008412D03*
X020801Y008208D03*
X020927Y008168D03*
X021824Y007732D03*
X021164Y007059D03*
X020907Y008623D03*
D101*
X021191Y008670D03*
X021197Y008670D03*
X021593Y008392D03*
X021593Y008069D03*
X021600Y008069D03*
X021613Y008069D03*
X021620Y008069D03*
X021633Y008069D03*
X021646Y008069D03*
X021653Y008069D03*
X021666Y008069D03*
X021672Y008069D03*
X021686Y008069D03*
X021692Y008069D03*
X021738Y008069D03*
X021745Y008069D03*
X021580Y008069D03*
X021573Y008069D03*
X021560Y008069D03*
X021547Y008069D03*
X021540Y008069D03*
X021527Y008069D03*
X021521Y008069D03*
X021593Y007904D03*
X021758Y007732D03*
X021085Y007924D03*
X020808Y007693D03*
X020808Y007495D03*
X020821Y007495D03*
X021573Y007409D03*
X021085Y007257D03*
X020847Y007013D03*
D102*
X021540Y007726D03*
X020973Y008148D03*
X020933Y008161D03*
X020808Y008208D03*
X020900Y008623D03*
X020913Y008623D03*
D103*
X021039Y008416D03*
X021824Y008046D03*
X021072Y007921D03*
X020814Y007921D03*
X020814Y007254D03*
X021072Y007254D03*
X021111Y007036D03*
D104*
X020979Y008152D03*
X020814Y008204D03*
X020927Y008627D03*
D105*
X021646Y008218D03*
X021653Y008218D03*
X021666Y008218D03*
X021672Y008218D03*
X021686Y008218D03*
X021692Y008218D03*
X021705Y008218D03*
X021712Y008218D03*
X021521Y007967D03*
X021613Y007729D03*
X020821Y007690D03*
D106*
X020828Y007591D03*
X020841Y007591D03*
X021521Y008574D03*
D107*
X021844Y008574D03*
X020834Y007591D03*
D108*
X020854Y007917D03*
X021039Y007917D03*
X020907Y008181D03*
X020834Y008201D03*
X020946Y008630D03*
X021844Y008029D03*
X021039Y007053D03*
D109*
X021771Y007336D03*
X021771Y008610D03*
X021752Y008610D03*
X021606Y008610D03*
X020834Y008610D03*
D110*
X020867Y007911D03*
X020847Y007251D03*
X020841Y007251D03*
X021032Y007251D03*
D111*
X021039Y007251D03*
X020854Y007251D03*
D112*
X021204Y007105D03*
X020854Y007587D03*
X021719Y007977D03*
D113*
X021534Y007729D03*
X021606Y007333D03*
X021752Y007333D03*
X021752Y007069D03*
X021771Y007069D03*
X021791Y007069D03*
X021804Y007069D03*
X021824Y007069D03*
X021732Y007069D03*
X021719Y007069D03*
X021699Y007069D03*
X021679Y007069D03*
X021659Y007069D03*
X021639Y007069D03*
X021626Y007069D03*
X021606Y007069D03*
X021587Y007069D03*
X021567Y007069D03*
X021554Y007069D03*
X021534Y007069D03*
X021144Y008416D03*
X020854Y008614D03*
X021626Y008614D03*
X021732Y008614D03*
D114*
X020861Y007614D03*
X021045Y007600D03*
D115*
X020867Y007640D03*
D116*
X020874Y007148D03*
D117*
X020874Y007719D03*
D118*
X020874Y008416D03*
D119*
X020880Y007145D03*
D120*
X020880Y007716D03*
D121*
X020880Y008416D03*
X020887Y008416D03*
D122*
X021118Y007597D03*
X021012Y007142D03*
X020887Y007142D03*
D123*
X020887Y007713D03*
D124*
X020894Y007135D03*
D125*
X020894Y007703D03*
D126*
X021534Y007973D03*
X020907Y008416D03*
X020894Y008416D03*
D127*
X020900Y007086D03*
X020913Y007086D03*
X020920Y007086D03*
X020933Y007086D03*
X020940Y007086D03*
X020953Y007086D03*
X020960Y007086D03*
X020973Y007086D03*
X020986Y007086D03*
X020993Y007086D03*
D128*
X020900Y007653D03*
D129*
X020900Y008185D03*
X021527Y008257D03*
X021837Y008257D03*
X021151Y007049D03*
D130*
X020900Y008416D03*
D131*
X020907Y007650D03*
D132*
X020913Y007647D03*
D133*
X021527Y007970D03*
X021778Y007904D03*
X021712Y007732D03*
X021705Y007732D03*
X021692Y007732D03*
X021686Y007732D03*
X021672Y007732D03*
X021666Y007732D03*
X021653Y007732D03*
X021646Y007732D03*
X020913Y008412D03*
D134*
X021851Y008145D03*
X020920Y007643D03*
D135*
X021633Y007881D03*
X021725Y007736D03*
X021778Y008396D03*
X020933Y008416D03*
X020920Y008416D03*
D136*
X020927Y007640D03*
D137*
X020927Y008416D03*
X021587Y008396D03*
D138*
X020986Y007637D03*
X020933Y007637D03*
D139*
X020940Y007630D03*
X020973Y007630D03*
D140*
X021580Y007406D03*
X020953Y008416D03*
X020940Y008416D03*
D141*
X020946Y007624D03*
X021184Y007604D03*
D142*
X020946Y008148D03*
D143*
X020953Y007617D03*
D144*
X020960Y007620D03*
D145*
X020966Y007627D03*
D146*
X020966Y008148D03*
D147*
X021514Y008142D03*
X020979Y007633D03*
D148*
X020993Y007640D03*
D149*
X020999Y007643D03*
D150*
X020999Y008158D03*
D151*
X020999Y008412D03*
D152*
X020999Y008637D03*
X021059Y007257D03*
D153*
X021006Y007135D03*
X021098Y007597D03*
X021105Y007597D03*
D154*
X021006Y007696D03*
D155*
X021540Y007426D03*
X021811Y008053D03*
X021745Y008396D03*
X021738Y008396D03*
X021620Y008396D03*
X021098Y008653D03*
X021085Y008653D03*
X021012Y008416D03*
X021006Y008416D03*
X021032Y008158D03*
D156*
X021012Y007703D03*
X021197Y007604D03*
D157*
X021019Y007145D03*
D158*
X021019Y007709D03*
D159*
X021026Y007148D03*
D160*
X021026Y007713D03*
D161*
X021032Y007640D03*
D162*
X021039Y007620D03*
X021131Y007600D03*
D163*
X021804Y007732D03*
X021039Y008643D03*
D164*
X021045Y008647D03*
X021052Y008647D03*
D165*
X021052Y007591D03*
D166*
X021059Y007591D03*
X021514Y008561D03*
D167*
X021732Y008036D03*
X021059Y007924D03*
X021144Y007046D03*
D168*
X021078Y007594D03*
X021065Y007594D03*
D169*
X021072Y007594D03*
D170*
X021085Y007597D03*
D171*
X021732Y007564D03*
X021092Y007030D03*
X021804Y008237D03*
D172*
X021092Y007597D03*
D173*
X021111Y007600D03*
D174*
X021118Y008416D03*
X021125Y008416D03*
D175*
X021125Y007600D03*
D176*
X021554Y007416D03*
X021606Y007561D03*
X021131Y008135D03*
X021144Y008663D03*
X021164Y008663D03*
D177*
X021138Y007604D03*
D178*
X021144Y007600D03*
D179*
X021151Y007600D03*
D180*
X021158Y007604D03*
D181*
X021164Y007604D03*
D182*
X021184Y007076D03*
X021164Y008416D03*
D183*
X021171Y007600D03*
D184*
X021177Y007604D03*
D185*
X021191Y007604D03*
D186*
X021197Y007092D03*
D187*
X021204Y007600D03*
D188*
X021204Y008336D03*
D189*
X021514Y007257D03*
D190*
X021514Y007726D03*
D191*
X021527Y008581D03*
X021837Y008581D03*
D192*
X021540Y007977D03*
D193*
X021573Y008231D03*
X021580Y008231D03*
X021785Y008231D03*
X021758Y008396D03*
X021778Y007736D03*
D194*
X021732Y007732D03*
X021626Y007732D03*
X021639Y007878D03*
X021659Y007878D03*
X021679Y007878D03*
X021699Y007878D03*
X021587Y007402D03*
D195*
X021587Y007561D03*
D196*
X021659Y007732D03*
X021679Y007732D03*
X021699Y007732D03*
X021719Y007732D03*
X021587Y007904D03*
D197*
X021646Y007878D03*
X021653Y007878D03*
X021666Y007878D03*
X021672Y007878D03*
X021686Y007878D03*
X021692Y007878D03*
X021738Y007732D03*
X021745Y007732D03*
X021633Y007732D03*
X021620Y007732D03*
X021593Y007402D03*
D198*
X021593Y007561D03*
X021613Y008221D03*
X021620Y008221D03*
X021633Y008221D03*
X021725Y008221D03*
X021738Y008221D03*
X021745Y008221D03*
D199*
X021791Y008231D03*
X021752Y008396D03*
X021606Y008396D03*
X021752Y007901D03*
D200*
X021732Y008221D03*
X021626Y008221D03*
X021771Y007561D03*
D201*
X021639Y007729D03*
D202*
X021639Y008521D03*
X021659Y008521D03*
X021679Y008521D03*
X021699Y008521D03*
X021719Y008521D03*
D203*
X021712Y008521D03*
X021705Y008521D03*
X021692Y008521D03*
X021686Y008521D03*
X021672Y008521D03*
X021666Y008521D03*
X021653Y008521D03*
X021646Y008521D03*
D204*
X021778Y007564D03*
D205*
X021804Y007346D03*
D206*
X021831Y007363D03*
D207*
X021831Y008587D03*
D208*
X021851Y007261D03*
D209*
X021851Y007732D03*
X021851Y008557D03*
D210*
X021917Y007841D03*
D211*
X021936Y007841D03*
D212*
X021950Y007841D03*
D213*
X021963Y007845D03*
D214*
X021989Y007841D03*
M02*
