G75*
%MOIN*%
%OFA0B0*%
%FSLAX24Y24*%
%IPPOS*%
%LPD*%
%AMOC8*
5,1,8,0,0,1.08239X$1,22.5*
%
%ADD10C,0.0090*%
%ADD11R,0.0591X0.0512*%
%ADD12C,0.0740*%
%ADD13C,0.1266*%
%ADD14R,0.0512X0.0591*%
%ADD15C,0.0177*%
%ADD16C,0.0100*%
%ADD17R,0.0591X0.0197*%
%ADD18R,0.0197X0.0591*%
%ADD19R,0.1650X0.0700*%
%ADD20R,0.0472X0.0217*%
%ADD21R,0.0394X0.0591*%
%ADD22R,0.0300X0.0500*%
%ADD23R,0.0500X0.0300*%
%ADD24R,0.0591X0.0709*%
%ADD25R,0.0500X0.0250*%
%ADD26C,0.0080*%
%ADD27C,0.0060*%
%ADD28C,0.0240*%
%ADD29OC8,0.0591*%
%ADD30C,0.0120*%
D10*
X006318Y006610D02*
X006728Y006610D01*
X006591Y006746D01*
X006728Y006883D01*
X006318Y006883D01*
X006318Y007070D02*
X006318Y007343D01*
X006523Y007207D02*
X006523Y007070D01*
X006728Y007070D02*
X006318Y007070D01*
X006728Y007070D02*
X006728Y007343D01*
X006728Y007530D02*
X006318Y007530D01*
X006318Y007804D01*
X006386Y007991D02*
X006318Y008059D01*
X006318Y008196D01*
X006386Y008264D01*
X006455Y008264D01*
X006523Y008196D01*
X006523Y008059D01*
X006591Y007991D01*
X006660Y007991D01*
X006728Y008059D01*
X006728Y008196D01*
X006660Y008264D01*
X006660Y008451D02*
X006386Y008451D01*
X006318Y008519D01*
X006318Y008656D01*
X006386Y008725D01*
X006660Y008725D01*
X006728Y008656D01*
X006728Y008519D01*
X006660Y008451D01*
X006728Y008911D02*
X006318Y008911D01*
X006318Y009185D02*
X006728Y008911D01*
X006728Y009185D02*
X006318Y009185D01*
D11*
X011148Y009466D03*
X011148Y010214D03*
X011148Y006214D03*
X011148Y005466D03*
X024523Y005714D03*
X024523Y004966D03*
X024523Y009966D03*
X024523Y010714D03*
D12*
X008093Y009217D03*
X008093Y008283D03*
X008093Y007396D03*
X008093Y006462D03*
D13*
X007148Y005556D03*
X007148Y010123D03*
D14*
X009274Y009340D03*
X010022Y009340D03*
X010022Y006340D03*
X009274Y006340D03*
G36*
X017472Y005498D02*
X017110Y005136D01*
X016694Y005552D01*
X017056Y005914D01*
X017472Y005498D01*
G37*
G36*
X018001Y006027D02*
X017639Y005665D01*
X017223Y006081D01*
X017585Y006443D01*
X018001Y006027D01*
G37*
D15*
X017480Y009353D02*
X017480Y009353D01*
X017884Y009757D01*
X017884Y009757D01*
X017480Y009353D01*
X017656Y009529D02*
X017656Y009529D01*
X017832Y009705D02*
X017832Y009705D01*
X017146Y009688D02*
X017146Y009688D01*
X017550Y010092D01*
X017550Y010092D01*
X017146Y009688D01*
X017322Y009864D02*
X017322Y009864D01*
X017498Y010040D02*
X017498Y010040D01*
X016812Y010022D02*
X016812Y010022D01*
X017216Y010426D01*
X017216Y010426D01*
X016812Y010022D01*
X016988Y010198D02*
X016988Y010198D01*
X017164Y010374D02*
X017164Y010374D01*
D16*
X017297Y010506D02*
X017014Y010224D01*
X016731Y009941D01*
X017065Y009607D02*
X017348Y009890D01*
X017631Y010172D01*
X017965Y009838D02*
X017682Y009555D01*
X017399Y009273D01*
D17*
G36*
X016431Y008870D02*
X016847Y009286D01*
X016985Y009148D01*
X016569Y008732D01*
X016431Y008870D01*
G37*
G36*
X016654Y008647D02*
X017070Y009063D01*
X017208Y008925D01*
X016792Y008509D01*
X016654Y008647D01*
G37*
G36*
X016876Y008424D02*
X017292Y008840D01*
X017430Y008702D01*
X017014Y008286D01*
X016876Y008424D01*
G37*
G36*
X017099Y008202D02*
X017515Y008618D01*
X017653Y008480D01*
X017237Y008064D01*
X017099Y008202D01*
G37*
G36*
X016208Y009092D02*
X016624Y009508D01*
X016762Y009370D01*
X016346Y008954D01*
X016208Y009092D01*
G37*
G36*
X015986Y009315D02*
X016402Y009731D01*
X016540Y009593D01*
X016124Y009177D01*
X015986Y009315D01*
G37*
G36*
X015763Y009538D02*
X016179Y009954D01*
X016317Y009816D01*
X015901Y009400D01*
X015763Y009538D01*
G37*
G36*
X015540Y009761D02*
X015956Y010177D01*
X016094Y010039D01*
X015678Y009623D01*
X015540Y009761D01*
G37*
G36*
X015317Y009983D02*
X015733Y010399D01*
X015871Y010261D01*
X015455Y009845D01*
X015317Y009983D01*
G37*
G36*
X015095Y010206D02*
X015511Y010622D01*
X015649Y010484D01*
X015233Y010068D01*
X015095Y010206D01*
G37*
G36*
X014872Y010429D02*
X015288Y010845D01*
X015426Y010707D01*
X015010Y010291D01*
X014872Y010429D01*
G37*
G36*
X011643Y007199D02*
X012059Y007615D01*
X012197Y007477D01*
X011781Y007061D01*
X011643Y007199D01*
G37*
G36*
X011865Y006977D02*
X012281Y007393D01*
X012419Y007255D01*
X012003Y006839D01*
X011865Y006977D01*
G37*
G36*
X012088Y006754D02*
X012504Y007170D01*
X012642Y007032D01*
X012226Y006616D01*
X012088Y006754D01*
G37*
G36*
X012311Y006531D02*
X012727Y006947D01*
X012865Y006809D01*
X012449Y006393D01*
X012311Y006531D01*
G37*
G36*
X012534Y006309D02*
X012950Y006725D01*
X013088Y006587D01*
X012672Y006171D01*
X012534Y006309D01*
G37*
G36*
X012756Y006086D02*
X013172Y006502D01*
X013310Y006364D01*
X012894Y005948D01*
X012756Y006086D01*
G37*
G36*
X012979Y005863D02*
X013395Y006279D01*
X013533Y006141D01*
X013117Y005725D01*
X012979Y005863D01*
G37*
G36*
X013202Y005640D02*
X013618Y006056D01*
X013756Y005918D01*
X013340Y005502D01*
X013202Y005640D01*
G37*
G36*
X013424Y005418D02*
X013840Y005834D01*
X013978Y005696D01*
X013562Y005280D01*
X013424Y005418D01*
G37*
G36*
X013647Y005195D02*
X014063Y005611D01*
X014201Y005473D01*
X013785Y005057D01*
X013647Y005195D01*
G37*
G36*
X013870Y004972D02*
X014286Y005388D01*
X014424Y005250D01*
X014008Y004834D01*
X013870Y004972D01*
G37*
D18*
G36*
X014872Y005250D02*
X015010Y005388D01*
X015426Y004972D01*
X015288Y004834D01*
X014872Y005250D01*
G37*
G36*
X015095Y005473D02*
X015233Y005611D01*
X015649Y005195D01*
X015511Y005057D01*
X015095Y005473D01*
G37*
G36*
X015317Y005696D02*
X015455Y005834D01*
X015871Y005418D01*
X015733Y005280D01*
X015317Y005696D01*
G37*
G36*
X015540Y005918D02*
X015678Y006056D01*
X016094Y005640D01*
X015956Y005502D01*
X015540Y005918D01*
G37*
G36*
X015763Y006141D02*
X015901Y006279D01*
X016317Y005863D01*
X016179Y005725D01*
X015763Y006141D01*
G37*
G36*
X015986Y006364D02*
X016124Y006502D01*
X016540Y006086D01*
X016402Y005948D01*
X015986Y006364D01*
G37*
G36*
X016208Y006587D02*
X016346Y006725D01*
X016762Y006309D01*
X016624Y006171D01*
X016208Y006587D01*
G37*
G36*
X016431Y006809D02*
X016569Y006947D01*
X016985Y006531D01*
X016847Y006393D01*
X016431Y006809D01*
G37*
G36*
X016654Y007032D02*
X016792Y007170D01*
X017208Y006754D01*
X017070Y006616D01*
X016654Y007032D01*
G37*
G36*
X016876Y007255D02*
X017014Y007393D01*
X017430Y006977D01*
X017292Y006839D01*
X016876Y007255D01*
G37*
G36*
X017099Y007477D02*
X017237Y007615D01*
X017653Y007199D01*
X017515Y007061D01*
X017099Y007477D01*
G37*
G36*
X012534Y009370D02*
X012672Y009508D01*
X013088Y009092D01*
X012950Y008954D01*
X012534Y009370D01*
G37*
G36*
X012756Y009593D02*
X012894Y009731D01*
X013310Y009315D01*
X013172Y009177D01*
X012756Y009593D01*
G37*
G36*
X012979Y009816D02*
X013117Y009954D01*
X013533Y009538D01*
X013395Y009400D01*
X012979Y009816D01*
G37*
G36*
X013202Y010039D02*
X013340Y010177D01*
X013756Y009761D01*
X013618Y009623D01*
X013202Y010039D01*
G37*
G36*
X013424Y010261D02*
X013562Y010399D01*
X013978Y009983D01*
X013840Y009845D01*
X013424Y010261D01*
G37*
G36*
X013647Y010484D02*
X013785Y010622D01*
X014201Y010206D01*
X014063Y010068D01*
X013647Y010484D01*
G37*
G36*
X013870Y010707D02*
X014008Y010845D01*
X014424Y010429D01*
X014286Y010291D01*
X013870Y010707D01*
G37*
G36*
X012311Y009148D02*
X012449Y009286D01*
X012865Y008870D01*
X012727Y008732D01*
X012311Y009148D01*
G37*
G36*
X012088Y008925D02*
X012226Y009063D01*
X012642Y008647D01*
X012504Y008509D01*
X012088Y008925D01*
G37*
G36*
X011865Y008702D02*
X012003Y008840D01*
X012419Y008424D01*
X012281Y008286D01*
X011865Y008702D01*
G37*
G36*
X011643Y008480D02*
X011781Y008618D01*
X012197Y008202D01*
X012059Y008064D01*
X011643Y008480D01*
G37*
D19*
X024895Y008915D03*
X024895Y006764D03*
D20*
X010285Y007466D03*
X009261Y007466D03*
X009261Y007840D03*
X009261Y008214D03*
X010285Y008214D03*
D21*
X010081Y005340D03*
X009215Y005340D03*
D22*
X018798Y005765D03*
X019298Y005765D03*
X019798Y005765D03*
X020298Y005765D03*
X020798Y005765D03*
X021298Y005765D03*
X021798Y005765D03*
X022298Y005765D03*
X022298Y010915D03*
X021798Y010915D03*
X021298Y010915D03*
X020798Y010915D03*
X020298Y010915D03*
X019798Y010915D03*
X019298Y010915D03*
X018798Y010915D03*
D23*
X018498Y010090D03*
X018498Y009590D03*
X018498Y009090D03*
X018498Y008590D03*
X018498Y008090D03*
X018498Y007590D03*
X018498Y007090D03*
X018498Y006590D03*
D24*
X019251Y004965D03*
X022795Y004965D03*
D25*
X018148Y005017D03*
X018148Y004662D03*
D26*
X006459Y004519D02*
X006353Y004626D01*
X006295Y004764D01*
X006288Y004840D01*
X006288Y006465D01*
X006788Y006465D01*
X006873Y006549D01*
X006873Y006670D01*
X006797Y006746D01*
X006805Y006755D01*
X006806Y006752D01*
X006907Y006651D01*
X007038Y006597D01*
X007179Y006597D01*
X007310Y006651D01*
X007411Y006752D01*
X007465Y006883D01*
X007465Y007025D01*
X007411Y007156D01*
X007310Y007256D01*
X007179Y007310D01*
X007038Y007310D01*
X006907Y007256D01*
X006873Y007223D01*
X006873Y007404D01*
X006840Y007437D01*
X006873Y007470D01*
X006873Y007590D01*
X006788Y007675D01*
X006463Y007675D01*
X006463Y007862D01*
X006489Y007888D01*
X006531Y007846D01*
X006720Y007846D01*
X006772Y007898D01*
X006788Y007914D01*
X006788Y007914D01*
X006821Y007947D01*
X006873Y007999D01*
X006873Y008256D01*
X006788Y008341D01*
X006771Y008358D01*
X006772Y008358D01*
X006788Y008374D01*
X006788Y008374D01*
X006821Y008408D01*
X006872Y008458D01*
X006907Y008423D01*
X007038Y008369D01*
X007179Y008369D01*
X007310Y008423D01*
X007411Y008523D01*
X007465Y008654D01*
X007465Y008796D01*
X007411Y008927D01*
X007310Y009028D01*
X007179Y009082D01*
X007038Y009082D01*
X006907Y009028D01*
X006862Y008983D01*
X006862Y008983D01*
X006859Y008999D01*
X006821Y009024D01*
X006796Y009048D01*
X006873Y009125D01*
X006873Y009245D01*
X006788Y009330D01*
X006362Y009330D01*
X006348Y009339D01*
X006304Y009330D01*
X006288Y009330D01*
X006288Y010840D01*
X006295Y010915D01*
X006353Y011053D01*
X006459Y011160D01*
X006598Y011217D01*
X006673Y011225D01*
X018566Y011225D01*
X018548Y011206D01*
X018548Y010623D01*
X018606Y010565D01*
X018989Y010565D01*
X019019Y010595D01*
X019076Y010595D01*
X019106Y010565D01*
X019489Y010565D01*
X019519Y010595D01*
X019576Y010595D01*
X019606Y010565D01*
X019989Y010565D01*
X020019Y010595D01*
X020027Y010595D01*
X020036Y010579D01*
X020062Y010553D01*
X020094Y010534D01*
X020129Y010525D01*
X020263Y010525D01*
X020263Y010880D01*
X020333Y010880D01*
X020333Y010525D01*
X020385Y010525D01*
X020340Y010480D01*
X018281Y010480D01*
X018218Y010543D01*
X018218Y010656D01*
X018089Y010785D01*
X017907Y010785D01*
X017778Y010656D01*
X017778Y010473D01*
X017907Y010345D01*
X018020Y010345D01*
X018083Y010282D01*
X018148Y010217D01*
X018148Y009898D01*
X018206Y009840D01*
X018789Y009840D01*
X018848Y009898D01*
X018848Y010200D01*
X020456Y010200D01*
X020681Y010425D01*
X021606Y010425D01*
X021746Y010565D01*
X021850Y010565D01*
X021908Y010507D01*
X021908Y010507D01*
X021980Y010435D01*
X021857Y010435D01*
X021728Y010306D01*
X021728Y010178D01*
X020019Y008470D01*
X018848Y008470D01*
X018848Y008781D01*
X018789Y008840D01*
X018848Y008898D01*
X018848Y009281D01*
X018789Y009340D01*
X018848Y009398D01*
X018848Y009781D01*
X018789Y009840D01*
X018206Y009840D01*
X018148Y009781D01*
X018148Y009398D01*
X018206Y009340D01*
X018789Y009340D01*
X018206Y009340D01*
X018148Y009281D01*
X018148Y008898D01*
X018206Y008840D01*
X018789Y008840D01*
X018206Y008840D01*
X018148Y008781D01*
X018148Y008470D01*
X018119Y008470D01*
X018043Y008393D01*
X017843Y008193D01*
X017843Y008281D01*
X017720Y008404D01*
X017754Y008438D01*
X017754Y008497D01*
X017757Y008495D01*
X017939Y008495D01*
X018068Y008623D01*
X018068Y008806D01*
X017939Y008935D01*
X017757Y008935D01*
X017667Y008845D01*
X017431Y008845D01*
X017334Y008942D01*
X017309Y008942D01*
X017309Y008967D01*
X017246Y009030D01*
X017342Y009030D01*
X017418Y009106D01*
X017435Y009123D01*
X017461Y009123D01*
X017503Y009164D01*
X017549Y009164D01*
X017594Y009120D01*
X017652Y009120D01*
X017693Y009161D01*
X018077Y009545D01*
X018118Y009586D01*
X018118Y009644D01*
X018073Y009688D01*
X018073Y009734D01*
X018115Y009776D01*
X018115Y009900D01*
X018027Y009988D01*
X017903Y009988D01*
X017861Y009947D01*
X017815Y009947D01*
X017760Y010001D01*
X017770Y010025D01*
X017779Y010070D01*
X018148Y010070D01*
X018148Y009992D02*
X017770Y009992D01*
X017779Y010070D02*
X017779Y010115D01*
X017770Y010159D01*
X017753Y010200D01*
X017728Y010238D01*
X017715Y010251D01*
X017613Y010148D01*
X017607Y010155D01*
X017709Y010257D01*
X017696Y010270D01*
X017659Y010295D01*
X017617Y010312D01*
X017573Y010321D01*
X017528Y010321D01*
X017484Y010312D01*
X017460Y010302D01*
X017405Y010356D01*
X017405Y010403D01*
X017447Y010444D01*
X017447Y010520D01*
X017564Y010520D01*
X017693Y010648D01*
X017693Y010831D01*
X017564Y010960D01*
X017382Y010960D01*
X017292Y010870D01*
X017069Y010870D01*
X017037Y010837D01*
X016914Y010960D01*
X016732Y010960D01*
X016642Y010870D01*
X015994Y010870D01*
X015969Y010845D01*
X015431Y010845D01*
X015330Y010946D01*
X015247Y010946D01*
X014771Y010470D01*
X014771Y010387D01*
X014968Y010189D01*
X014993Y010189D01*
X014993Y010164D01*
X015065Y010093D01*
X014953Y009981D01*
X014953Y009968D01*
X014653Y010268D01*
X014653Y010643D01*
X014577Y010720D01*
X014303Y010993D01*
X014227Y011070D01*
X013954Y011070D01*
X013864Y011160D01*
X013682Y011160D01*
X013592Y011070D01*
X011869Y011070D01*
X011369Y010569D01*
X010811Y010569D01*
X010753Y010511D01*
X010753Y010320D01*
X010704Y010320D01*
X010614Y010410D01*
X010432Y010410D01*
X010303Y010281D01*
X010303Y010098D01*
X010432Y009970D01*
X010614Y009970D01*
X010704Y010060D01*
X010753Y010060D01*
X010753Y009916D01*
X010811Y009858D01*
X011485Y009858D01*
X011543Y009916D01*
X011543Y010376D01*
X011977Y010810D01*
X013509Y010810D01*
X013084Y010385D01*
X012957Y010385D01*
X012828Y010256D01*
X012828Y010073D01*
X012957Y009945D01*
X012965Y009945D01*
X012893Y009873D01*
X012876Y009873D01*
X012840Y009863D01*
X012808Y009845D01*
X012732Y009768D01*
X013033Y009467D01*
X013020Y009454D01*
X012719Y009755D01*
X012643Y009679D01*
X012624Y009647D01*
X012617Y009619D01*
X012606Y009630D01*
X012469Y009630D01*
X012389Y009710D01*
X012207Y009710D01*
X012078Y009581D01*
X012078Y009468D01*
X011383Y008773D01*
X011383Y008647D01*
X010432Y007674D01*
X010007Y007674D01*
X009949Y007615D01*
X009949Y007605D01*
X009890Y007605D01*
X009850Y007565D01*
X009737Y007565D01*
X009616Y007444D01*
X009597Y007463D01*
X009597Y007466D01*
X009788Y007657D01*
X009788Y008048D01*
X009706Y008130D01*
X009706Y008130D01*
X009597Y008238D01*
X009597Y008363D01*
X009539Y008422D01*
X009413Y008422D01*
X009413Y008944D01*
X009571Y008944D01*
X009630Y009003D01*
X009630Y009012D01*
X009636Y008990D01*
X009654Y008958D01*
X009680Y008932D01*
X009712Y008914D01*
X009748Y008904D01*
X009982Y008904D01*
X009982Y009300D01*
X010062Y009300D01*
X010062Y009380D01*
X009982Y009380D01*
X009982Y009775D01*
X009748Y009775D01*
X009712Y009765D01*
X009680Y009747D01*
X009654Y009721D01*
X009636Y009689D01*
X009630Y009667D01*
X009630Y009676D01*
X009571Y009735D01*
X008977Y009735D01*
X008918Y009676D01*
X008918Y009003D01*
X008977Y008944D01*
X009133Y008944D01*
X009133Y008422D01*
X008983Y008422D01*
X008925Y008363D01*
X008925Y008064D01*
X008934Y008055D01*
X008913Y008034D01*
X008894Y008002D01*
X008885Y007966D01*
X008885Y007854D01*
X009247Y007854D01*
X009247Y007825D01*
X008885Y007825D01*
X008885Y007713D01*
X008894Y007677D01*
X008913Y007645D01*
X008934Y007624D01*
X008925Y007615D01*
X008925Y007316D01*
X008983Y007257D01*
X009407Y007257D01*
X009483Y007182D01*
X009483Y007107D01*
X009608Y006982D01*
X009690Y006900D01*
X009852Y006900D01*
X009883Y006868D01*
X009883Y006735D01*
X009725Y006735D01*
X009666Y006676D01*
X009666Y006667D01*
X009660Y006689D01*
X009642Y006721D01*
X009616Y006747D01*
X009584Y006765D01*
X009548Y006775D01*
X009314Y006775D01*
X009314Y006380D01*
X009234Y006380D01*
X009234Y006775D01*
X009000Y006775D01*
X008964Y006765D01*
X008932Y006747D01*
X008906Y006721D01*
X008887Y006689D01*
X008878Y006653D01*
X008878Y006380D01*
X009234Y006380D01*
X009234Y006300D01*
X008878Y006300D01*
X008878Y006026D01*
X008887Y005990D01*
X008906Y005958D01*
X008932Y005932D01*
X008964Y005914D01*
X009000Y005904D01*
X009234Y005904D01*
X009234Y006300D01*
X009314Y006300D01*
X009314Y005904D01*
X009548Y005904D01*
X009584Y005914D01*
X009616Y005932D01*
X009642Y005958D01*
X009660Y005990D01*
X009666Y006012D01*
X009666Y006003D01*
X009725Y005944D01*
X009883Y005944D01*
X009883Y005807D01*
X009955Y005735D01*
X009843Y005735D01*
X009784Y005676D01*
X009784Y005003D01*
X009843Y004944D01*
X010319Y004944D01*
X010378Y005003D01*
X010378Y005676D01*
X010319Y005735D01*
X010238Y005735D01*
X010238Y005848D01*
X010163Y005923D01*
X010163Y005944D01*
X010319Y005944D01*
X010378Y006003D01*
X010378Y006676D01*
X010319Y006735D01*
X010163Y006735D01*
X010163Y006868D01*
X010243Y006948D01*
X010243Y007131D01*
X010116Y007257D01*
X010432Y007257D01*
X011080Y006609D01*
X010834Y006609D01*
X010799Y006600D01*
X010767Y006581D01*
X010741Y006555D01*
X010722Y006523D01*
X010713Y006488D01*
X010713Y006254D01*
X011108Y006254D01*
X011108Y006174D01*
X010713Y006174D01*
X010713Y005939D01*
X010722Y005904D01*
X010741Y005872D01*
X010767Y005846D01*
X010799Y005827D01*
X010820Y005821D01*
X010811Y005821D01*
X010753Y005763D01*
X010753Y005168D01*
X010811Y005110D01*
X011485Y005110D01*
X011543Y005168D01*
X011543Y005335D01*
X012592Y005335D01*
X012682Y005245D01*
X012864Y005245D01*
X012993Y005373D01*
X012993Y005556D01*
X012864Y005685D01*
X012682Y005685D01*
X012592Y005595D01*
X011543Y005595D01*
X011543Y005763D01*
X011485Y005821D01*
X011476Y005821D01*
X011497Y005827D01*
X011529Y005846D01*
X011555Y005872D01*
X011574Y005904D01*
X011583Y005939D01*
X011583Y006174D01*
X011188Y006174D01*
X011188Y006254D01*
X011583Y006254D01*
X011583Y006450D01*
X012040Y006450D01*
X012258Y006232D01*
X012258Y006232D01*
X012340Y006150D01*
X012513Y006150D01*
X012513Y005977D01*
X012790Y005700D01*
X013000Y005700D01*
X013075Y005624D01*
X013100Y005624D01*
X013100Y005599D01*
X013298Y005401D01*
X013323Y005401D01*
X013323Y005376D01*
X013521Y005178D01*
X013546Y005178D01*
X013546Y005153D01*
X013743Y004956D01*
X013768Y004956D01*
X013768Y004931D01*
X013966Y004733D01*
X014049Y004733D01*
X014525Y005209D01*
X014525Y005292D01*
X014327Y005490D01*
X014302Y005490D01*
X014302Y005515D01*
X014105Y005712D01*
X014080Y005712D01*
X014080Y005737D01*
X013882Y005935D01*
X013857Y005935D01*
X013857Y005960D01*
X013798Y006020D01*
X014102Y006020D01*
X014182Y005940D01*
X014364Y005940D01*
X014493Y006068D01*
X014493Y006182D01*
X014556Y006245D01*
X015667Y006245D01*
X015649Y006227D01*
X015631Y006195D01*
X015621Y006160D01*
X015621Y006143D01*
X015439Y005960D01*
X015439Y005935D01*
X015414Y005935D01*
X015216Y005737D01*
X015216Y005712D01*
X015191Y005712D01*
X014993Y005515D01*
X014993Y005490D01*
X014968Y005490D01*
X014771Y005292D01*
X014771Y005209D01*
X015247Y004733D01*
X015330Y004733D01*
X015527Y004931D01*
X015527Y004956D01*
X015552Y004956D01*
X015750Y005153D01*
X015750Y005178D01*
X015775Y005178D01*
X015973Y005376D01*
X015973Y005401D01*
X015998Y005401D01*
X016180Y005584D01*
X016197Y005584D01*
X016233Y005593D01*
X016265Y005612D01*
X016341Y005688D01*
X016040Y005989D01*
X016053Y006002D01*
X016354Y005701D01*
X016430Y005777D01*
X016449Y005809D01*
X016458Y005845D01*
X016458Y005862D01*
X016641Y006044D01*
X016641Y006069D01*
X016666Y006069D01*
X016766Y006170D01*
X016962Y006170D01*
X017502Y006710D01*
X018148Y006710D01*
X018148Y006523D01*
X018094Y006470D01*
X017844Y006470D01*
X017772Y006398D01*
X017626Y006544D01*
X017543Y006544D01*
X017123Y006123D01*
X017123Y006040D01*
X017599Y005564D01*
X017682Y005564D01*
X018102Y005985D01*
X018102Y006068D01*
X017960Y006210D01*
X018178Y006210D01*
X018178Y006148D01*
X018307Y006020D01*
X018434Y006020D01*
X018548Y005906D01*
X018548Y005545D01*
X018454Y005545D01*
X018364Y005635D01*
X018182Y005635D01*
X018053Y005506D01*
X018053Y005323D01*
X018135Y005242D01*
X017856Y005242D01*
X017798Y005183D01*
X017798Y005145D01*
X017652Y005145D01*
X017457Y005339D01*
X017573Y005456D01*
X017573Y005539D01*
X017097Y006015D01*
X017014Y006015D01*
X016594Y005594D01*
X016594Y005511D01*
X017070Y005035D01*
X017153Y005035D01*
X017273Y005156D01*
X017468Y004961D01*
X017544Y004885D01*
X017798Y004885D01*
X017798Y004850D01*
X017809Y004840D01*
X017798Y004829D01*
X017798Y004496D01*
X017839Y004455D01*
X006673Y004455D01*
X006598Y004462D01*
X006459Y004519D01*
X006514Y004497D02*
X017798Y004497D01*
X017798Y004575D02*
X006403Y004575D01*
X006341Y004654D02*
X017798Y004654D01*
X017798Y004732D02*
X006309Y004732D01*
X006291Y004811D02*
X013889Y004811D01*
X013810Y004889D02*
X007453Y004889D01*
X007563Y004935D02*
X007769Y005141D01*
X007881Y005410D01*
X007881Y005702D01*
X007769Y005971D01*
X007563Y006178D01*
X007294Y006289D01*
X007002Y006289D01*
X006733Y006178D01*
X006526Y005971D01*
X006415Y005702D01*
X006415Y005410D01*
X006526Y005141D01*
X006733Y004935D01*
X007002Y004823D01*
X007294Y004823D01*
X007563Y004935D01*
X007596Y004968D02*
X008953Y004968D01*
X008977Y004944D02*
X009453Y004944D01*
X009512Y005003D01*
X009512Y005676D01*
X009453Y005735D01*
X009101Y005735D01*
X008781Y006055D01*
X008706Y006055D01*
X008513Y006248D01*
X008563Y006368D01*
X008563Y006555D01*
X008491Y006728D01*
X008359Y006860D01*
X008193Y006929D01*
X008359Y006997D01*
X008491Y007130D01*
X008563Y007302D01*
X008563Y007489D01*
X008491Y007662D01*
X008359Y007794D01*
X008250Y007840D01*
X008359Y007885D01*
X008491Y008017D01*
X008563Y008190D01*
X008563Y008377D01*
X008491Y008549D01*
X008359Y008682D01*
X008243Y008730D01*
X008289Y008745D01*
X008360Y008781D01*
X008425Y008828D01*
X008482Y008885D01*
X008529Y008950D01*
X008565Y009022D01*
X008590Y009098D01*
X008603Y009177D01*
X008603Y009177D01*
X008133Y009177D01*
X008133Y009257D01*
X008603Y009257D01*
X008603Y009258D01*
X008590Y009337D01*
X008565Y009413D01*
X008529Y009485D01*
X008482Y009550D01*
X008425Y009606D01*
X008360Y009654D01*
X008289Y009690D01*
X008212Y009715D01*
X008133Y009727D01*
X008133Y009727D01*
X008133Y009257D01*
X008053Y009257D01*
X008053Y009177D01*
X007583Y009177D01*
X007595Y009098D01*
X007620Y009022D01*
X007657Y008950D01*
X007704Y008885D01*
X007761Y008828D01*
X007825Y008781D01*
X007897Y008745D01*
X007943Y008730D01*
X007827Y008682D01*
X007694Y008549D01*
X007623Y008377D01*
X007623Y008190D01*
X007694Y008017D01*
X007827Y007885D01*
X007936Y007840D01*
X007827Y007794D01*
X007694Y007662D01*
X007623Y007489D01*
X007623Y007302D01*
X007694Y007130D01*
X007827Y006997D01*
X007992Y006929D01*
X007827Y006860D01*
X007694Y006728D01*
X007623Y006555D01*
X007623Y006368D01*
X007694Y006195D01*
X007827Y006063D01*
X007999Y005992D01*
X008186Y005992D01*
X008318Y006046D01*
X008508Y005857D01*
X008590Y005775D01*
X008665Y005775D01*
X008918Y005521D01*
X008918Y005003D01*
X008977Y004944D01*
X008918Y005046D02*
X007675Y005046D01*
X007753Y005125D02*
X008918Y005125D01*
X008918Y005203D02*
X007795Y005203D01*
X007828Y005282D02*
X008918Y005282D01*
X008918Y005360D02*
X007860Y005360D01*
X007881Y005439D02*
X008918Y005439D01*
X008918Y005517D02*
X007881Y005517D01*
X007881Y005596D02*
X008844Y005596D01*
X008765Y005674D02*
X007881Y005674D01*
X007860Y005753D02*
X008687Y005753D01*
X008723Y005915D02*
X009173Y005465D01*
X009512Y005439D02*
X009784Y005439D01*
X009784Y005517D02*
X009512Y005517D01*
X009512Y005596D02*
X009784Y005596D01*
X009784Y005674D02*
X009512Y005674D01*
X009883Y005831D02*
X009004Y005831D01*
X008980Y005910D02*
X008926Y005910D01*
X008889Y005988D02*
X008847Y005988D01*
X008878Y006067D02*
X008694Y006067D01*
X008615Y006145D02*
X008878Y006145D01*
X008878Y006224D02*
X008537Y006224D01*
X008535Y006302D02*
X009234Y006302D01*
X009234Y006224D02*
X009314Y006224D01*
X009314Y006145D02*
X009234Y006145D01*
X009234Y006067D02*
X009314Y006067D01*
X009314Y005988D02*
X009234Y005988D01*
X009234Y005910D02*
X009314Y005910D01*
X009568Y005910D02*
X009883Y005910D01*
X010023Y005865D02*
X010098Y005790D01*
X010098Y005340D01*
X010378Y005360D02*
X010753Y005360D01*
X010753Y005282D02*
X010378Y005282D01*
X010378Y005203D02*
X010753Y005203D01*
X010796Y005125D02*
X010378Y005125D01*
X010378Y005046D02*
X013653Y005046D01*
X013575Y005125D02*
X011499Y005125D01*
X011543Y005203D02*
X013496Y005203D01*
X013418Y005282D02*
X012901Y005282D01*
X012980Y005360D02*
X013339Y005360D01*
X013261Y005439D02*
X012993Y005439D01*
X012993Y005517D02*
X013182Y005517D01*
X013104Y005596D02*
X012953Y005596D01*
X013025Y005674D02*
X012874Y005674D01*
X012737Y005753D02*
X011543Y005753D01*
X011543Y005674D02*
X012671Y005674D01*
X012593Y005596D02*
X011543Y005596D01*
X011504Y005831D02*
X012658Y005831D01*
X012580Y005910D02*
X011575Y005910D01*
X011583Y005988D02*
X012513Y005988D01*
X012513Y006067D02*
X011583Y006067D01*
X011583Y006145D02*
X012513Y006145D01*
X012653Y006035D02*
X012848Y005840D01*
X013098Y005840D01*
X013248Y005990D01*
X013273Y006015D02*
X013418Y006160D01*
X014273Y006160D01*
X014498Y006385D01*
X016103Y006385D01*
X016263Y006225D01*
X016067Y005988D02*
X016041Y005988D01*
X016119Y005910D02*
X016145Y005910D01*
X016198Y005831D02*
X016224Y005831D01*
X016276Y005753D02*
X016302Y005753D01*
X016327Y005674D02*
X016673Y005674D01*
X016595Y005596D02*
X016237Y005596D01*
X016114Y005517D02*
X016594Y005517D01*
X016667Y005439D02*
X016035Y005439D01*
X015957Y005360D02*
X016745Y005360D01*
X016824Y005282D02*
X015878Y005282D01*
X015800Y005203D02*
X016902Y005203D01*
X016981Y005125D02*
X015721Y005125D01*
X015643Y005046D02*
X017059Y005046D01*
X017163Y005046D02*
X017383Y005046D01*
X017461Y004968D02*
X015564Y004968D01*
X015486Y004889D02*
X017540Y004889D01*
X017798Y004811D02*
X015407Y004811D01*
X015169Y004811D02*
X014127Y004811D01*
X014205Y004889D02*
X015091Y004889D01*
X015012Y004968D02*
X014284Y004968D01*
X014362Y005046D02*
X014934Y005046D01*
X014855Y005125D02*
X014441Y005125D01*
X014519Y005203D02*
X014777Y005203D01*
X014771Y005282D02*
X014525Y005282D01*
X014457Y005360D02*
X014839Y005360D01*
X014917Y005439D02*
X014379Y005439D01*
X014300Y005517D02*
X014996Y005517D01*
X015074Y005596D02*
X014222Y005596D01*
X014143Y005674D02*
X015153Y005674D01*
X015231Y005753D02*
X014065Y005753D01*
X013986Y005831D02*
X015310Y005831D01*
X015388Y005910D02*
X013908Y005910D01*
X013829Y005988D02*
X014133Y005988D01*
X014413Y005988D02*
X015467Y005988D01*
X015545Y006067D02*
X014491Y006067D01*
X014493Y006145D02*
X015621Y006145D01*
X015647Y006224D02*
X014535Y006224D01*
X014296Y006381D02*
X013452Y006381D01*
X013452Y006383D02*
X013442Y006418D01*
X013424Y006450D01*
X013348Y006526D01*
X013046Y006225D01*
X013033Y006238D01*
X013334Y006539D01*
X013258Y006615D01*
X013226Y006634D01*
X013191Y006643D01*
X013174Y006643D01*
X012991Y006826D01*
X012966Y006826D01*
X012966Y006851D01*
X012768Y007049D01*
X012743Y007049D01*
X012743Y007074D01*
X012546Y007271D01*
X012521Y007271D01*
X012521Y007296D01*
X012323Y007494D01*
X012298Y007494D01*
X012298Y007519D01*
X012100Y007717D01*
X012017Y007717D01*
X011541Y007241D01*
X011541Y007158D01*
X011739Y006960D01*
X011764Y006960D01*
X011764Y006935D01*
X011962Y006737D01*
X011987Y006737D01*
X011987Y006730D01*
X011356Y006730D01*
X010621Y007464D01*
X010621Y007467D01*
X011556Y008423D01*
X012017Y007962D01*
X012100Y007962D01*
X012298Y008160D01*
X012298Y008185D01*
X012323Y008185D01*
X012521Y008383D01*
X012521Y008408D01*
X012546Y008408D01*
X012743Y008605D01*
X012743Y008630D01*
X012768Y008630D01*
X012966Y008828D01*
X012966Y008853D01*
X012991Y008853D01*
X013174Y009036D01*
X013191Y009036D01*
X013226Y009045D01*
X013258Y009064D01*
X013334Y009140D01*
X013033Y009441D01*
X013046Y009454D01*
X013348Y009153D01*
X013424Y009229D01*
X013442Y009261D01*
X013452Y009297D01*
X013452Y009314D01*
X013634Y009496D01*
X013634Y009521D01*
X013659Y009521D01*
X013671Y009533D01*
X014450Y008753D01*
X014328Y008631D01*
X014328Y008448D01*
X014457Y008320D01*
X014584Y008320D01*
X014783Y008120D01*
X014735Y008100D01*
X014648Y008014D01*
X014630Y007969D01*
X014564Y008035D01*
X014382Y008035D01*
X014253Y007906D01*
X014253Y007723D01*
X014382Y007595D01*
X014509Y007595D01*
X014618Y007486D01*
X014694Y007410D01*
X016888Y007410D01*
X016775Y007296D01*
X016775Y007271D01*
X016750Y007271D01*
X016552Y007074D01*
X016552Y007049D01*
X016527Y007049D01*
X016330Y006851D01*
X016330Y006826D01*
X016305Y006826D01*
X016107Y006628D01*
X016107Y006603D01*
X016082Y006603D01*
X016003Y006525D01*
X014440Y006525D01*
X014295Y006380D01*
X014182Y006380D01*
X014102Y006300D01*
X013518Y006300D01*
X013452Y006365D01*
X013452Y006383D01*
X013415Y006459D02*
X014374Y006459D01*
X014104Y006302D02*
X013515Y006302D01*
X013202Y006381D02*
X013176Y006381D01*
X013123Y006302D02*
X013097Y006302D01*
X013254Y006459D02*
X013280Y006459D01*
X013333Y006538D02*
X016016Y006538D01*
X016107Y006616D02*
X013257Y006616D01*
X013123Y006695D02*
X016173Y006695D01*
X016252Y006773D02*
X013044Y006773D01*
X012966Y006852D02*
X014250Y006852D01*
X014257Y006845D02*
X014439Y006845D01*
X014529Y006935D01*
X015267Y006935D01*
X015357Y006845D01*
X015539Y006845D01*
X015668Y006973D01*
X015668Y007156D01*
X015539Y007285D01*
X015357Y007285D01*
X015267Y007195D01*
X014529Y007195D01*
X014439Y007285D01*
X014257Y007285D01*
X014128Y007156D01*
X014128Y006973D01*
X014257Y006845D01*
X014171Y006930D02*
X012887Y006930D01*
X012809Y007009D02*
X014128Y007009D01*
X014128Y007087D02*
X012730Y007087D01*
X012652Y007166D02*
X014138Y007166D01*
X014216Y007244D02*
X012573Y007244D01*
X012495Y007323D02*
X016801Y007323D01*
X016880Y007401D02*
X012416Y007401D01*
X012338Y007480D02*
X014624Y007480D01*
X014546Y007558D02*
X013261Y007558D01*
X013311Y007579D02*
X013398Y007665D01*
X013444Y007778D01*
X013444Y007901D01*
X013398Y008014D01*
X013311Y008100D01*
X013198Y008147D01*
X013076Y008147D01*
X012963Y008100D01*
X012877Y008014D01*
X012830Y007901D01*
X012830Y007778D01*
X012877Y007665D01*
X012963Y007579D01*
X013076Y007532D01*
X013198Y007532D01*
X013311Y007579D01*
X013369Y007637D02*
X014340Y007637D01*
X014261Y007715D02*
X013418Y007715D01*
X013444Y007794D02*
X014253Y007794D01*
X014253Y007872D02*
X013444Y007872D01*
X013424Y007951D02*
X014298Y007951D01*
X014376Y008029D02*
X013382Y008029D01*
X013293Y008108D02*
X014753Y008108D01*
X014718Y008186D02*
X012324Y008186D01*
X012246Y008108D02*
X012981Y008108D01*
X012892Y008029D02*
X012167Y008029D01*
X011951Y008029D02*
X011171Y008029D01*
X011247Y008108D02*
X011872Y008108D01*
X011794Y008186D02*
X011324Y008186D01*
X011401Y008265D02*
X011715Y008265D01*
X011637Y008343D02*
X011478Y008343D01*
X011554Y008422D02*
X011558Y008422D01*
X011240Y008500D02*
X009413Y008500D01*
X009413Y008579D02*
X011316Y008579D01*
X011383Y008657D02*
X009413Y008657D01*
X009413Y008736D02*
X011383Y008736D01*
X011424Y008814D02*
X009413Y008814D01*
X009413Y008893D02*
X010619Y008893D01*
X010637Y008875D02*
X010819Y008875D01*
X010948Y009003D01*
X010948Y009110D01*
X011485Y009110D01*
X011543Y009168D01*
X011543Y009763D01*
X011485Y009821D01*
X010811Y009821D01*
X010753Y009763D01*
X010753Y009315D01*
X010637Y009315D01*
X010508Y009186D01*
X010508Y009003D01*
X010637Y008875D01*
X010540Y008971D02*
X010397Y008971D01*
X010390Y008958D02*
X010408Y008990D01*
X010418Y009026D01*
X010418Y009300D01*
X010062Y009300D01*
X010062Y008904D01*
X010296Y008904D01*
X010332Y008914D01*
X010364Y008932D01*
X010390Y008958D01*
X010418Y009050D02*
X010508Y009050D01*
X010508Y009128D02*
X010418Y009128D01*
X010418Y009207D02*
X010529Y009207D01*
X010607Y009285D02*
X010418Y009285D01*
X010418Y009380D02*
X010418Y009653D01*
X010408Y009689D01*
X010390Y009721D01*
X010364Y009747D01*
X010332Y009765D01*
X010296Y009775D01*
X010062Y009775D01*
X010062Y009380D01*
X010418Y009380D01*
X010418Y009442D02*
X010753Y009442D01*
X010753Y009364D02*
X010062Y009364D01*
X010062Y009442D02*
X009982Y009442D01*
X009982Y009521D02*
X010062Y009521D01*
X010062Y009599D02*
X009982Y009599D01*
X009982Y009678D02*
X010062Y009678D01*
X010062Y009756D02*
X009982Y009756D01*
X009696Y009756D02*
X007789Y009756D01*
X007769Y009708D02*
X007881Y009977D01*
X007881Y010269D01*
X007769Y010538D01*
X007563Y010744D01*
X007294Y010856D01*
X007002Y010856D01*
X006733Y010744D01*
X006526Y010538D01*
X006415Y010269D01*
X006415Y009977D01*
X006526Y009708D01*
X006733Y009502D01*
X007002Y009390D01*
X007294Y009390D01*
X007563Y009502D01*
X007769Y009708D01*
X007739Y009678D02*
X007872Y009678D01*
X007897Y009690D02*
X007825Y009654D01*
X007761Y009606D01*
X007704Y009550D01*
X007657Y009485D01*
X007620Y009413D01*
X007595Y009337D01*
X007583Y009258D01*
X007583Y009257D01*
X008053Y009257D01*
X008053Y009727D01*
X008053Y009727D01*
X007973Y009715D01*
X007897Y009690D01*
X008053Y009678D02*
X008133Y009678D01*
X008133Y009599D02*
X008053Y009599D01*
X008053Y009521D02*
X008133Y009521D01*
X008133Y009442D02*
X008053Y009442D01*
X008053Y009364D02*
X008133Y009364D01*
X008133Y009285D02*
X008053Y009285D01*
X008053Y009207D02*
X006873Y009207D01*
X006873Y009128D02*
X007591Y009128D01*
X007583Y009177D02*
X007583Y009177D01*
X007587Y009285D02*
X006833Y009285D01*
X006876Y009442D02*
X006288Y009442D01*
X006288Y009364D02*
X007604Y009364D01*
X007635Y009442D02*
X007420Y009442D01*
X007582Y009521D02*
X007683Y009521D01*
X007661Y009599D02*
X007753Y009599D01*
X007822Y009835D02*
X012798Y009835D01*
X012744Y009756D02*
X011543Y009756D01*
X011543Y009678D02*
X012175Y009678D01*
X012096Y009599D02*
X011543Y009599D01*
X011543Y009521D02*
X012078Y009521D01*
X012052Y009442D02*
X011543Y009442D01*
X011543Y009364D02*
X011974Y009364D01*
X011895Y009285D02*
X011543Y009285D01*
X011543Y009207D02*
X011817Y009207D01*
X011738Y009128D02*
X011503Y009128D01*
X011660Y009050D02*
X010948Y009050D01*
X010916Y008971D02*
X011581Y008971D01*
X011503Y008893D02*
X010837Y008893D01*
X011523Y008715D02*
X011523Y008590D01*
X010423Y007465D01*
X011298Y006590D01*
X012098Y006590D01*
X012398Y006290D01*
X012648Y006290D01*
X012653Y006285D02*
X012653Y006035D01*
X012266Y006224D02*
X011188Y006224D01*
X011108Y006224D02*
X010378Y006224D01*
X010378Y006302D02*
X010713Y006302D01*
X010713Y006381D02*
X010378Y006381D01*
X010378Y006459D02*
X010713Y006459D01*
X010730Y006538D02*
X010378Y006538D01*
X010378Y006616D02*
X011073Y006616D01*
X010995Y006695D02*
X010359Y006695D01*
X010163Y006773D02*
X010916Y006773D01*
X010838Y006852D02*
X010163Y006852D01*
X010225Y006930D02*
X010759Y006930D01*
X010681Y007009D02*
X010243Y007009D01*
X010243Y007087D02*
X010602Y007087D01*
X010524Y007166D02*
X010208Y007166D01*
X010129Y007244D02*
X010445Y007244D01*
X010763Y007323D02*
X011623Y007323D01*
X011702Y007401D02*
X010684Y007401D01*
X010633Y007480D02*
X011780Y007480D01*
X011859Y007558D02*
X010710Y007558D01*
X010787Y007637D02*
X011937Y007637D01*
X012016Y007715D02*
X010864Y007715D01*
X010940Y007794D02*
X012830Y007794D01*
X012830Y007872D02*
X011017Y007872D01*
X011094Y007951D02*
X012850Y007951D01*
X012856Y007715D02*
X012102Y007715D01*
X012181Y007637D02*
X012905Y007637D01*
X013014Y007558D02*
X012259Y007558D01*
X011545Y007244D02*
X010841Y007244D01*
X010920Y007166D02*
X011541Y007166D01*
X011612Y007087D02*
X010998Y007087D01*
X011077Y007009D02*
X011691Y007009D01*
X011769Y006930D02*
X011155Y006930D01*
X011234Y006852D02*
X011848Y006852D01*
X011926Y006773D02*
X011312Y006773D01*
X011583Y006381D02*
X012109Y006381D01*
X012187Y006302D02*
X011583Y006302D01*
X010713Y006145D02*
X010378Y006145D01*
X010378Y006067D02*
X010713Y006067D01*
X010713Y005988D02*
X010363Y005988D01*
X010176Y005910D02*
X010721Y005910D01*
X010792Y005831D02*
X010238Y005831D01*
X010238Y005753D02*
X010753Y005753D01*
X010753Y005674D02*
X010378Y005674D01*
X010378Y005596D02*
X010753Y005596D01*
X010753Y005517D02*
X010378Y005517D01*
X010378Y005439D02*
X010753Y005439D01*
X011543Y005282D02*
X012645Y005282D01*
X013732Y004968D02*
X010342Y004968D01*
X009819Y004968D02*
X009476Y004968D01*
X009512Y005046D02*
X009784Y005046D01*
X009784Y005125D02*
X009512Y005125D01*
X009512Y005203D02*
X009784Y005203D01*
X009784Y005282D02*
X009512Y005282D01*
X009512Y005360D02*
X009784Y005360D01*
X009937Y005753D02*
X009083Y005753D01*
X008723Y005915D02*
X008648Y005915D01*
X008098Y006465D01*
X008538Y006616D02*
X008878Y006616D01*
X008878Y006538D02*
X008563Y006538D01*
X008563Y006459D02*
X008878Y006459D01*
X008878Y006381D02*
X008563Y006381D01*
X007745Y006145D02*
X007596Y006145D01*
X007674Y006067D02*
X007823Y006067D01*
X007753Y005988D02*
X008376Y005988D01*
X008455Y005910D02*
X007795Y005910D01*
X007827Y005831D02*
X008533Y005831D01*
X007683Y006224D02*
X007452Y006224D01*
X007650Y006302D02*
X006288Y006302D01*
X006288Y006224D02*
X006844Y006224D01*
X006700Y006145D02*
X006288Y006145D01*
X006288Y006067D02*
X006622Y006067D01*
X006543Y005988D02*
X006288Y005988D01*
X006288Y005910D02*
X006501Y005910D01*
X006468Y005831D02*
X006288Y005831D01*
X006288Y005753D02*
X006436Y005753D01*
X006415Y005674D02*
X006288Y005674D01*
X006288Y005596D02*
X006415Y005596D01*
X006415Y005517D02*
X006288Y005517D01*
X006288Y005439D02*
X006415Y005439D01*
X006436Y005360D02*
X006288Y005360D01*
X006288Y005282D02*
X006468Y005282D01*
X006501Y005203D02*
X006288Y005203D01*
X006288Y005125D02*
X006543Y005125D01*
X006621Y005046D02*
X006288Y005046D01*
X006288Y004968D02*
X006700Y004968D01*
X006843Y004889D02*
X006288Y004889D01*
X009659Y005988D02*
X009681Y005988D01*
X010023Y005865D02*
X010023Y006340D01*
X010023Y006341D02*
X010023Y007040D01*
X009748Y007040D01*
X009623Y007165D01*
X009623Y007240D01*
X009448Y007415D01*
X009399Y007466D02*
X009261Y007466D01*
X009399Y007466D02*
X009648Y007715D01*
X009648Y007990D01*
X009424Y008214D01*
X009261Y008214D01*
X009273Y008265D02*
X009273Y009340D01*
X008918Y009364D02*
X008582Y009364D01*
X008598Y009285D02*
X008918Y009285D01*
X008918Y009207D02*
X008133Y009207D01*
X008595Y009128D02*
X008918Y009128D01*
X008918Y009050D02*
X008574Y009050D01*
X008540Y008971D02*
X008950Y008971D01*
X009133Y008893D02*
X008487Y008893D01*
X008405Y008814D02*
X009133Y008814D01*
X009133Y008736D02*
X008260Y008736D01*
X008384Y008657D02*
X009133Y008657D01*
X009133Y008579D02*
X008462Y008579D01*
X008512Y008500D02*
X009133Y008500D01*
X008983Y008422D02*
X008544Y008422D01*
X008563Y008343D02*
X008925Y008343D01*
X008925Y008265D02*
X008563Y008265D01*
X008561Y008186D02*
X008925Y008186D01*
X008925Y008108D02*
X008529Y008108D01*
X008496Y008029D02*
X008910Y008029D01*
X008885Y007951D02*
X008425Y007951D01*
X008328Y007872D02*
X008885Y007872D01*
X008885Y007794D02*
X008360Y007794D01*
X008438Y007715D02*
X008885Y007715D01*
X008922Y007637D02*
X008502Y007637D01*
X008534Y007558D02*
X008925Y007558D01*
X008925Y007480D02*
X008563Y007480D01*
X008563Y007401D02*
X008925Y007401D01*
X008925Y007323D02*
X008563Y007323D01*
X008539Y007244D02*
X009420Y007244D01*
X009483Y007166D02*
X008506Y007166D01*
X008449Y007087D02*
X009502Y007087D01*
X009581Y007009D02*
X008370Y007009D01*
X008367Y006852D02*
X009883Y006852D01*
X009883Y006773D02*
X009555Y006773D01*
X009657Y006695D02*
X009684Y006695D01*
X009314Y006695D02*
X009234Y006695D01*
X009234Y006773D02*
X009314Y006773D01*
X009314Y006616D02*
X009234Y006616D01*
X009234Y006538D02*
X009314Y006538D01*
X009314Y006459D02*
X009234Y006459D01*
X009234Y006381D02*
X009314Y006381D01*
X008993Y006773D02*
X008446Y006773D01*
X008505Y006695D02*
X008891Y006695D01*
X008196Y006930D02*
X009659Y006930D01*
X009828Y007345D02*
X009948Y007465D01*
X010298Y007465D01*
X010472Y007715D02*
X009788Y007715D01*
X009788Y007794D02*
X010549Y007794D01*
X010626Y007872D02*
X009788Y007872D01*
X009788Y007951D02*
X010702Y007951D01*
X010779Y008029D02*
X010586Y008029D01*
X010562Y008005D02*
X010621Y008064D01*
X010621Y008363D01*
X010562Y008422D01*
X010007Y008422D01*
X009949Y008363D01*
X009949Y008064D01*
X010007Y008005D01*
X010562Y008005D01*
X010621Y008108D02*
X010856Y008108D01*
X010933Y008186D02*
X010621Y008186D01*
X010621Y008265D02*
X011009Y008265D01*
X011086Y008343D02*
X010621Y008343D01*
X010563Y008422D02*
X011163Y008422D01*
X011523Y008715D02*
X012298Y009490D01*
X012548Y009490D01*
X012748Y009290D01*
X013034Y009442D02*
X013058Y009442D01*
X013111Y009364D02*
X013137Y009364D01*
X013189Y009285D02*
X013215Y009285D01*
X013268Y009207D02*
X013294Y009207D01*
X013323Y009128D02*
X014076Y009128D01*
X014154Y009050D02*
X013234Y009050D01*
X013109Y008971D02*
X014233Y008971D01*
X014311Y008893D02*
X013031Y008893D01*
X012952Y008814D02*
X014390Y008814D01*
X014433Y008736D02*
X012874Y008736D01*
X012795Y008657D02*
X014354Y008657D01*
X014328Y008579D02*
X012717Y008579D01*
X012638Y008500D02*
X014328Y008500D01*
X014355Y008422D02*
X012560Y008422D01*
X012481Y008343D02*
X014433Y008343D01*
X014639Y008265D02*
X012403Y008265D01*
X013401Y009207D02*
X013997Y009207D01*
X013919Y009285D02*
X013449Y009285D01*
X013502Y009364D02*
X013840Y009364D01*
X013762Y009442D02*
X013580Y009442D01*
X013634Y009521D02*
X013683Y009521D01*
X012980Y009521D02*
X012954Y009521D01*
X012901Y009599D02*
X012875Y009599D01*
X012823Y009678D02*
X012797Y009678D01*
X012642Y009678D02*
X012421Y009678D01*
X012933Y009913D02*
X011540Y009913D01*
X011543Y009992D02*
X012910Y009992D01*
X012831Y010070D02*
X011543Y010070D01*
X011543Y010149D02*
X012828Y010149D01*
X012828Y010227D02*
X011543Y010227D01*
X011543Y010306D02*
X012878Y010306D01*
X012956Y010384D02*
X011551Y010384D01*
X011630Y010463D02*
X013162Y010463D01*
X013241Y010541D02*
X011708Y010541D01*
X011787Y010620D02*
X013319Y010620D01*
X013398Y010698D02*
X011865Y010698D01*
X011944Y010777D02*
X013476Y010777D01*
X013613Y011091D02*
X006390Y011091D01*
X006336Y011012D02*
X009018Y011012D01*
X009036Y011030D02*
X008964Y010958D01*
X008924Y010863D01*
X008924Y010760D01*
X008964Y010665D01*
X009036Y010593D01*
X009131Y010553D01*
X009234Y010553D01*
X009329Y010593D01*
X009401Y010665D01*
X009440Y010760D01*
X009440Y010863D01*
X009401Y010958D01*
X009329Y011030D01*
X009234Y011069D01*
X009131Y011069D01*
X009036Y011030D01*
X008954Y010934D02*
X006303Y010934D01*
X006289Y010855D02*
X007000Y010855D01*
X006810Y010777D02*
X006288Y010777D01*
X006288Y010698D02*
X006686Y010698D01*
X006608Y010620D02*
X006288Y010620D01*
X006288Y010541D02*
X006529Y010541D01*
X006495Y010463D02*
X006288Y010463D01*
X006288Y010384D02*
X006463Y010384D01*
X006430Y010306D02*
X006288Y010306D01*
X006288Y010227D02*
X006415Y010227D01*
X006415Y010149D02*
X006288Y010149D01*
X006288Y010070D02*
X006415Y010070D01*
X006415Y009992D02*
X006288Y009992D01*
X006288Y009913D02*
X006441Y009913D01*
X006474Y009835D02*
X006288Y009835D01*
X006288Y009756D02*
X006506Y009756D01*
X006557Y009678D02*
X006288Y009678D01*
X006288Y009599D02*
X006635Y009599D01*
X006714Y009521D02*
X006288Y009521D01*
X006798Y009050D02*
X006959Y009050D01*
X007258Y009050D02*
X007611Y009050D01*
X007646Y008971D02*
X007367Y008971D01*
X007425Y008893D02*
X007698Y008893D01*
X007780Y008814D02*
X007458Y008814D01*
X007465Y008736D02*
X007926Y008736D01*
X007802Y008657D02*
X007465Y008657D01*
X007434Y008579D02*
X007723Y008579D01*
X007674Y008500D02*
X007387Y008500D01*
X007307Y008422D02*
X007641Y008422D01*
X007623Y008343D02*
X006786Y008343D01*
X006835Y008422D02*
X006910Y008422D01*
X006865Y008265D02*
X007623Y008265D01*
X007624Y008186D02*
X006873Y008186D01*
X006873Y008108D02*
X007657Y008108D01*
X007689Y008029D02*
X006873Y008029D01*
X006825Y007951D02*
X007761Y007951D01*
X007857Y007872D02*
X006746Y007872D01*
X006505Y007872D02*
X006473Y007872D01*
X006463Y007794D02*
X007826Y007794D01*
X007747Y007715D02*
X006463Y007715D01*
X006827Y007637D02*
X007684Y007637D01*
X007651Y007558D02*
X006873Y007558D01*
X006873Y007480D02*
X007623Y007480D01*
X007623Y007401D02*
X006873Y007401D01*
X006873Y007323D02*
X007623Y007323D01*
X007647Y007244D02*
X007322Y007244D01*
X007401Y007166D02*
X007679Y007166D01*
X007737Y007087D02*
X007439Y007087D01*
X007465Y007009D02*
X007815Y007009D01*
X007818Y006852D02*
X007452Y006852D01*
X007465Y006930D02*
X007989Y006930D01*
X007740Y006773D02*
X007420Y006773D01*
X007354Y006695D02*
X007681Y006695D01*
X007648Y006616D02*
X007225Y006616D01*
X006992Y006616D02*
X006873Y006616D01*
X006863Y006695D02*
X006848Y006695D01*
X006861Y006538D02*
X007623Y006538D01*
X007623Y006459D02*
X006288Y006459D01*
X006288Y006381D02*
X007623Y006381D01*
X006895Y007244D02*
X006873Y007244D01*
X009611Y007480D02*
X009652Y007480D01*
X009689Y007558D02*
X009730Y007558D01*
X009768Y007637D02*
X009970Y007637D01*
X009983Y008029D02*
X009788Y008029D01*
X009728Y008108D02*
X009949Y008108D01*
X009949Y008186D02*
X009649Y008186D01*
X009597Y008265D02*
X009949Y008265D01*
X009949Y008343D02*
X009597Y008343D01*
X009539Y008422D02*
X010007Y008422D01*
X009982Y008971D02*
X010062Y008971D01*
X010062Y009050D02*
X009982Y009050D01*
X009982Y009128D02*
X010062Y009128D01*
X010062Y009207D02*
X009982Y009207D01*
X009982Y009285D02*
X010062Y009285D01*
X010418Y009521D02*
X010753Y009521D01*
X010753Y009599D02*
X010418Y009599D01*
X010411Y009678D02*
X010753Y009678D01*
X010753Y009756D02*
X010348Y009756D01*
X010410Y009992D02*
X007881Y009992D01*
X007881Y010070D02*
X010331Y010070D01*
X010303Y010149D02*
X007881Y010149D01*
X007881Y010227D02*
X010303Y010227D01*
X010328Y010306D02*
X007866Y010306D01*
X007833Y010384D02*
X010406Y010384D01*
X010639Y010384D02*
X010753Y010384D01*
X010753Y010463D02*
X007801Y010463D01*
X007767Y010541D02*
X010783Y010541D01*
X010346Y010698D02*
X011498Y010698D01*
X011576Y010777D02*
X010372Y010777D01*
X010372Y010760D02*
X010372Y010863D01*
X010332Y010958D01*
X010260Y011030D01*
X010165Y011069D01*
X010062Y011069D01*
X009967Y011030D01*
X009895Y010958D01*
X009855Y010863D01*
X009855Y010760D01*
X009895Y010665D01*
X009967Y010593D01*
X010062Y010553D01*
X010165Y010553D01*
X010260Y010593D01*
X010332Y010665D01*
X010372Y010760D01*
X010372Y010855D02*
X011655Y010855D01*
X011733Y010934D02*
X010342Y010934D01*
X010278Y011012D02*
X011812Y011012D01*
X011419Y010620D02*
X010287Y010620D01*
X009940Y010620D02*
X009356Y010620D01*
X009415Y010698D02*
X009881Y010698D01*
X009855Y010777D02*
X009440Y010777D01*
X009440Y010855D02*
X009855Y010855D01*
X009885Y010934D02*
X009411Y010934D01*
X009347Y011012D02*
X009949Y011012D01*
X008924Y010855D02*
X007296Y010855D01*
X007486Y010777D02*
X008924Y010777D01*
X008950Y010698D02*
X007610Y010698D01*
X007688Y010620D02*
X009009Y010620D01*
X010636Y009992D02*
X010753Y009992D01*
X010756Y009913D02*
X007854Y009913D01*
X008313Y009678D02*
X008919Y009678D01*
X008918Y009599D02*
X008432Y009599D01*
X008503Y009521D02*
X008918Y009521D01*
X008918Y009442D02*
X008551Y009442D01*
X009628Y009678D02*
X009632Y009678D01*
X009598Y008971D02*
X009647Y008971D01*
X014479Y007244D02*
X015316Y007244D01*
X015579Y007244D02*
X016723Y007244D01*
X016644Y007166D02*
X015658Y007166D01*
X015668Y007087D02*
X016566Y007087D01*
X016487Y007009D02*
X015668Y007009D01*
X015625Y006930D02*
X016409Y006930D01*
X016330Y006852D02*
X015546Y006852D01*
X015350Y006852D02*
X014446Y006852D01*
X014525Y006930D02*
X015271Y006930D01*
X017016Y006224D02*
X017223Y006224D01*
X017301Y006302D02*
X017094Y006302D01*
X017173Y006381D02*
X017380Y006381D01*
X017458Y006459D02*
X017251Y006459D01*
X017330Y006538D02*
X017537Y006538D01*
X017632Y006538D02*
X018148Y006538D01*
X018148Y006616D02*
X017408Y006616D01*
X017487Y006695D02*
X018148Y006695D01*
X017834Y006459D02*
X017711Y006459D01*
X018025Y006145D02*
X018181Y006145D01*
X018102Y006067D02*
X018260Y006067D01*
X018102Y005988D02*
X018466Y005988D01*
X018544Y005910D02*
X018027Y005910D01*
X017948Y005831D02*
X018548Y005831D01*
X018548Y005753D02*
X017870Y005753D01*
X017791Y005674D02*
X018548Y005674D01*
X018548Y005596D02*
X018403Y005596D01*
X018143Y005596D02*
X017713Y005596D01*
X017567Y005596D02*
X017516Y005596D01*
X017489Y005674D02*
X017438Y005674D01*
X017410Y005753D02*
X017359Y005753D01*
X017332Y005831D02*
X017281Y005831D01*
X017253Y005910D02*
X017202Y005910D01*
X017175Y005988D02*
X017124Y005988D01*
X017123Y006067D02*
X016641Y006067D01*
X016585Y005988D02*
X016987Y005988D01*
X016909Y005910D02*
X016506Y005910D01*
X016455Y005831D02*
X016830Y005831D01*
X016752Y005753D02*
X016406Y005753D01*
X016742Y006145D02*
X017144Y006145D01*
X017573Y005517D02*
X018064Y005517D01*
X018053Y005439D02*
X017556Y005439D01*
X017477Y005360D02*
X018053Y005360D01*
X018095Y005282D02*
X017515Y005282D01*
X017593Y005203D02*
X017818Y005203D01*
X017304Y005125D02*
X017242Y005125D01*
X018989Y006115D02*
X019019Y006085D01*
X019076Y006085D01*
X019106Y006115D01*
X019489Y006115D01*
X019519Y006085D01*
X019576Y006085D01*
X019606Y006115D01*
X019989Y006115D01*
X020019Y006085D01*
X020076Y006085D01*
X020106Y006115D01*
X020337Y006115D01*
X020328Y006123D01*
X020328Y006306D01*
X020457Y006435D01*
X020639Y006435D01*
X020729Y006345D01*
X021002Y006345D01*
X021078Y006268D01*
X021232Y006115D01*
X021489Y006115D01*
X021519Y006085D01*
X021576Y006085D01*
X021606Y006115D01*
X021989Y006115D01*
X022019Y006085D01*
X022076Y006085D01*
X022106Y006115D01*
X022489Y006115D01*
X022548Y006056D01*
X022548Y005641D01*
X022658Y005531D01*
X022658Y005419D01*
X023131Y005419D01*
X023190Y005360D01*
X024184Y005360D01*
X024186Y005358D02*
X024128Y005416D01*
X024128Y005901D01*
X023319Y006710D01*
X018848Y006710D01*
X018848Y006398D01*
X018789Y006340D01*
X018609Y006340D01*
X018618Y006331D01*
X018618Y006203D01*
X018707Y006115D01*
X018989Y006115D01*
X018830Y006381D02*
X020403Y006381D01*
X020328Y006302D02*
X018618Y006302D01*
X018618Y006224D02*
X020328Y006224D01*
X020328Y006145D02*
X018676Y006145D01*
X018848Y006459D02*
X023570Y006459D01*
X023648Y006381D02*
X020693Y006381D01*
X021044Y006302D02*
X023727Y006302D01*
X023805Y006224D02*
X021123Y006224D01*
X021201Y006145D02*
X023884Y006145D01*
X023962Y006067D02*
X022537Y006067D01*
X022548Y005988D02*
X024041Y005988D01*
X024119Y005910D02*
X022548Y005910D01*
X022548Y005831D02*
X024128Y005831D01*
X024128Y005753D02*
X022548Y005753D01*
X022548Y005674D02*
X024128Y005674D01*
X024128Y005596D02*
X022593Y005596D01*
X022658Y005517D02*
X024128Y005517D01*
X024128Y005439D02*
X022658Y005439D01*
X023190Y005360D02*
X023190Y004569D01*
X023131Y004510D01*
X023128Y004510D01*
X023128Y004455D01*
X025283Y004455D01*
X025361Y004462D01*
X025505Y004522D01*
X025616Y004632D01*
X025675Y004776D01*
X025683Y004854D01*
X025683Y006274D01*
X024935Y006274D01*
X024935Y006724D01*
X024935Y006804D01*
X024855Y006804D01*
X024855Y007254D01*
X024052Y007254D01*
X024016Y007244D01*
X023984Y007226D01*
X023958Y007200D01*
X023940Y007168D01*
X023930Y007132D01*
X023930Y006804D01*
X024855Y006804D01*
X024855Y006724D01*
X023930Y006724D01*
X023930Y006466D01*
X023427Y006970D01*
X018848Y006970D01*
X018848Y007281D01*
X018818Y007311D01*
X018818Y007368D01*
X018848Y007398D01*
X018848Y007460D01*
X021417Y007460D01*
X021507Y007370D01*
X021689Y007370D01*
X021818Y007498D01*
X021818Y007681D01*
X021689Y007810D01*
X021507Y007810D01*
X021417Y007720D01*
X018848Y007720D01*
X018848Y007781D01*
X018813Y007816D01*
X018834Y007828D01*
X018860Y007854D01*
X018878Y007885D01*
X018888Y007921D01*
X018888Y008055D01*
X018533Y008055D01*
X018533Y008125D01*
X018888Y008125D01*
X018888Y008210D01*
X020127Y008210D01*
X021912Y009995D01*
X022039Y009995D01*
X022168Y010123D01*
X022168Y010306D01*
X022049Y010425D01*
X023815Y010425D01*
X024128Y010112D01*
X024128Y009668D01*
X024186Y009610D01*
X024860Y009610D01*
X024918Y009668D01*
X024918Y010263D01*
X024860Y010321D01*
X024314Y010321D01*
X024278Y010358D01*
X024860Y010358D01*
X024918Y010416D01*
X024918Y010508D01*
X024957Y010470D01*
X025139Y010470D01*
X025268Y010598D01*
X025268Y010781D01*
X025139Y010910D01*
X024957Y010910D01*
X024918Y010871D01*
X024918Y011011D01*
X024860Y011069D01*
X024186Y011069D01*
X024128Y011011D01*
X024128Y010508D01*
X024013Y010623D01*
X023931Y010705D01*
X022749Y010705D01*
X022868Y010823D01*
X022868Y011006D01*
X022739Y011135D01*
X022557Y011135D01*
X022548Y011126D01*
X022548Y011206D01*
X022529Y011225D01*
X025283Y011225D01*
X025361Y011217D01*
X025505Y011157D01*
X025616Y011047D01*
X025675Y010903D01*
X025683Y010825D01*
X025683Y009405D01*
X024935Y009405D01*
X024935Y008955D01*
X025683Y008955D01*
X025683Y008875D01*
X024935Y008875D01*
X024935Y008425D01*
X025683Y008425D01*
X025683Y007254D01*
X024935Y007254D01*
X024935Y006804D01*
X025683Y006804D01*
X025683Y006724D01*
X024935Y006724D01*
X024855Y006724D01*
X024855Y006274D01*
X024123Y006274D01*
X024327Y006069D01*
X024860Y006069D01*
X024918Y006011D01*
X024918Y005416D01*
X024860Y005358D01*
X024186Y005358D01*
X024186Y005321D02*
X024128Y005263D01*
X024128Y004668D01*
X024186Y004610D01*
X024860Y004610D01*
X024918Y004668D01*
X024918Y004783D01*
X024957Y004745D01*
X025139Y004745D01*
X025268Y004873D01*
X025268Y005056D01*
X025139Y005185D01*
X024957Y005185D01*
X024918Y005146D01*
X024918Y005263D01*
X024860Y005321D01*
X024186Y005321D01*
X024146Y005282D02*
X023190Y005282D01*
X023190Y005203D02*
X024128Y005203D01*
X024128Y005125D02*
X023190Y005125D01*
X023190Y005046D02*
X024128Y005046D01*
X024128Y004968D02*
X023190Y004968D01*
X023190Y004889D02*
X024128Y004889D01*
X024128Y004811D02*
X023190Y004811D01*
X023190Y004732D02*
X024128Y004732D01*
X024142Y004654D02*
X023190Y004654D01*
X023190Y004575D02*
X025558Y004575D01*
X025624Y004654D02*
X024903Y004654D01*
X024918Y004732D02*
X025657Y004732D01*
X025679Y004811D02*
X025205Y004811D01*
X025268Y004889D02*
X025683Y004889D01*
X025683Y004968D02*
X025268Y004968D01*
X025268Y005046D02*
X025683Y005046D01*
X025683Y005125D02*
X025199Y005125D01*
X024918Y005203D02*
X025683Y005203D01*
X025683Y005282D02*
X024899Y005282D01*
X024862Y005360D02*
X025683Y005360D01*
X025683Y005439D02*
X024918Y005439D01*
X024918Y005517D02*
X025683Y005517D01*
X025683Y005596D02*
X024918Y005596D01*
X024918Y005674D02*
X025683Y005674D01*
X025683Y005753D02*
X024918Y005753D01*
X024918Y005831D02*
X025683Y005831D01*
X025683Y005910D02*
X024918Y005910D01*
X024918Y005988D02*
X025683Y005988D01*
X025683Y006067D02*
X024862Y006067D01*
X024855Y006302D02*
X024935Y006302D01*
X024935Y006381D02*
X024855Y006381D01*
X024855Y006459D02*
X024935Y006459D01*
X024935Y006538D02*
X024855Y006538D01*
X024855Y006616D02*
X024935Y006616D01*
X024935Y006695D02*
X024855Y006695D01*
X024855Y006773D02*
X023623Y006773D01*
X023545Y006852D02*
X023930Y006852D01*
X023930Y006930D02*
X023466Y006930D01*
X023930Y007009D02*
X018848Y007009D01*
X018848Y007087D02*
X023930Y007087D01*
X023939Y007166D02*
X018848Y007166D01*
X018848Y007244D02*
X024016Y007244D01*
X024478Y007676D02*
X024709Y007444D01*
X025037Y007444D01*
X025268Y007676D01*
X025268Y008003D01*
X025037Y008235D01*
X024709Y008235D01*
X024478Y008003D01*
X024478Y007676D01*
X024478Y007715D02*
X021783Y007715D01*
X021818Y007637D02*
X024517Y007637D01*
X024595Y007558D02*
X021818Y007558D01*
X021799Y007480D02*
X024674Y007480D01*
X025072Y007480D02*
X025683Y007480D01*
X025683Y007558D02*
X025150Y007558D01*
X025229Y007637D02*
X025683Y007637D01*
X025683Y007715D02*
X025268Y007715D01*
X025268Y007794D02*
X025683Y007794D01*
X025683Y007872D02*
X025268Y007872D01*
X025268Y007951D02*
X025683Y007951D01*
X025683Y008029D02*
X025242Y008029D01*
X025164Y008108D02*
X025683Y008108D01*
X025683Y008186D02*
X025085Y008186D01*
X024660Y008186D02*
X018888Y008186D01*
X018888Y008029D02*
X024503Y008029D01*
X024478Y007951D02*
X018888Y007951D01*
X018871Y007872D02*
X024478Y007872D01*
X024478Y007794D02*
X021705Y007794D01*
X021491Y007794D02*
X018835Y007794D01*
X018848Y007401D02*
X021475Y007401D01*
X021721Y007401D02*
X025683Y007401D01*
X025683Y007323D02*
X018818Y007323D01*
X018848Y006695D02*
X023334Y006695D01*
X023413Y006616D02*
X018848Y006616D01*
X018848Y006538D02*
X023491Y006538D01*
X023780Y006616D02*
X023930Y006616D01*
X023930Y006538D02*
X023859Y006538D01*
X023930Y006695D02*
X023702Y006695D01*
X024173Y006224D02*
X025683Y006224D01*
X025683Y006145D02*
X024251Y006145D01*
X024935Y006773D02*
X025683Y006773D01*
X024935Y006852D02*
X024855Y006852D01*
X024855Y006930D02*
X024935Y006930D01*
X024935Y007009D02*
X024855Y007009D01*
X024855Y007087D02*
X024935Y007087D01*
X024935Y007166D02*
X024855Y007166D01*
X024855Y007244D02*
X024935Y007244D01*
X024582Y008108D02*
X018533Y008108D01*
X018071Y008422D02*
X017738Y008422D01*
X017780Y008343D02*
X017993Y008343D01*
X017914Y008265D02*
X017843Y008265D01*
X017945Y008500D02*
X018148Y008500D01*
X018148Y008579D02*
X018023Y008579D01*
X018068Y008657D02*
X018148Y008657D01*
X018148Y008736D02*
X018068Y008736D01*
X018059Y008814D02*
X018181Y008814D01*
X018153Y008893D02*
X017981Y008893D01*
X018148Y008971D02*
X017305Y008971D01*
X017362Y009050D02*
X018148Y009050D01*
X018148Y009128D02*
X017660Y009128D01*
X017693Y009161D02*
X017693Y009161D01*
X017739Y009207D02*
X018148Y009207D01*
X018152Y009285D02*
X017817Y009285D01*
X017896Y009364D02*
X018182Y009364D01*
X018148Y009442D02*
X017974Y009442D01*
X018053Y009521D02*
X018148Y009521D01*
X018077Y009545D02*
X018077Y009545D01*
X018118Y009599D02*
X018148Y009599D01*
X018148Y009678D02*
X018084Y009678D01*
X018095Y009756D02*
X018148Y009756D01*
X018115Y009835D02*
X018201Y009835D01*
X018148Y009913D02*
X018102Y009913D01*
X018148Y010149D02*
X017772Y010149D01*
X017735Y010227D02*
X018137Y010227D01*
X018059Y010306D02*
X017632Y010306D01*
X017679Y010227D02*
X017691Y010227D01*
X017613Y010149D02*
X017613Y010149D01*
X017469Y010306D02*
X017456Y010306D01*
X017405Y010384D02*
X017867Y010384D01*
X017789Y010463D02*
X017447Y010463D01*
X017586Y010541D02*
X017778Y010541D01*
X017778Y010620D02*
X017664Y010620D01*
X017693Y010698D02*
X017820Y010698D01*
X017899Y010777D02*
X017693Y010777D01*
X017668Y010855D02*
X018548Y010855D01*
X018548Y010777D02*
X018097Y010777D01*
X018175Y010698D02*
X018548Y010698D01*
X018551Y010620D02*
X018218Y010620D01*
X018219Y010541D02*
X020082Y010541D01*
X020263Y010541D02*
X020333Y010541D01*
X020333Y010620D02*
X020263Y010620D01*
X020263Y010698D02*
X020333Y010698D01*
X020333Y010777D02*
X020263Y010777D01*
X020263Y010855D02*
X020333Y010855D01*
X020623Y010565D02*
X021548Y010565D01*
X021798Y010815D01*
X022048Y010565D01*
X023873Y010565D01*
X024448Y009990D01*
X024128Y009992D02*
X021909Y009992D01*
X021830Y009913D02*
X024128Y009913D01*
X024128Y009835D02*
X021752Y009835D01*
X021673Y009756D02*
X024128Y009756D01*
X024128Y009678D02*
X021595Y009678D01*
X021516Y009599D02*
X025683Y009599D01*
X025683Y009521D02*
X021438Y009521D01*
X021359Y009442D02*
X025683Y009442D01*
X025683Y009678D02*
X024918Y009678D01*
X024918Y009756D02*
X025683Y009756D01*
X025683Y009835D02*
X024918Y009835D01*
X024918Y009913D02*
X025683Y009913D01*
X025683Y009992D02*
X024918Y009992D01*
X024918Y010070D02*
X025683Y010070D01*
X025683Y010149D02*
X024918Y010149D01*
X024918Y010227D02*
X025683Y010227D01*
X025683Y010306D02*
X024875Y010306D01*
X024886Y010384D02*
X025683Y010384D01*
X025683Y010463D02*
X024918Y010463D01*
X025211Y010541D02*
X025683Y010541D01*
X025683Y010620D02*
X025268Y010620D01*
X025268Y010698D02*
X025683Y010698D01*
X025683Y010777D02*
X025268Y010777D01*
X025193Y010855D02*
X025680Y010855D01*
X025662Y010934D02*
X024918Y010934D01*
X024917Y011012D02*
X025630Y011012D01*
X025572Y011091D02*
X022783Y011091D01*
X022861Y011012D02*
X024129Y011012D01*
X024128Y010934D02*
X022868Y010934D01*
X022868Y010855D02*
X024128Y010855D01*
X024128Y010777D02*
X022821Y010777D01*
X022548Y011169D02*
X025477Y011169D01*
X024128Y010698D02*
X023937Y010698D01*
X024016Y010620D02*
X024128Y010620D01*
X024128Y010541D02*
X024094Y010541D01*
X023934Y010306D02*
X022168Y010306D01*
X022168Y010227D02*
X024012Y010227D01*
X024091Y010149D02*
X022168Y010149D01*
X022115Y010070D02*
X024128Y010070D01*
X023855Y010384D02*
X022089Y010384D01*
X021952Y010463D02*
X021644Y010463D01*
X021722Y010541D02*
X021873Y010541D01*
X021806Y010384D02*
X020640Y010384D01*
X020562Y010306D02*
X021728Y010306D01*
X021728Y010227D02*
X020483Y010227D01*
X020398Y010340D02*
X020623Y010565D01*
X020398Y010340D02*
X018223Y010340D01*
X017998Y010565D01*
X017590Y010934D02*
X018548Y010934D01*
X018548Y011012D02*
X014284Y011012D01*
X014363Y010934D02*
X015234Y010934D01*
X015342Y010934D02*
X016706Y010934D01*
X016940Y010934D02*
X017356Y010934D01*
X017055Y010855D02*
X017018Y010855D01*
X015980Y010855D02*
X015421Y010855D01*
X015156Y010855D02*
X014441Y010855D01*
X014520Y010777D02*
X015077Y010777D01*
X014999Y010698D02*
X014598Y010698D01*
X014653Y010620D02*
X014920Y010620D01*
X014842Y010541D02*
X014653Y010541D01*
X014653Y010463D02*
X014771Y010463D01*
X014774Y010384D02*
X014653Y010384D01*
X014653Y010306D02*
X014852Y010306D01*
X014931Y010227D02*
X014694Y010227D01*
X014773Y010149D02*
X015009Y010149D01*
X015042Y010070D02*
X014851Y010070D01*
X014930Y009992D02*
X014964Y009992D01*
X015093Y009535D02*
X015127Y009535D01*
X015623Y009535D01*
X015636Y009521D01*
X015661Y009521D01*
X015661Y009496D01*
X015844Y009314D01*
X015844Y009297D01*
X015854Y009261D01*
X015872Y009229D01*
X015948Y009153D01*
X016249Y009454D01*
X016263Y009441D01*
X015961Y009140D01*
X016037Y009064D01*
X016069Y009045D01*
X016105Y009036D01*
X016122Y009036D01*
X016305Y008853D01*
X016330Y008853D01*
X016330Y008828D01*
X016388Y008770D01*
X015102Y008770D01*
X014593Y009278D01*
X014593Y009406D01*
X014564Y009435D01*
X014692Y009435D01*
X014782Y009345D01*
X014964Y009345D01*
X015093Y009473D01*
X015093Y009535D01*
X015093Y009521D02*
X015661Y009521D01*
X015716Y009442D02*
X015062Y009442D01*
X014983Y009364D02*
X015794Y009364D01*
X015847Y009285D02*
X014593Y009285D01*
X014593Y009364D02*
X014763Y009364D01*
X014665Y009207D02*
X015895Y009207D01*
X016002Y009207D02*
X016028Y009207D01*
X016080Y009285D02*
X016106Y009285D01*
X016159Y009364D02*
X016185Y009364D01*
X016237Y009442D02*
X016262Y009442D01*
X016023Y009665D02*
X016348Y009990D01*
X016348Y010215D01*
X016773Y009791D02*
X016793Y009791D01*
X016835Y009832D01*
X016881Y009832D01*
X016936Y009778D01*
X016926Y009754D01*
X016917Y009710D01*
X016917Y009664D01*
X016926Y009620D01*
X016943Y009579D01*
X016968Y009541D01*
X016981Y009528D01*
X017083Y009631D01*
X017089Y009624D01*
X016987Y009522D01*
X017000Y009509D01*
X017037Y009484D01*
X017079Y009467D01*
X017123Y009458D01*
X017168Y009458D01*
X017212Y009467D01*
X017236Y009477D01*
X017291Y009423D01*
X017291Y009376D01*
X017249Y009335D01*
X017249Y009305D01*
X017234Y009290D01*
X016986Y009290D01*
X016889Y009387D01*
X016864Y009387D01*
X016864Y009412D01*
X016773Y009503D01*
X016773Y009791D01*
X016773Y009756D02*
X016927Y009756D01*
X016917Y009678D02*
X016773Y009678D01*
X016773Y009599D02*
X016934Y009599D01*
X016989Y009521D02*
X016773Y009521D01*
X016834Y009442D02*
X017271Y009442D01*
X017278Y009364D02*
X016912Y009364D01*
X017051Y009599D02*
X017063Y009599D01*
X017467Y009128D02*
X017585Y009128D01*
X017715Y008893D02*
X017383Y008893D01*
X016344Y008814D02*
X015057Y008814D01*
X014979Y008893D02*
X016265Y008893D01*
X016187Y008971D02*
X014900Y008971D01*
X014822Y009050D02*
X016062Y009050D01*
X015973Y009128D02*
X014743Y009128D01*
X014664Y008029D02*
X014569Y008029D01*
X018848Y008500D02*
X020050Y008500D01*
X020128Y008579D02*
X018848Y008579D01*
X018848Y008657D02*
X020207Y008657D01*
X020285Y008736D02*
X018848Y008736D01*
X018815Y008814D02*
X020364Y008814D01*
X020442Y008893D02*
X018842Y008893D01*
X018848Y008971D02*
X020521Y008971D01*
X020599Y009050D02*
X018848Y009050D01*
X018848Y009128D02*
X020678Y009128D01*
X020756Y009207D02*
X018848Y009207D01*
X018844Y009285D02*
X020835Y009285D01*
X020913Y009364D02*
X018813Y009364D01*
X018848Y009442D02*
X020992Y009442D01*
X021070Y009521D02*
X018848Y009521D01*
X018848Y009599D02*
X021149Y009599D01*
X021227Y009678D02*
X018848Y009678D01*
X018848Y009756D02*
X021306Y009756D01*
X021384Y009835D02*
X018794Y009835D01*
X018848Y009913D02*
X021463Y009913D01*
X021541Y009992D02*
X018848Y009992D01*
X018848Y010070D02*
X021620Y010070D01*
X021698Y010149D02*
X018848Y010149D01*
X018548Y011091D02*
X013933Y011091D01*
X018548Y011169D02*
X006482Y011169D01*
X020182Y008265D02*
X025683Y008265D01*
X025683Y008343D02*
X020260Y008343D01*
X020339Y008422D02*
X025683Y008422D01*
X024935Y008500D02*
X024855Y008500D01*
X024855Y008425D02*
X024855Y008875D01*
X024935Y008875D01*
X024935Y008955D01*
X024855Y008955D01*
X024855Y008875D01*
X023930Y008875D01*
X023930Y008547D01*
X023940Y008511D01*
X023958Y008479D01*
X023984Y008453D01*
X024016Y008435D01*
X024052Y008425D01*
X024855Y008425D01*
X024855Y008579D02*
X024935Y008579D01*
X024935Y008657D02*
X024855Y008657D01*
X024855Y008736D02*
X024935Y008736D01*
X024935Y008814D02*
X024855Y008814D01*
X024855Y008893D02*
X020810Y008893D01*
X020888Y008971D02*
X023930Y008971D01*
X023930Y008955D02*
X024855Y008955D01*
X024855Y009405D01*
X024052Y009405D01*
X024016Y009396D01*
X023984Y009377D01*
X023958Y009351D01*
X023940Y009319D01*
X023930Y009284D01*
X023930Y008955D01*
X023930Y009050D02*
X020967Y009050D01*
X021045Y009128D02*
X023930Y009128D01*
X023930Y009207D02*
X021124Y009207D01*
X021202Y009285D02*
X023930Y009285D01*
X023970Y009364D02*
X021281Y009364D01*
X020731Y008814D02*
X023930Y008814D01*
X023930Y008736D02*
X020653Y008736D01*
X020574Y008657D02*
X023930Y008657D01*
X023930Y008579D02*
X020496Y008579D01*
X020417Y008500D02*
X023946Y008500D01*
X024855Y008971D02*
X024935Y008971D01*
X024935Y008893D02*
X025683Y008893D01*
X024935Y009050D02*
X024855Y009050D01*
X024855Y009128D02*
X024935Y009128D01*
X024935Y009207D02*
X024855Y009207D01*
X024855Y009285D02*
X024935Y009285D01*
X024935Y009364D02*
X024855Y009364D01*
X025444Y004497D02*
X023128Y004497D01*
D27*
X024523Y004966D02*
X024648Y004965D01*
X025048Y004965D01*
X024648Y005715D02*
X024523Y005714D01*
X024498Y005715D02*
X024648Y005715D01*
X024498Y005715D02*
X023373Y006840D01*
X017448Y006840D01*
X016908Y006300D01*
X016638Y006300D01*
X016498Y006440D01*
X016485Y006448D01*
X017548Y005990D02*
X017612Y006054D01*
X017548Y005990D02*
X017898Y006340D01*
X018148Y006340D01*
X018398Y006590D01*
X018498Y006590D01*
X018398Y006240D02*
X018798Y005840D01*
X018798Y005765D01*
X019048Y005415D02*
X019348Y005715D01*
X019298Y005765D01*
X019048Y005415D02*
X018273Y005415D01*
X018148Y005017D02*
X018146Y005015D01*
X017598Y005015D01*
X017162Y005450D01*
X017083Y005525D01*
X018323Y004690D02*
X018623Y004990D01*
X018323Y004690D02*
X018148Y004665D01*
X018148Y004662D01*
X020948Y006215D02*
X021323Y005840D01*
X021298Y005765D01*
X020948Y006215D02*
X020548Y006215D01*
X018498Y007090D02*
X018398Y007090D01*
X017773Y007715D01*
X017198Y007715D01*
X017023Y007540D01*
X014748Y007540D01*
X014473Y007815D01*
X014948Y008140D02*
X017023Y008140D01*
X017198Y007965D01*
X017798Y007965D01*
X018173Y008340D01*
X020073Y008340D01*
X021948Y010215D01*
X021798Y010815D02*
X021798Y010915D01*
X022298Y010915D02*
X022648Y010915D01*
X024523Y010714D02*
X024523Y010690D01*
X025048Y010690D01*
X024523Y009966D02*
X024448Y009990D01*
X021598Y007590D02*
X018498Y007590D01*
X018073Y007840D02*
X017023Y007840D01*
X017448Y008365D02*
X017623Y008190D01*
X017448Y008365D02*
X017376Y008341D01*
X017173Y008565D02*
X017153Y008563D01*
X017173Y008565D02*
X017323Y008715D01*
X017848Y008715D01*
X016931Y008786D02*
X016923Y008765D01*
X016798Y008640D01*
X015048Y008640D01*
X014373Y009315D01*
X014198Y009565D02*
X014873Y009565D01*
X015073Y009665D02*
X014523Y010215D01*
X014523Y010590D01*
X014173Y010940D01*
X013773Y010940D01*
X011923Y010940D01*
X011198Y010215D01*
X011148Y010214D01*
X011148Y010190D01*
X010523Y010190D01*
X011023Y009465D02*
X011148Y009465D01*
X011148Y009466D01*
X011048Y009415D02*
X010728Y009095D01*
X011048Y009415D02*
X011023Y009465D01*
X012748Y009290D02*
X012798Y009240D01*
X012811Y009231D01*
X013479Y009900D02*
X013498Y009890D01*
X015023Y008365D01*
X014948Y008140D02*
X014548Y008540D01*
X016485Y009231D02*
X016643Y009390D01*
X016643Y009385D01*
X016643Y009855D01*
X016724Y009936D01*
X016731Y009941D01*
X016040Y009677D02*
X016023Y009665D01*
X015817Y009900D02*
X015798Y009890D01*
X015573Y009665D01*
X015073Y009665D01*
X015173Y009890D02*
X015348Y009890D01*
X015573Y010115D01*
X015594Y010122D01*
X015372Y010345D02*
X015373Y010365D01*
X015503Y010495D01*
X016878Y010495D01*
X017123Y010740D01*
X017473Y010740D01*
X016823Y010740D02*
X016048Y010740D01*
X016023Y010715D01*
X015298Y010715D01*
X015173Y010590D01*
X015149Y010568D01*
X014147Y010568D02*
X014123Y010590D01*
X013998Y010715D01*
X013598Y010715D01*
X013048Y010165D01*
X016708Y009009D02*
X016859Y009160D01*
X017288Y009160D01*
X017394Y009266D01*
X017399Y009273D01*
X015448Y007065D02*
X014348Y007065D01*
X012811Y006448D02*
X012798Y006440D01*
X012648Y006290D01*
X012653Y006285D01*
X013248Y005990D02*
X013256Y006002D01*
X013273Y006015D01*
X012773Y005465D02*
X011148Y005465D01*
X011148Y005466D01*
X010098Y005340D02*
X010081Y005340D01*
X009215Y005340D02*
X009198Y005465D01*
X009173Y005465D01*
X010022Y006340D02*
X010023Y006341D01*
X010023Y006340D02*
X010022Y006340D01*
X008098Y006465D02*
X008093Y006462D01*
X009261Y007466D02*
X009448Y007465D01*
X009448Y007415D01*
X010285Y007466D02*
X010298Y007465D01*
X010285Y007466D02*
X010423Y007465D01*
X009261Y008214D02*
X009273Y008265D01*
X009273Y008240D02*
X009261Y008214D01*
X009273Y009340D02*
X009274Y009340D01*
D28*
X010728Y009095D03*
X012298Y009490D03*
X012648Y009840D03*
X013048Y010165D03*
X014198Y009565D03*
X014373Y009315D03*
X014873Y009565D03*
X015173Y009890D03*
X016348Y010215D03*
X016823Y010740D03*
X017473Y010740D03*
X017998Y010565D03*
X016933Y009470D03*
X017848Y008715D03*
X017623Y008190D03*
X018073Y007840D03*
X017023Y007840D03*
X015448Y007065D03*
X014348Y007065D03*
X014473Y007815D03*
X015023Y008365D03*
X014548Y008540D03*
X015398Y009090D03*
X013773Y010940D03*
X010523Y010190D03*
X006523Y010965D03*
X009828Y007345D03*
X010023Y007040D03*
X012773Y005465D03*
X014273Y006160D03*
X018273Y005415D03*
X018623Y004990D03*
X018398Y006240D03*
X020548Y006215D03*
X021598Y007590D03*
X024873Y006765D03*
X025048Y004965D03*
X025398Y004715D03*
X024873Y008915D03*
X021948Y010215D03*
X022648Y010915D03*
X025048Y010690D03*
X025398Y010965D03*
X006523Y004715D03*
D29*
X024873Y007840D03*
D30*
X022298Y005765D02*
X022298Y005665D01*
X022498Y005465D01*
X022498Y005340D01*
X022795Y005043D01*
X022795Y004965D01*
M02*
