G75*
%MOIN*%
%OFA0B0*%
%FSLAX24Y24*%
%IPPOS*%
%LPD*%
%AMOC8*
5,1,8,0,0,1.08239X$1,22.5*
%
%ADD10R,0.0591X0.0512*%
%ADD11R,0.0472X0.0472*%
%ADD12R,0.0420X0.0500*%
%ADD13R,0.0560X0.0560*%
%ADD14C,0.0740*%
%ADD15C,0.1266*%
%ADD16R,0.0630X0.0945*%
%ADD17R,0.1650X0.0700*%
%ADD18R,0.0860X0.0420*%
%ADD19R,0.0394X0.0453*%
%ADD20R,0.0197X0.0354*%
%ADD21R,0.0118X0.0354*%
%ADD22R,0.0354X0.0118*%
%ADD23R,0.0827X0.0827*%
%ADD24R,0.0512X0.0591*%
%ADD25C,0.0060*%
%ADD26C,0.0080*%
%ADD27C,0.0240*%
%ADD28C,0.0240*%
%ADD29OC8,0.0591*%
D10*
X011898Y005091D03*
X011898Y005839D03*
X009273Y006466D03*
X009273Y007214D03*
X009273Y008466D03*
X009273Y009214D03*
X011898Y009841D03*
X011898Y010589D03*
D11*
X024234Y010215D03*
X025061Y010215D03*
X025061Y005465D03*
X024234Y005465D03*
D12*
X010523Y010065D03*
X008773Y010065D03*
D13*
X008248Y010965D03*
X011048Y010965D03*
D14*
X008093Y009217D03*
X008093Y008283D03*
X008093Y007396D03*
X008093Y006462D03*
D15*
X007148Y005556D03*
X007148Y010123D03*
D16*
X009057Y005340D03*
X010238Y005340D03*
D17*
X024895Y006764D03*
X024895Y007840D03*
X024895Y008915D03*
D18*
X023373Y008465D03*
X023373Y007465D03*
X023373Y006465D03*
X016173Y006658D03*
X016173Y005871D03*
X016173Y005084D03*
X016173Y007446D03*
X016173Y008233D03*
X016173Y009021D03*
X016173Y009808D03*
X016173Y010595D03*
D19*
X014873Y008952D03*
X014023Y008952D03*
X013173Y008952D03*
X013173Y006727D03*
X014023Y006727D03*
X014873Y006727D03*
D20*
X014495Y009900D03*
X014180Y009900D03*
X013865Y009900D03*
X013550Y009900D03*
X013550Y010529D03*
X013865Y010529D03*
X014180Y010529D03*
X014495Y010529D03*
D21*
X011515Y008647D03*
X011318Y008647D03*
X011121Y008647D03*
X010924Y008647D03*
X010728Y008647D03*
X010531Y008647D03*
X010531Y007032D03*
X010728Y007032D03*
X010924Y007032D03*
X011121Y007032D03*
X011318Y007032D03*
X011515Y007032D03*
D22*
X011791Y007347D03*
X011791Y007544D03*
X011791Y007741D03*
X011791Y007938D03*
X011791Y008135D03*
X011791Y008332D03*
X010216Y008332D03*
X010216Y008135D03*
X010216Y007938D03*
X010216Y007741D03*
X010216Y007544D03*
X010216Y007347D03*
D23*
X011023Y007840D03*
D24*
X013649Y005465D03*
X014397Y005465D03*
D25*
X014398Y005465D01*
X013649Y005465D02*
X013598Y005465D01*
X012773Y005465D01*
X013598Y005465D02*
X014423Y004640D01*
X018973Y004640D01*
X020548Y006215D01*
X018398Y006240D02*
X018073Y006565D01*
X018073Y007840D01*
X017848Y008115D02*
X017398Y007665D01*
X017398Y007465D01*
X016773Y006840D01*
X016773Y006465D01*
X016573Y006265D01*
X015798Y006265D01*
X015448Y006615D01*
X015448Y007065D01*
X015523Y007315D02*
X015773Y007065D01*
X016573Y007065D01*
X017023Y007515D01*
X017023Y007840D01*
X017273Y007840D02*
X017273Y007540D01*
X016398Y006665D01*
X016173Y006665D01*
X016173Y006658D01*
X015923Y005915D02*
X015223Y006615D01*
X015223Y008165D01*
X015023Y008365D01*
X014548Y008540D02*
X014548Y009190D01*
X014598Y009240D01*
X014598Y009390D01*
X014498Y009490D01*
X014498Y009890D01*
X014495Y009900D01*
X014198Y009915D02*
X014180Y009900D01*
X014198Y009915D02*
X014198Y009565D01*
X014373Y009315D02*
X014023Y008965D01*
X014023Y008952D01*
X013723Y009215D02*
X013723Y008565D01*
X014473Y007815D01*
X014573Y007415D02*
X014573Y006465D01*
X015948Y005090D01*
X016173Y005090D01*
X016173Y005084D01*
X015798Y005465D02*
X016648Y005465D01*
X016698Y005415D01*
X018273Y005415D01*
X018623Y004990D02*
X018623Y010240D01*
X017773Y011090D01*
X016673Y011090D01*
X016523Y010940D01*
X013773Y010940D01*
X013898Y010665D02*
X013865Y010529D01*
X013848Y010540D01*
X013573Y010540D02*
X013550Y010529D01*
X013523Y010540D01*
X014473Y010665D02*
X014495Y010529D01*
X014523Y010540D01*
X013548Y009965D02*
X013423Y010090D01*
X013323Y010090D01*
X013248Y010165D01*
X013048Y010165D01*
X013548Y009965D02*
X013548Y009915D01*
X013550Y009900D01*
X013548Y009890D01*
X013548Y008440D01*
X014573Y007415D01*
X014348Y007065D02*
X014023Y006740D01*
X014023Y006727D01*
X014873Y006690D02*
X014873Y006727D01*
X014873Y006690D02*
X015398Y006165D01*
X015398Y005865D01*
X015798Y005465D01*
X015923Y005915D02*
X016173Y005871D01*
X013173Y006727D02*
X013173Y006740D01*
X012823Y007090D01*
X012823Y008165D01*
X012073Y008915D01*
X011368Y008915D01*
X011318Y008865D01*
X011318Y008665D01*
X011318Y008647D01*
X011123Y008665D02*
X011121Y008647D01*
X011123Y008665D02*
X011123Y008865D01*
X011298Y009040D01*
X012148Y009040D01*
X012223Y008965D01*
X013173Y008965D01*
X013173Y008952D01*
X013723Y009215D02*
X013848Y009340D01*
X013848Y009865D01*
X013865Y009900D01*
X014873Y009565D02*
X014873Y008952D01*
X014898Y008915D01*
X015523Y008290D01*
X015523Y007315D01*
X016173Y007446D02*
X016298Y007365D01*
X016773Y007840D01*
X016773Y007965D01*
X017473Y008665D01*
X017473Y010740D01*
X016823Y010740D02*
X016823Y010465D01*
X016698Y010340D01*
X016698Y009340D01*
X016423Y009065D01*
X016173Y009021D01*
X015973Y008215D02*
X015173Y009015D01*
X015173Y009890D01*
X016173Y010595D02*
X016358Y010590D01*
X016348Y010590D02*
X016173Y010595D01*
X011948Y009840D02*
X011898Y009841D01*
X011898Y009840D01*
X011898Y009715D01*
X011723Y009715D01*
X010523Y010040D02*
X010523Y010065D01*
X010548Y010190D01*
X010523Y010190D02*
X010523Y010090D01*
X010348Y009915D01*
X010523Y010065D01*
X010523Y010040D02*
X010198Y009715D01*
X009823Y009715D01*
X009323Y009215D01*
X009273Y009214D01*
X010728Y009095D02*
X010728Y008670D01*
X010728Y008647D01*
X009323Y008465D02*
X009273Y008466D01*
X008423Y007940D02*
X008098Y008265D01*
X008093Y008283D01*
X008423Y007940D02*
X010198Y007940D01*
X010216Y007938D01*
X010216Y007741D02*
X010198Y007740D01*
X008423Y007740D01*
X008098Y007415D01*
X008093Y007396D01*
X009273Y007265D02*
X009273Y007215D01*
X009273Y007214D01*
X009273Y007190D01*
X010203Y007345D02*
X010216Y007347D01*
X010223Y007365D01*
X010223Y007540D02*
X010216Y007544D01*
X010523Y007040D02*
X010531Y007032D01*
X010548Y007040D01*
X010723Y007040D02*
X010728Y007032D01*
X010923Y007015D02*
X010924Y007032D01*
X010923Y007015D02*
X010923Y006815D01*
X010873Y006765D01*
X009623Y006765D01*
X009298Y006440D01*
X009273Y006440D01*
X009273Y006466D01*
X011898Y007065D02*
X011898Y005839D01*
X009057Y005340D02*
X009048Y005340D01*
X011898Y007065D02*
X012073Y007240D01*
X012073Y007890D01*
X012023Y007940D01*
X011798Y007940D01*
X011791Y007938D01*
X015973Y008215D02*
X016173Y008233D01*
X017273Y007840D02*
X017623Y008190D01*
X017848Y008115D02*
X017848Y008715D01*
X021598Y007590D02*
X024223Y010215D01*
X024234Y010215D01*
X025048Y010215D02*
X025061Y010215D01*
X025048Y010215D02*
X025048Y010690D01*
X022648Y010915D02*
X021948Y010215D01*
X024873Y007840D02*
X024895Y007840D01*
X025061Y005465D02*
X025048Y005340D01*
X025048Y004965D01*
D26*
X006459Y004519D02*
X006353Y004626D01*
X006295Y004764D01*
X006288Y004840D01*
X006288Y010840D01*
X006295Y010915D01*
X006353Y011053D01*
X006459Y011160D01*
X006598Y011217D01*
X006673Y011225D01*
X007868Y011225D01*
X007868Y010643D01*
X007926Y010585D01*
X008569Y010585D01*
X008628Y010643D01*
X008628Y011225D01*
X010668Y011225D01*
X010668Y010643D01*
X010726Y010585D01*
X011369Y010585D01*
X011428Y010643D01*
X011428Y011225D01*
X025283Y011225D01*
X025361Y011217D01*
X025505Y011157D01*
X025616Y011047D01*
X025675Y010903D01*
X025683Y010825D01*
X025683Y009405D01*
X024935Y009405D01*
X024935Y008955D01*
X025683Y008955D01*
X025683Y008875D01*
X024935Y008875D01*
X024935Y008425D01*
X025683Y008425D01*
X025683Y008290D01*
X024029Y008290D01*
X023970Y008231D01*
X023970Y008060D01*
X023807Y008060D01*
X023522Y007775D01*
X022901Y007775D01*
X022843Y007716D01*
X022843Y007213D01*
X022901Y007155D01*
X023844Y007155D01*
X023903Y007213D01*
X023903Y007533D01*
X023970Y007601D01*
X023970Y007448D01*
X024029Y007390D01*
X025683Y007390D01*
X025683Y007254D01*
X024935Y007254D01*
X024935Y006804D01*
X024855Y006804D01*
X024855Y007254D01*
X024052Y007254D01*
X024016Y007244D01*
X023984Y007226D01*
X023958Y007200D01*
X023940Y007168D01*
X023930Y007132D01*
X023930Y006804D01*
X024855Y006804D01*
X024855Y006724D01*
X023935Y006724D01*
X023933Y006729D01*
X023915Y006760D01*
X023889Y006787D01*
X023857Y006805D01*
X023821Y006815D01*
X023413Y006815D01*
X023413Y006505D01*
X023333Y006505D01*
X023333Y006815D01*
X022924Y006815D01*
X022889Y006805D01*
X022857Y006787D01*
X022831Y006760D01*
X022812Y006729D01*
X022803Y006693D01*
X022803Y006505D01*
X023333Y006505D01*
X023333Y006425D01*
X022803Y006425D01*
X022803Y006236D01*
X022812Y006200D01*
X022831Y006169D01*
X022857Y006143D01*
X022889Y006124D01*
X022924Y006115D01*
X023333Y006115D01*
X023333Y006425D01*
X023413Y006425D01*
X023413Y006115D01*
X023821Y006115D01*
X023857Y006124D01*
X023889Y006143D01*
X023915Y006169D01*
X023933Y006200D01*
X023943Y006236D01*
X023943Y006354D01*
X023958Y006328D01*
X023984Y006302D01*
X023943Y006302D01*
X023984Y006302D02*
X024016Y006283D01*
X024052Y006274D01*
X024855Y006274D01*
X024855Y006724D01*
X024935Y006724D01*
X024935Y006804D01*
X025683Y006804D01*
X025683Y006724D01*
X024935Y006724D01*
X024935Y006274D01*
X025683Y006274D01*
X025683Y004854D01*
X025675Y004776D01*
X025616Y004632D01*
X025505Y004522D01*
X025361Y004462D01*
X025283Y004455D01*
X006673Y004455D01*
X006598Y004462D01*
X006459Y004519D01*
X006514Y004497D02*
X025444Y004497D01*
X025558Y004575D02*
X019092Y004575D01*
X019103Y004586D02*
X020512Y005995D01*
X020639Y005995D01*
X020768Y006123D01*
X020768Y006306D01*
X020639Y006435D01*
X020457Y006435D01*
X020328Y006306D01*
X020328Y006178D01*
X018919Y004770D01*
X014477Y004770D01*
X014177Y005069D01*
X014694Y005069D01*
X014753Y005128D01*
X014753Y005801D01*
X014694Y005860D01*
X014538Y005860D01*
X014538Y006093D01*
X014493Y006138D01*
X014493Y006251D01*
X014364Y006380D01*
X014182Y006380D01*
X014053Y006251D01*
X014053Y006068D01*
X014182Y005940D01*
X014258Y005940D01*
X014258Y005860D01*
X014100Y005860D01*
X014041Y005801D01*
X014041Y005205D01*
X014005Y005241D01*
X014005Y005801D01*
X013946Y005860D01*
X013352Y005860D01*
X013293Y005801D01*
X013293Y005595D01*
X012954Y005595D01*
X012864Y005685D01*
X012682Y005685D01*
X012553Y005556D01*
X012553Y005373D01*
X012682Y005245D01*
X012864Y005245D01*
X012954Y005335D01*
X013293Y005335D01*
X013293Y005128D01*
X013352Y005069D01*
X013809Y005069D01*
X014369Y004510D01*
X019027Y004510D01*
X019103Y004586D01*
X019171Y004654D02*
X025624Y004654D01*
X025657Y004732D02*
X019249Y004732D01*
X019328Y004811D02*
X024891Y004811D01*
X024828Y004873D02*
X024957Y004745D01*
X025139Y004745D01*
X025268Y004873D01*
X025268Y005056D01*
X025195Y005128D01*
X025339Y005128D01*
X025397Y005187D01*
X025397Y005742D01*
X025339Y005801D01*
X024784Y005801D01*
X024725Y005742D01*
X024725Y005187D01*
X024784Y005128D01*
X024901Y005128D01*
X024828Y005056D01*
X024828Y004873D01*
X024828Y004889D02*
X019406Y004889D01*
X019485Y004968D02*
X024828Y004968D01*
X024828Y005046D02*
X019563Y005046D01*
X019642Y005125D02*
X023904Y005125D01*
X023912Y005116D02*
X023944Y005098D01*
X023980Y005088D01*
X024194Y005088D01*
X024194Y005425D01*
X023858Y005425D01*
X023858Y005210D01*
X023868Y005174D01*
X023886Y005142D01*
X023912Y005116D01*
X023860Y005203D02*
X019720Y005203D01*
X019799Y005282D02*
X023858Y005282D01*
X023858Y005360D02*
X019877Y005360D01*
X019956Y005439D02*
X024194Y005439D01*
X024194Y005425D02*
X024194Y005505D01*
X024194Y005841D01*
X023980Y005841D01*
X023944Y005831D01*
X020348Y005831D01*
X020270Y005753D02*
X023867Y005753D01*
X023868Y005755D02*
X023858Y005719D01*
X023858Y005505D01*
X024194Y005505D01*
X024274Y005505D01*
X024274Y005841D01*
X024489Y005841D01*
X024525Y005831D01*
X025683Y005831D01*
X025683Y005753D02*
X025387Y005753D01*
X025397Y005674D02*
X025683Y005674D01*
X025683Y005596D02*
X025397Y005596D01*
X025397Y005517D02*
X025683Y005517D01*
X025683Y005439D02*
X025397Y005439D01*
X025397Y005360D02*
X025683Y005360D01*
X025683Y005282D02*
X025397Y005282D01*
X025397Y005203D02*
X025683Y005203D01*
X025683Y005125D02*
X025199Y005125D01*
X025268Y005046D02*
X025683Y005046D01*
X025683Y004968D02*
X025268Y004968D01*
X025268Y004889D02*
X025683Y004889D01*
X025679Y004811D02*
X025205Y004811D01*
X024897Y005125D02*
X024565Y005125D01*
X024557Y005116D02*
X024583Y005142D01*
X024601Y005174D01*
X024611Y005210D01*
X024611Y005425D01*
X024608Y005425D01*
X024608Y005505D01*
X024611Y005505D01*
X024611Y005719D01*
X024601Y005755D01*
X024583Y005787D01*
X024557Y005813D01*
X024525Y005831D01*
X024602Y005753D02*
X024735Y005753D01*
X024725Y005674D02*
X024611Y005674D01*
X024611Y005596D02*
X024725Y005596D01*
X024725Y005517D02*
X024611Y005517D01*
X024608Y005439D02*
X024725Y005439D01*
X024725Y005360D02*
X024611Y005360D01*
X024611Y005282D02*
X024725Y005282D01*
X024725Y005203D02*
X024609Y005203D01*
X024557Y005116D02*
X024525Y005098D01*
X024489Y005088D01*
X024274Y005088D01*
X024274Y005425D01*
X024194Y005425D01*
X024194Y005360D02*
X024274Y005360D01*
X024274Y005282D02*
X024194Y005282D01*
X024194Y005203D02*
X024274Y005203D01*
X024274Y005125D02*
X024194Y005125D01*
X024194Y005517D02*
X024274Y005517D01*
X024274Y005596D02*
X024194Y005596D01*
X024194Y005674D02*
X024274Y005674D01*
X024274Y005753D02*
X024194Y005753D01*
X024194Y005831D02*
X024274Y005831D01*
X023944Y005831D02*
X023912Y005813D01*
X023886Y005787D01*
X023868Y005755D01*
X023858Y005674D02*
X020191Y005674D01*
X020113Y005596D02*
X023858Y005596D01*
X023858Y005517D02*
X020034Y005517D01*
X019824Y005674D02*
X018753Y005674D01*
X018753Y005596D02*
X019745Y005596D01*
X019667Y005517D02*
X018753Y005517D01*
X018753Y005439D02*
X019588Y005439D01*
X019510Y005360D02*
X018753Y005360D01*
X018753Y005282D02*
X019431Y005282D01*
X019353Y005203D02*
X018753Y005203D01*
X018753Y005171D02*
X018753Y010293D01*
X017903Y011143D01*
X017903Y011143D01*
X017827Y011220D01*
X016619Y011220D01*
X016543Y011143D01*
X016469Y011070D01*
X013954Y011070D01*
X013864Y011160D01*
X013682Y011160D01*
X013553Y011031D01*
X013553Y010848D01*
X013595Y010807D01*
X013411Y010807D01*
X013352Y010748D01*
X013352Y010680D01*
X012590Y010680D01*
X012508Y010598D01*
X012333Y010423D01*
X012333Y010549D01*
X011938Y010549D01*
X011938Y010629D01*
X011858Y010629D01*
X011858Y010984D01*
X011584Y010984D01*
X011549Y010975D01*
X011517Y010956D01*
X011491Y010930D01*
X011472Y010898D01*
X011463Y010863D01*
X011463Y010629D01*
X011858Y010629D01*
X011858Y010549D01*
X011463Y010549D01*
X011463Y010314D01*
X011472Y010279D01*
X011491Y010247D01*
X011517Y010221D01*
X011549Y010202D01*
X011570Y010196D01*
X011561Y010196D01*
X011503Y010138D01*
X011503Y009692D01*
X011290Y009480D01*
X010590Y009480D01*
X010508Y009398D01*
X010090Y008980D01*
X009668Y008980D01*
X009668Y009376D01*
X009877Y009585D01*
X010252Y009585D01*
X010382Y009715D01*
X010774Y009715D01*
X010833Y009773D01*
X010833Y010356D01*
X010774Y010415D01*
X010271Y010415D01*
X010213Y010356D01*
X010213Y009913D01*
X010144Y009845D01*
X009769Y009845D01*
X009494Y009569D01*
X008936Y009569D01*
X008878Y009511D01*
X008878Y008916D01*
X008936Y008858D01*
X009518Y008858D01*
X009482Y008821D01*
X008936Y008821D01*
X008878Y008763D01*
X008878Y008168D01*
X008936Y008110D01*
X009610Y008110D01*
X009668Y008168D01*
X009668Y008612D01*
X009756Y008700D01*
X010206Y008700D01*
X010288Y008782D01*
X010509Y009002D01*
X010587Y008924D01*
X010430Y008924D01*
X010372Y008865D01*
X010372Y008491D01*
X009997Y008491D01*
X009939Y008432D01*
X009939Y008292D01*
X009927Y008280D01*
X009908Y008248D01*
X009899Y008212D01*
X009899Y008135D01*
X010216Y008135D01*
X010773Y008135D01*
X011023Y007840D01*
X010223Y007540D02*
X010223Y007365D01*
X010203Y007345D02*
X009828Y007345D01*
X009698Y007215D01*
X009273Y007215D01*
X009273Y007265D02*
X008873Y006865D01*
X008873Y006140D01*
X009048Y005965D01*
X009048Y005340D01*
X008642Y005360D02*
X007860Y005360D01*
X007881Y005410D02*
X007769Y005141D01*
X007563Y004935D01*
X007294Y004823D01*
X007002Y004823D01*
X006733Y004935D01*
X006526Y005141D01*
X006415Y005410D01*
X006415Y005702D01*
X006526Y005971D01*
X006733Y006178D01*
X007002Y006289D01*
X007294Y006289D01*
X007563Y006178D01*
X007769Y005971D01*
X007881Y005702D01*
X007881Y005410D01*
X007881Y005439D02*
X008642Y005439D01*
X008642Y005517D02*
X007881Y005517D01*
X007881Y005596D02*
X008642Y005596D01*
X008642Y005674D02*
X007881Y005674D01*
X007860Y005753D02*
X008642Y005753D01*
X008642Y005831D02*
X007827Y005831D01*
X007795Y005910D02*
X008699Y005910D01*
X008701Y005912D02*
X008642Y005853D01*
X008642Y004826D01*
X008701Y004767D01*
X009414Y004767D01*
X009472Y004826D01*
X009472Y005853D01*
X009414Y005912D01*
X009188Y005912D01*
X009188Y006023D01*
X009101Y006110D01*
X009610Y006110D01*
X009668Y006168D01*
X009668Y006626D01*
X009677Y006635D01*
X010927Y006635D01*
X011003Y006711D01*
X011047Y006755D01*
X011615Y006755D01*
X011674Y006814D01*
X011674Y007188D01*
X011838Y007188D01*
X011768Y007118D01*
X011768Y006194D01*
X011561Y006194D01*
X011503Y006136D01*
X011503Y005541D01*
X011561Y005483D01*
X011570Y005483D01*
X011549Y005477D01*
X011517Y005458D01*
X011491Y005432D01*
X011472Y005400D01*
X011463Y005365D01*
X011463Y005131D01*
X011858Y005131D01*
X011858Y005051D01*
X011463Y005051D01*
X011463Y004816D01*
X011472Y004781D01*
X011491Y004749D01*
X011517Y004723D01*
X011549Y004704D01*
X011584Y004695D01*
X011858Y004695D01*
X011858Y005051D01*
X011938Y005051D01*
X011938Y005131D01*
X012333Y005131D01*
X012333Y005365D01*
X012324Y005400D01*
X012305Y005432D01*
X012279Y005458D01*
X012247Y005477D01*
X012226Y005483D01*
X012235Y005483D01*
X012293Y005541D01*
X012293Y006136D01*
X012235Y006194D01*
X012028Y006194D01*
X012028Y007011D01*
X012127Y007110D01*
X012203Y007186D01*
X012203Y007943D01*
X012077Y008070D01*
X012068Y008070D01*
X012068Y008432D01*
X012009Y008491D01*
X011674Y008491D01*
X011674Y008785D01*
X012019Y008785D01*
X012693Y008111D01*
X012693Y007036D01*
X012876Y006853D01*
X012876Y006460D01*
X012935Y006401D01*
X013411Y006401D01*
X013470Y006460D01*
X013470Y006995D01*
X013411Y007054D01*
X013043Y007054D01*
X012953Y007143D01*
X012953Y007589D01*
X012963Y007579D01*
X013076Y007532D01*
X013198Y007532D01*
X013311Y007579D01*
X013398Y007665D01*
X013444Y007778D01*
X013444Y007901D01*
X013398Y008014D01*
X013311Y008100D01*
X013198Y008147D01*
X013076Y008147D01*
X012963Y008100D01*
X012953Y008090D01*
X012953Y008218D01*
X012337Y008835D01*
X012876Y008835D01*
X012876Y008684D01*
X012935Y008625D01*
X013411Y008625D01*
X013418Y008632D01*
X013418Y008386D01*
X014443Y007361D01*
X014443Y007281D01*
X014439Y007285D01*
X014257Y007285D01*
X014128Y007156D01*
X014128Y007054D01*
X013785Y007054D01*
X013726Y006995D01*
X013726Y006460D01*
X013785Y006401D01*
X014261Y006401D01*
X014320Y006460D01*
X014320Y006845D01*
X014439Y006845D01*
X014443Y006848D01*
X014443Y006411D01*
X015643Y005211D01*
X015643Y004832D01*
X015701Y004774D01*
X016644Y004774D01*
X016703Y004832D01*
X016703Y005285D01*
X018092Y005285D01*
X018182Y005195D01*
X018364Y005195D01*
X018493Y005323D01*
X018493Y005506D01*
X018364Y005635D01*
X018182Y005635D01*
X018092Y005545D01*
X016752Y005545D01*
X016702Y005595D01*
X016678Y005595D01*
X016703Y005620D01*
X016703Y006122D01*
X016659Y006167D01*
X016827Y006335D01*
X016903Y006411D01*
X016903Y006786D01*
X017528Y007411D01*
X017528Y007611D01*
X017978Y008061D01*
X017978Y008533D01*
X018068Y008623D01*
X018068Y008806D01*
X017939Y008935D01*
X017757Y008935D01*
X017628Y008806D01*
X017628Y008623D01*
X017718Y008533D01*
X017718Y008406D01*
X017714Y008410D01*
X017532Y008410D01*
X017403Y008281D01*
X017403Y008153D01*
X017219Y007970D01*
X017212Y007962D01*
X017114Y008060D01*
X017052Y008060D01*
X017603Y008611D01*
X017603Y010558D01*
X017693Y010648D01*
X017693Y010672D01*
X017778Y010587D01*
X017778Y010473D01*
X017907Y010345D01*
X018089Y010345D01*
X018212Y010467D01*
X018493Y010186D01*
X018493Y006456D01*
X018489Y006460D01*
X018362Y006460D01*
X018203Y006618D01*
X018203Y007658D01*
X018293Y007748D01*
X018293Y007931D01*
X018164Y008060D01*
X017982Y008060D01*
X017853Y007931D01*
X017853Y007748D01*
X017943Y007658D01*
X017943Y006511D01*
X018019Y006435D01*
X018178Y006276D01*
X018178Y006148D01*
X018307Y006020D01*
X018489Y006020D01*
X018493Y006023D01*
X018493Y005171D01*
X018403Y005081D01*
X018403Y004898D01*
X018532Y004770D01*
X018714Y004770D01*
X018843Y004898D01*
X018843Y005081D01*
X018753Y005171D01*
X018799Y005125D02*
X019274Y005125D01*
X019196Y005046D02*
X018843Y005046D01*
X018843Y004968D02*
X019117Y004968D01*
X019039Y004889D02*
X018834Y004889D01*
X018755Y004811D02*
X018960Y004811D01*
X018491Y004811D02*
X016681Y004811D01*
X016703Y004889D02*
X018412Y004889D01*
X018403Y004968D02*
X016703Y004968D01*
X016703Y005046D02*
X018403Y005046D01*
X018447Y005125D02*
X016703Y005125D01*
X016703Y005203D02*
X018173Y005203D01*
X018095Y005282D02*
X016703Y005282D01*
X016679Y005596D02*
X018143Y005596D01*
X018403Y005596D02*
X018493Y005596D01*
X018493Y005674D02*
X016703Y005674D01*
X016703Y005753D02*
X018493Y005753D01*
X018493Y005831D02*
X016703Y005831D01*
X016703Y005910D02*
X018493Y005910D01*
X018493Y005988D02*
X016703Y005988D01*
X016703Y006067D02*
X018260Y006067D01*
X018181Y006145D02*
X016680Y006145D01*
X016716Y006224D02*
X018178Y006224D01*
X018152Y006302D02*
X016794Y006302D01*
X016873Y006381D02*
X018073Y006381D01*
X017995Y006459D02*
X016903Y006459D01*
X016903Y006538D02*
X017943Y006538D01*
X017943Y006616D02*
X016903Y006616D01*
X016903Y006695D02*
X017943Y006695D01*
X017943Y006773D02*
X016903Y006773D01*
X016969Y006852D02*
X017943Y006852D01*
X017943Y006930D02*
X017047Y006930D01*
X017126Y007009D02*
X017943Y007009D01*
X017943Y007087D02*
X017204Y007087D01*
X017283Y007166D02*
X017943Y007166D01*
X017943Y007244D02*
X017361Y007244D01*
X017440Y007323D02*
X017943Y007323D01*
X017943Y007401D02*
X017518Y007401D01*
X017528Y007480D02*
X017943Y007480D01*
X017943Y007558D02*
X017528Y007558D01*
X017554Y007637D02*
X017943Y007637D01*
X017886Y007715D02*
X017632Y007715D01*
X017711Y007794D02*
X017853Y007794D01*
X017853Y007872D02*
X017789Y007872D01*
X017868Y007951D02*
X017873Y007951D01*
X017946Y008029D02*
X017951Y008029D01*
X017978Y008108D02*
X018493Y008108D01*
X018493Y008186D02*
X017978Y008186D01*
X017978Y008265D02*
X018493Y008265D01*
X018493Y008343D02*
X017978Y008343D01*
X017978Y008422D02*
X018493Y008422D01*
X018493Y008500D02*
X017978Y008500D01*
X018023Y008579D02*
X018493Y008579D01*
X018493Y008657D02*
X018068Y008657D01*
X018068Y008736D02*
X018493Y008736D01*
X018493Y008814D02*
X018059Y008814D01*
X017981Y008893D02*
X018493Y008893D01*
X018493Y008971D02*
X017603Y008971D01*
X017603Y008893D02*
X017715Y008893D01*
X017636Y008814D02*
X017603Y008814D01*
X017603Y008736D02*
X017628Y008736D01*
X017628Y008657D02*
X017603Y008657D01*
X017571Y008579D02*
X017673Y008579D01*
X017718Y008500D02*
X017492Y008500D01*
X017414Y008422D02*
X017718Y008422D01*
X017465Y008343D02*
X017335Y008343D01*
X017403Y008265D02*
X017257Y008265D01*
X017178Y008186D02*
X017403Y008186D01*
X017357Y008108D02*
X017100Y008108D01*
X017144Y008029D02*
X017279Y008029D01*
X016889Y008265D02*
X016703Y008265D01*
X016703Y008343D02*
X016968Y008343D01*
X017046Y008422D02*
X016703Y008422D01*
X016703Y008485D02*
X016644Y008543D01*
X015828Y008543D01*
X015303Y009068D01*
X015303Y009708D01*
X015393Y009798D01*
X015393Y009981D01*
X015264Y010110D01*
X015082Y010110D01*
X014953Y009981D01*
X014953Y009798D01*
X015043Y009708D01*
X015043Y009706D01*
X014964Y009785D01*
X014782Y009785D01*
X014694Y009697D01*
X014694Y010118D01*
X014635Y010177D01*
X014355Y010177D01*
X014338Y010159D01*
X014320Y010177D01*
X014041Y010177D01*
X014023Y010159D01*
X014005Y010177D01*
X013726Y010177D01*
X013708Y010159D01*
X013690Y010177D01*
X013520Y010177D01*
X013477Y010220D01*
X013377Y010220D01*
X013302Y010295D01*
X013229Y010295D01*
X013139Y010385D01*
X012957Y010385D01*
X012828Y010256D01*
X012828Y010073D01*
X012957Y009945D01*
X013139Y009945D01*
X013212Y010017D01*
X013269Y009960D01*
X013352Y009960D01*
X013352Y009681D01*
X013411Y009622D01*
X013418Y009622D01*
X013418Y009271D01*
X013411Y009278D01*
X012935Y009278D01*
X012876Y009220D01*
X012876Y009095D01*
X012277Y009095D01*
X012202Y009170D01*
X011244Y009170D01*
X011168Y009093D01*
X010998Y008924D01*
X010868Y008924D01*
X010948Y009003D01*
X010948Y009186D01*
X010934Y009200D01*
X011406Y009200D01*
X011488Y009282D01*
X011691Y009485D01*
X012078Y009485D01*
X012078Y009398D01*
X012207Y009270D01*
X012389Y009270D01*
X012518Y009398D01*
X012518Y009581D01*
X012389Y009710D01*
X012293Y009710D01*
X012293Y009987D01*
X012706Y010400D01*
X013352Y010400D01*
X013352Y010311D01*
X013411Y010252D01*
X013690Y010252D01*
X013708Y010270D01*
X013726Y010252D01*
X013984Y010252D01*
X013996Y010240D01*
X014028Y010222D01*
X014063Y010212D01*
X014171Y010212D01*
X014171Y010520D01*
X014190Y010520D01*
X014190Y010212D01*
X014297Y010212D01*
X014333Y010222D01*
X014365Y010240D01*
X014377Y010252D01*
X014635Y010252D01*
X014694Y010311D01*
X014694Y010400D01*
X015156Y010400D01*
X015206Y010450D01*
X015643Y010450D01*
X015643Y010344D01*
X015701Y010285D01*
X016128Y010285D01*
X016128Y010158D01*
X015724Y010158D01*
X015689Y010148D01*
X015657Y010130D01*
X015631Y010104D01*
X015612Y010072D01*
X015603Y010036D01*
X015603Y009848D01*
X016133Y009848D01*
X016133Y009768D01*
X016213Y009768D01*
X016213Y009458D01*
X016568Y009458D01*
X016568Y009393D01*
X016505Y009331D01*
X015701Y009331D01*
X015643Y009272D01*
X015643Y008769D01*
X015701Y008711D01*
X016644Y008711D01*
X016703Y008769D01*
X016703Y009161D01*
X016828Y009286D01*
X016828Y010286D01*
X016953Y010411D01*
X016953Y010558D01*
X017043Y010648D01*
X017043Y010820D01*
X017253Y010820D01*
X017253Y010648D01*
X017343Y010558D01*
X017343Y008718D01*
X016703Y008078D01*
X016703Y008485D01*
X016687Y008500D02*
X017125Y008500D01*
X017203Y008579D02*
X015793Y008579D01*
X015714Y008657D02*
X017282Y008657D01*
X017343Y008736D02*
X016669Y008736D01*
X016703Y008814D02*
X017343Y008814D01*
X017343Y008893D02*
X016703Y008893D01*
X016703Y008971D02*
X017343Y008971D01*
X017343Y009050D02*
X016703Y009050D01*
X016703Y009128D02*
X017343Y009128D01*
X017343Y009207D02*
X016749Y009207D01*
X016827Y009285D02*
X017343Y009285D01*
X017343Y009364D02*
X016828Y009364D01*
X016828Y009442D02*
X017343Y009442D01*
X017343Y009521D02*
X016828Y009521D01*
X016828Y009599D02*
X017343Y009599D01*
X017343Y009678D02*
X016828Y009678D01*
X016828Y009756D02*
X017343Y009756D01*
X017343Y009835D02*
X016828Y009835D01*
X016828Y009913D02*
X017343Y009913D01*
X017343Y009992D02*
X016828Y009992D01*
X016828Y010070D02*
X017343Y010070D01*
X017343Y010149D02*
X016828Y010149D01*
X016828Y010227D02*
X017343Y010227D01*
X017343Y010306D02*
X016848Y010306D01*
X016926Y010384D02*
X017343Y010384D01*
X017343Y010463D02*
X016953Y010463D01*
X016953Y010541D02*
X017343Y010541D01*
X017282Y010620D02*
X017014Y010620D01*
X017043Y010698D02*
X017253Y010698D01*
X017253Y010777D02*
X017043Y010777D01*
X016728Y010960D02*
X016358Y010590D01*
X016348Y010590D02*
X015148Y010590D01*
X015098Y010540D01*
X014523Y010540D01*
X014473Y010665D02*
X014328Y010810D01*
X014043Y010810D01*
X013898Y010665D01*
X013848Y010540D02*
X013573Y010540D01*
X013523Y010540D02*
X012648Y010540D01*
X011948Y009840D01*
X011898Y009840D01*
X011948Y009840D02*
X012298Y009490D01*
X012518Y009521D02*
X013418Y009521D01*
X013418Y009599D02*
X012499Y009599D01*
X012421Y009678D02*
X013355Y009678D01*
X013352Y009756D02*
X012293Y009756D01*
X012293Y009835D02*
X013352Y009835D01*
X013352Y009913D02*
X012293Y009913D01*
X012298Y009992D02*
X012910Y009992D01*
X012831Y010070D02*
X012376Y010070D01*
X012455Y010149D02*
X012828Y010149D01*
X012828Y010227D02*
X012533Y010227D01*
X012612Y010306D02*
X012878Y010306D01*
X012956Y010384D02*
X012690Y010384D01*
X012373Y010463D02*
X012333Y010463D01*
X012333Y010541D02*
X012451Y010541D01*
X012530Y010620D02*
X011938Y010620D01*
X011938Y010629D02*
X012333Y010629D01*
X012333Y010863D01*
X012324Y010898D01*
X012305Y010930D01*
X012279Y010956D01*
X012247Y010975D01*
X012212Y010984D01*
X011938Y010984D01*
X011938Y010629D01*
X011938Y010698D02*
X011858Y010698D01*
X011858Y010620D02*
X011404Y010620D01*
X011428Y010698D02*
X011463Y010698D01*
X011463Y010777D02*
X011428Y010777D01*
X011428Y010855D02*
X011463Y010855D01*
X011494Y010934D02*
X011428Y010934D01*
X011428Y011012D02*
X013553Y011012D01*
X013553Y010934D02*
X012302Y010934D01*
X012333Y010855D02*
X013553Y010855D01*
X013380Y010777D02*
X012333Y010777D01*
X012333Y010698D02*
X013352Y010698D01*
X014171Y010463D02*
X014190Y010463D01*
X014190Y010384D02*
X014171Y010384D01*
X014171Y010306D02*
X014190Y010306D01*
X014190Y010227D02*
X014171Y010227D01*
X014019Y010227D02*
X013369Y010227D01*
X013357Y010306D02*
X013218Y010306D01*
X013139Y010384D02*
X013352Y010384D01*
X013237Y009992D02*
X013186Y009992D01*
X014342Y010227D02*
X016128Y010227D01*
X016348Y010215D02*
X016348Y010590D01*
X016728Y010960D02*
X017603Y010960D01*
X017998Y010565D01*
X017778Y010541D02*
X017603Y010541D01*
X017603Y010463D02*
X017789Y010463D01*
X017867Y010384D02*
X017603Y010384D01*
X017603Y010306D02*
X018373Y010306D01*
X018295Y010384D02*
X018129Y010384D01*
X018207Y010463D02*
X018216Y010463D01*
X018427Y010620D02*
X022169Y010620D01*
X022248Y010698D02*
X018348Y010698D01*
X018270Y010777D02*
X022326Y010777D01*
X022405Y010855D02*
X018191Y010855D01*
X018113Y010934D02*
X022428Y010934D01*
X022428Y010878D02*
X022428Y011006D01*
X022557Y011135D01*
X022739Y011135D01*
X022868Y011006D01*
X022868Y010823D01*
X022739Y010695D01*
X022612Y010695D01*
X022168Y010251D01*
X022168Y010123D01*
X022039Y009995D01*
X021857Y009995D01*
X021728Y010123D01*
X021728Y010306D01*
X021857Y010435D01*
X021984Y010435D01*
X022428Y010878D01*
X022743Y010698D02*
X024828Y010698D01*
X024828Y010620D02*
X022537Y010620D01*
X022458Y010541D02*
X023947Y010541D01*
X023957Y010551D02*
X023898Y010492D01*
X023898Y010074D01*
X021634Y007810D01*
X021507Y007810D01*
X021378Y007681D01*
X021378Y007498D01*
X021507Y007370D01*
X021689Y007370D01*
X021818Y007498D01*
X021818Y007626D01*
X022803Y008611D01*
X022803Y008505D01*
X023333Y008505D01*
X023333Y008815D01*
X023007Y008815D01*
X024071Y009878D01*
X024512Y009878D01*
X024571Y009937D01*
X024571Y010492D01*
X024512Y010551D01*
X023957Y010551D01*
X023898Y010463D02*
X022380Y010463D01*
X022301Y010384D02*
X023898Y010384D01*
X023898Y010306D02*
X022223Y010306D01*
X022168Y010227D02*
X023898Y010227D01*
X023898Y010149D02*
X022168Y010149D01*
X022115Y010070D02*
X023895Y010070D01*
X023816Y009992D02*
X018753Y009992D01*
X018753Y010070D02*
X021781Y010070D01*
X021728Y010149D02*
X018753Y010149D01*
X018753Y010227D02*
X021728Y010227D01*
X021728Y010306D02*
X018741Y010306D01*
X018662Y010384D02*
X021806Y010384D01*
X022012Y010463D02*
X018584Y010463D01*
X018505Y010541D02*
X022091Y010541D01*
X022821Y010777D02*
X024828Y010777D01*
X024828Y010781D02*
X024828Y010598D01*
X024876Y010551D01*
X024784Y010551D01*
X024725Y010492D01*
X024725Y009937D01*
X024784Y009878D01*
X025339Y009878D01*
X025397Y009937D01*
X025397Y010492D01*
X025339Y010551D01*
X025220Y010551D01*
X025268Y010598D01*
X025268Y010781D01*
X025139Y010910D01*
X024957Y010910D01*
X024828Y010781D01*
X024902Y010855D02*
X022868Y010855D01*
X022868Y010934D02*
X025662Y010934D01*
X025680Y010855D02*
X025193Y010855D01*
X025268Y010777D02*
X025683Y010777D01*
X025683Y010698D02*
X025268Y010698D01*
X025268Y010620D02*
X025683Y010620D01*
X025683Y010541D02*
X025349Y010541D01*
X025397Y010463D02*
X025683Y010463D01*
X025683Y010384D02*
X025397Y010384D01*
X025397Y010306D02*
X025683Y010306D01*
X025683Y010227D02*
X025397Y010227D01*
X025397Y010149D02*
X025683Y010149D01*
X025683Y010070D02*
X025397Y010070D01*
X025397Y009992D02*
X025683Y009992D01*
X025683Y009913D02*
X025374Y009913D01*
X025683Y009835D02*
X024027Y009835D01*
X023948Y009756D02*
X025683Y009756D01*
X025683Y009678D02*
X023870Y009678D01*
X023791Y009599D02*
X025683Y009599D01*
X025683Y009521D02*
X023713Y009521D01*
X023634Y009442D02*
X025683Y009442D01*
X024935Y009364D02*
X024855Y009364D01*
X024855Y009405D02*
X024052Y009405D01*
X024016Y009396D01*
X023984Y009377D01*
X023958Y009351D01*
X023940Y009319D01*
X023930Y009284D01*
X023930Y008955D01*
X024855Y008955D01*
X024855Y008875D01*
X024935Y008875D01*
X024935Y008955D01*
X024855Y008955D01*
X024855Y009405D01*
X024855Y009285D02*
X024935Y009285D01*
X024935Y009207D02*
X024855Y009207D01*
X024855Y009128D02*
X024935Y009128D01*
X024935Y009050D02*
X024855Y009050D01*
X024855Y008971D02*
X024935Y008971D01*
X024935Y008893D02*
X025683Y008893D01*
X024935Y008814D02*
X024855Y008814D01*
X024855Y008875D02*
X024855Y008425D01*
X024052Y008425D01*
X024016Y008435D01*
X023984Y008453D01*
X023958Y008479D01*
X023943Y008506D01*
X023943Y008236D01*
X023933Y008200D01*
X023915Y008169D01*
X023889Y008143D01*
X023857Y008124D01*
X023821Y008115D01*
X023413Y008115D01*
X023413Y008425D01*
X023333Y008425D01*
X022803Y008425D01*
X022803Y008236D01*
X022812Y008200D01*
X022831Y008169D01*
X022857Y008143D01*
X022889Y008124D01*
X022924Y008115D01*
X023333Y008115D01*
X023333Y008425D01*
X023333Y008505D01*
X023413Y008505D01*
X023413Y008815D01*
X023821Y008815D01*
X023857Y008805D01*
X023889Y008787D01*
X023915Y008760D01*
X023930Y008734D01*
X023930Y008875D01*
X024855Y008875D01*
X024855Y008893D02*
X023085Y008893D01*
X023163Y008971D02*
X023930Y008971D01*
X023930Y009050D02*
X023242Y009050D01*
X023320Y009128D02*
X023930Y009128D01*
X023930Y009207D02*
X023399Y009207D01*
X023477Y009285D02*
X023930Y009285D01*
X023970Y009364D02*
X023556Y009364D01*
X023267Y009442D02*
X018753Y009442D01*
X018753Y009364D02*
X023188Y009364D01*
X023110Y009285D02*
X018753Y009285D01*
X018753Y009207D02*
X023031Y009207D01*
X022953Y009128D02*
X018753Y009128D01*
X018753Y009050D02*
X022874Y009050D01*
X022796Y008971D02*
X018753Y008971D01*
X018753Y008893D02*
X022717Y008893D01*
X022639Y008814D02*
X018753Y008814D01*
X018753Y008736D02*
X022560Y008736D01*
X022482Y008657D02*
X018753Y008657D01*
X018753Y008579D02*
X022403Y008579D01*
X022325Y008500D02*
X018753Y008500D01*
X018753Y008422D02*
X022246Y008422D01*
X022168Y008343D02*
X018753Y008343D01*
X018753Y008265D02*
X022089Y008265D01*
X022011Y008186D02*
X018753Y008186D01*
X018753Y008108D02*
X021932Y008108D01*
X021854Y008029D02*
X018753Y008029D01*
X018753Y007951D02*
X021775Y007951D01*
X021697Y007872D02*
X018753Y007872D01*
X018753Y007794D02*
X021491Y007794D01*
X021412Y007715D02*
X018753Y007715D01*
X018753Y007637D02*
X021378Y007637D01*
X021378Y007558D02*
X018753Y007558D01*
X018753Y007480D02*
X021397Y007480D01*
X021475Y007401D02*
X018753Y007401D01*
X018753Y007323D02*
X022843Y007323D01*
X022843Y007401D02*
X021721Y007401D01*
X021799Y007480D02*
X022843Y007480D01*
X022843Y007558D02*
X021818Y007558D01*
X021829Y007637D02*
X022843Y007637D01*
X022843Y007715D02*
X021907Y007715D01*
X021986Y007794D02*
X023541Y007794D01*
X023619Y007872D02*
X022064Y007872D01*
X022143Y007951D02*
X023698Y007951D01*
X023776Y008029D02*
X022221Y008029D01*
X022300Y008108D02*
X023970Y008108D01*
X023970Y008186D02*
X023925Y008186D01*
X023943Y008265D02*
X024004Y008265D01*
X023943Y008343D02*
X025683Y008343D01*
X025683Y008422D02*
X023943Y008422D01*
X023943Y008500D02*
X023946Y008500D01*
X023929Y008736D02*
X023930Y008736D01*
X023930Y008814D02*
X023823Y008814D01*
X023413Y008814D02*
X023333Y008814D01*
X023333Y008736D02*
X023413Y008736D01*
X023413Y008657D02*
X023333Y008657D01*
X023333Y008579D02*
X023413Y008579D01*
X023333Y008500D02*
X022692Y008500D01*
X022614Y008422D02*
X022803Y008422D01*
X022803Y008343D02*
X022535Y008343D01*
X022457Y008265D02*
X022803Y008265D01*
X022821Y008186D02*
X022378Y008186D01*
X023333Y008186D02*
X023413Y008186D01*
X023413Y008265D02*
X023333Y008265D01*
X023333Y008343D02*
X023413Y008343D01*
X023413Y008422D02*
X023333Y008422D01*
X022803Y008579D02*
X022771Y008579D01*
X024855Y008579D02*
X024935Y008579D01*
X024935Y008657D02*
X024855Y008657D01*
X024855Y008736D02*
X024935Y008736D01*
X024935Y008500D02*
X024855Y008500D01*
X023970Y007558D02*
X023928Y007558D01*
X023903Y007480D02*
X023970Y007480D01*
X024017Y007401D02*
X023903Y007401D01*
X023903Y007323D02*
X025683Y007323D01*
X024935Y007244D02*
X024855Y007244D01*
X024855Y007166D02*
X024935Y007166D01*
X024935Y007087D02*
X024855Y007087D01*
X024855Y007009D02*
X024935Y007009D01*
X024935Y006930D02*
X024855Y006930D01*
X024855Y006852D02*
X024935Y006852D01*
X024935Y006773D02*
X025683Y006773D01*
X024935Y006695D02*
X024855Y006695D01*
X024855Y006773D02*
X023902Y006773D01*
X023930Y006852D02*
X018753Y006852D01*
X018753Y006930D02*
X023930Y006930D01*
X023930Y007009D02*
X018753Y007009D01*
X018753Y007087D02*
X023930Y007087D01*
X023939Y007166D02*
X023855Y007166D01*
X023903Y007244D02*
X024016Y007244D01*
X023413Y006773D02*
X023333Y006773D01*
X023333Y006695D02*
X023413Y006695D01*
X023413Y006616D02*
X023333Y006616D01*
X023333Y006538D02*
X023413Y006538D01*
X023333Y006459D02*
X018753Y006459D01*
X018753Y006381D02*
X020403Y006381D01*
X020328Y006302D02*
X018753Y006302D01*
X018753Y006224D02*
X020328Y006224D01*
X020295Y006145D02*
X018753Y006145D01*
X018753Y006067D02*
X020216Y006067D01*
X020138Y005988D02*
X018753Y005988D01*
X018753Y005910D02*
X020059Y005910D01*
X019981Y005831D02*
X018753Y005831D01*
X018753Y005753D02*
X019902Y005753D01*
X020427Y005910D02*
X025683Y005910D01*
X025683Y005988D02*
X020505Y005988D01*
X020711Y006067D02*
X025683Y006067D01*
X025683Y006145D02*
X023891Y006145D01*
X023940Y006224D02*
X025683Y006224D01*
X024935Y006302D02*
X024855Y006302D01*
X024855Y006381D02*
X024935Y006381D01*
X024935Y006459D02*
X024855Y006459D01*
X024855Y006538D02*
X024935Y006538D01*
X024935Y006616D02*
X024855Y006616D01*
X023413Y006381D02*
X023333Y006381D01*
X023333Y006302D02*
X023413Y006302D01*
X023413Y006224D02*
X023333Y006224D01*
X023333Y006145D02*
X023413Y006145D01*
X022854Y006145D02*
X020768Y006145D01*
X020768Y006224D02*
X022806Y006224D01*
X022803Y006302D02*
X020768Y006302D01*
X020693Y006381D02*
X022803Y006381D01*
X022803Y006538D02*
X018753Y006538D01*
X018753Y006616D02*
X022803Y006616D01*
X022803Y006695D02*
X018753Y006695D01*
X018753Y006773D02*
X022843Y006773D01*
X022890Y007166D02*
X018753Y007166D01*
X018753Y007244D02*
X022843Y007244D01*
X018493Y007244D02*
X018203Y007244D01*
X018203Y007166D02*
X018493Y007166D01*
X018493Y007087D02*
X018203Y007087D01*
X018203Y007009D02*
X018493Y007009D01*
X018493Y006930D02*
X018203Y006930D01*
X018203Y006852D02*
X018493Y006852D01*
X018493Y006773D02*
X018203Y006773D01*
X018203Y006695D02*
X018493Y006695D01*
X018493Y006616D02*
X018205Y006616D01*
X018284Y006538D02*
X018493Y006538D01*
X018489Y006459D02*
X018493Y006459D01*
X018493Y007323D02*
X018203Y007323D01*
X018203Y007401D02*
X018493Y007401D01*
X018493Y007480D02*
X018203Y007480D01*
X018203Y007558D02*
X018493Y007558D01*
X018493Y007637D02*
X018203Y007637D01*
X018260Y007715D02*
X018493Y007715D01*
X018493Y007794D02*
X018293Y007794D01*
X018293Y007872D02*
X018493Y007872D01*
X018493Y007951D02*
X018273Y007951D01*
X018194Y008029D02*
X018493Y008029D01*
X016811Y008186D02*
X016703Y008186D01*
X016703Y008108D02*
X016732Y008108D01*
X015677Y008736D02*
X015636Y008736D01*
X015643Y008814D02*
X015557Y008814D01*
X015479Y008893D02*
X015643Y008893D01*
X015643Y008971D02*
X015400Y008971D01*
X015322Y009050D02*
X015643Y009050D01*
X015643Y009128D02*
X015303Y009128D01*
X015303Y009207D02*
X015643Y009207D01*
X015656Y009285D02*
X015303Y009285D01*
X015303Y009364D02*
X016538Y009364D01*
X016568Y009442D02*
X015303Y009442D01*
X015303Y009521D02*
X015626Y009521D01*
X015631Y009512D02*
X015657Y009486D01*
X015689Y009468D01*
X015724Y009458D01*
X016133Y009458D01*
X016133Y009768D01*
X015603Y009768D01*
X015603Y009580D01*
X015612Y009544D01*
X015631Y009512D01*
X015603Y009599D02*
X015303Y009599D01*
X015303Y009678D02*
X015603Y009678D01*
X015603Y009756D02*
X015351Y009756D01*
X015393Y009835D02*
X016133Y009835D01*
X016133Y009756D02*
X016213Y009756D01*
X016213Y009678D02*
X016133Y009678D01*
X016133Y009599D02*
X016213Y009599D01*
X016213Y009521D02*
X016133Y009521D01*
X015603Y009913D02*
X015393Y009913D01*
X015382Y009992D02*
X015603Y009992D01*
X015612Y010070D02*
X015303Y010070D01*
X015042Y010070D02*
X014694Y010070D01*
X014694Y009992D02*
X014964Y009992D01*
X014953Y009913D02*
X014694Y009913D01*
X014694Y009835D02*
X014953Y009835D01*
X014992Y009756D02*
X014995Y009756D01*
X014753Y009756D02*
X014694Y009756D01*
X014663Y010149D02*
X015689Y010149D01*
X015681Y010306D02*
X014688Y010306D01*
X014694Y010384D02*
X015643Y010384D01*
X016490Y011091D02*
X013933Y011091D01*
X013613Y011091D02*
X011428Y011091D01*
X011428Y011169D02*
X016569Y011169D01*
X017664Y010620D02*
X017745Y010620D01*
X017603Y010227D02*
X018452Y010227D01*
X018493Y010149D02*
X017603Y010149D01*
X017603Y010070D02*
X018493Y010070D01*
X018493Y009992D02*
X017603Y009992D01*
X017603Y009913D02*
X018493Y009913D01*
X018493Y009835D02*
X017603Y009835D01*
X017603Y009756D02*
X018493Y009756D01*
X018493Y009678D02*
X017603Y009678D01*
X017603Y009599D02*
X018493Y009599D01*
X018493Y009521D02*
X017603Y009521D01*
X017603Y009442D02*
X018493Y009442D01*
X018493Y009364D02*
X017603Y009364D01*
X017603Y009285D02*
X018493Y009285D01*
X018493Y009207D02*
X017603Y009207D01*
X017603Y009128D02*
X018493Y009128D01*
X018493Y009050D02*
X017603Y009050D01*
X018753Y009521D02*
X023345Y009521D01*
X023424Y009599D02*
X018753Y009599D01*
X018753Y009678D02*
X023502Y009678D01*
X023581Y009756D02*
X018753Y009756D01*
X018753Y009835D02*
X023659Y009835D01*
X023738Y009913D02*
X018753Y009913D01*
X018034Y011012D02*
X022434Y011012D01*
X022513Y011091D02*
X017956Y011091D01*
X017877Y011169D02*
X025477Y011169D01*
X025572Y011091D02*
X022783Y011091D01*
X022861Y011012D02*
X025630Y011012D01*
X024774Y010541D02*
X024522Y010541D01*
X024571Y010463D02*
X024725Y010463D01*
X024725Y010384D02*
X024571Y010384D01*
X024571Y010306D02*
X024725Y010306D01*
X024725Y010227D02*
X024571Y010227D01*
X024571Y010149D02*
X024725Y010149D01*
X024725Y010070D02*
X024571Y010070D01*
X024571Y009992D02*
X024725Y009992D01*
X024749Y009913D02*
X024547Y009913D01*
X014866Y005988D02*
X014538Y005988D01*
X014538Y005910D02*
X014944Y005910D01*
X015023Y005831D02*
X014723Y005831D01*
X014753Y005753D02*
X015101Y005753D01*
X015180Y005674D02*
X014753Y005674D01*
X014753Y005596D02*
X015258Y005596D01*
X015337Y005517D02*
X014753Y005517D01*
X014753Y005439D02*
X015415Y005439D01*
X015494Y005360D02*
X014753Y005360D01*
X014753Y005282D02*
X015572Y005282D01*
X015643Y005203D02*
X014753Y005203D01*
X014749Y005125D02*
X015643Y005125D01*
X015643Y005046D02*
X014200Y005046D01*
X014279Y004968D02*
X015643Y004968D01*
X015643Y004889D02*
X014357Y004889D01*
X014436Y004811D02*
X015665Y004811D01*
X014304Y004575D02*
X006403Y004575D01*
X006341Y004654D02*
X014225Y004654D01*
X014147Y004732D02*
X012289Y004732D01*
X012279Y004723D02*
X012305Y004749D01*
X012324Y004781D01*
X012333Y004816D01*
X012333Y005051D01*
X011938Y005051D01*
X011938Y004695D01*
X012212Y004695D01*
X012247Y004704D01*
X012279Y004723D01*
X012332Y004811D02*
X014068Y004811D01*
X013990Y004889D02*
X012333Y004889D01*
X012333Y004968D02*
X013911Y004968D01*
X013833Y005046D02*
X012333Y005046D01*
X012333Y005203D02*
X013293Y005203D01*
X013296Y005125D02*
X011938Y005125D01*
X011938Y005046D02*
X011858Y005046D01*
X011858Y004968D02*
X011938Y004968D01*
X011938Y004889D02*
X011858Y004889D01*
X011858Y004811D02*
X011938Y004811D01*
X011938Y004732D02*
X011858Y004732D01*
X011507Y004732D02*
X010590Y004732D01*
X010607Y004737D02*
X010639Y004755D01*
X010665Y004781D01*
X010684Y004813D01*
X010693Y004849D01*
X010693Y005300D01*
X010278Y005300D01*
X010278Y004727D01*
X010572Y004727D01*
X010607Y004737D01*
X010682Y004811D02*
X011464Y004811D01*
X011463Y004889D02*
X010693Y004889D01*
X010693Y004968D02*
X011463Y004968D01*
X011463Y005046D02*
X010693Y005046D01*
X010693Y005125D02*
X011858Y005125D01*
X011463Y005203D02*
X010693Y005203D01*
X010693Y005282D02*
X011463Y005282D01*
X011463Y005360D02*
X010278Y005360D01*
X010278Y005380D02*
X010693Y005380D01*
X010693Y005830D01*
X010684Y005866D01*
X010665Y005898D01*
X010639Y005924D01*
X010607Y005942D01*
X010572Y005952D01*
X010278Y005952D01*
X010278Y005380D01*
X010198Y005380D01*
X010198Y005952D01*
X009905Y005952D01*
X009869Y005942D01*
X009838Y005924D01*
X009811Y005898D01*
X009793Y005866D01*
X009783Y005830D01*
X009783Y005380D01*
X009788Y005380D01*
X009788Y005300D01*
X009783Y005300D01*
X009783Y004849D01*
X009793Y004813D01*
X009811Y004781D01*
X009838Y004755D01*
X009869Y004737D01*
X009905Y004727D01*
X010198Y004727D01*
X010198Y005300D01*
X010278Y005300D01*
X010278Y005380D01*
X010278Y005439D02*
X010198Y005439D01*
X010198Y005517D02*
X010278Y005517D01*
X010278Y005596D02*
X010198Y005596D01*
X010198Y005674D02*
X010278Y005674D01*
X010278Y005753D02*
X010198Y005753D01*
X010198Y005831D02*
X010278Y005831D01*
X010278Y005910D02*
X010198Y005910D01*
X009823Y005910D02*
X009416Y005910D01*
X009472Y005831D02*
X009784Y005831D01*
X009783Y005753D02*
X009472Y005753D01*
X009472Y005674D02*
X009783Y005674D01*
X009783Y005596D02*
X009472Y005596D01*
X009472Y005517D02*
X009783Y005517D01*
X009783Y005439D02*
X009472Y005439D01*
X009472Y005360D02*
X009788Y005360D01*
X009783Y005282D02*
X009472Y005282D01*
X009472Y005203D02*
X009783Y005203D01*
X009783Y005125D02*
X009472Y005125D01*
X009472Y005046D02*
X009783Y005046D01*
X009783Y004968D02*
X009472Y004968D01*
X009472Y004889D02*
X009783Y004889D01*
X009794Y004811D02*
X009457Y004811D01*
X009887Y004732D02*
X006309Y004732D01*
X006291Y004811D02*
X008657Y004811D01*
X008642Y004889D02*
X007453Y004889D01*
X007596Y004968D02*
X008642Y004968D01*
X008642Y005046D02*
X007675Y005046D01*
X007753Y005125D02*
X008642Y005125D01*
X008642Y005203D02*
X007795Y005203D01*
X007828Y005282D02*
X008642Y005282D01*
X008701Y005912D02*
X008902Y005912D01*
X008733Y006082D01*
X008733Y006923D01*
X008815Y007005D01*
X008878Y007067D01*
X008878Y007511D01*
X008936Y007569D01*
X009610Y007569D01*
X009668Y007511D01*
X009668Y007496D01*
X009737Y007565D01*
X009919Y007565D01*
X009939Y007545D01*
X009939Y007610D01*
X008513Y007610D01*
X008563Y007489D01*
X008563Y007302D01*
X008491Y007130D01*
X008359Y006997D01*
X008193Y006929D01*
X008359Y006860D01*
X008491Y006728D01*
X008563Y006555D01*
X008563Y006368D01*
X008491Y006195D01*
X008359Y006063D01*
X008186Y005992D01*
X007999Y005992D01*
X007827Y006063D01*
X007694Y006195D01*
X007623Y006368D01*
X007623Y006555D01*
X007694Y006728D01*
X007827Y006860D01*
X007992Y006929D01*
X007827Y006997D01*
X007694Y007130D01*
X007623Y007302D01*
X007623Y007489D01*
X007694Y007662D01*
X007827Y007794D01*
X007936Y007840D01*
X007827Y007885D01*
X007694Y008017D01*
X007623Y008190D01*
X007623Y008377D01*
X007694Y008549D01*
X007827Y008682D01*
X007943Y008730D01*
X007897Y008745D01*
X007825Y008781D01*
X007761Y008828D01*
X007704Y008885D01*
X007657Y008950D01*
X007620Y009022D01*
X007595Y009098D01*
X007583Y009177D01*
X007583Y009177D01*
X008053Y009177D01*
X008053Y009257D01*
X007583Y009257D01*
X007583Y009258D01*
X007595Y009337D01*
X007620Y009413D01*
X007657Y009485D01*
X007704Y009550D01*
X007761Y009606D01*
X007825Y009654D01*
X007897Y009690D01*
X007973Y009715D01*
X008053Y009727D01*
X008053Y009727D01*
X008053Y009257D01*
X008133Y009257D01*
X008603Y009257D01*
X008603Y009258D01*
X008590Y009337D01*
X008565Y009413D01*
X008529Y009485D01*
X008482Y009550D01*
X008425Y009606D01*
X008360Y009654D01*
X008289Y009690D01*
X008212Y009715D01*
X008133Y009727D01*
X008133Y009727D01*
X008133Y009257D01*
X008133Y009177D01*
X008603Y009177D01*
X008603Y009177D01*
X008590Y009098D01*
X008565Y009022D01*
X008529Y008950D01*
X008482Y008885D01*
X008425Y008828D01*
X008360Y008781D01*
X008289Y008745D01*
X008243Y008730D01*
X008359Y008682D01*
X008491Y008549D01*
X008563Y008377D01*
X008563Y008190D01*
X008513Y008070D01*
X009899Y008070D01*
X009899Y008135D01*
X010216Y008135D01*
X010216Y008135D01*
X009899Y008108D02*
X008529Y008108D01*
X008561Y008186D02*
X008878Y008186D01*
X008878Y008265D02*
X008563Y008265D01*
X008563Y008343D02*
X008878Y008343D01*
X008878Y008422D02*
X008544Y008422D01*
X008512Y008500D02*
X008878Y008500D01*
X008878Y008579D02*
X008462Y008579D01*
X008384Y008657D02*
X008878Y008657D01*
X008878Y008736D02*
X008260Y008736D01*
X008405Y008814D02*
X008929Y008814D01*
X008901Y008893D02*
X008487Y008893D01*
X008540Y008971D02*
X008878Y008971D01*
X008878Y009050D02*
X008574Y009050D01*
X008595Y009128D02*
X008878Y009128D01*
X008878Y009207D02*
X008133Y009207D01*
X008133Y009285D02*
X008053Y009285D01*
X008053Y009207D02*
X006288Y009207D01*
X006288Y009285D02*
X007587Y009285D01*
X007604Y009364D02*
X006288Y009364D01*
X006288Y009442D02*
X006876Y009442D01*
X007002Y009390D02*
X007294Y009390D01*
X007563Y009502D01*
X007769Y009708D01*
X007881Y009977D01*
X007881Y010269D01*
X007769Y010538D01*
X007563Y010744D01*
X007294Y010856D01*
X007002Y010856D01*
X006733Y010744D01*
X006526Y010538D01*
X006415Y010269D01*
X006415Y009977D01*
X006526Y009708D01*
X006733Y009502D01*
X007002Y009390D01*
X006714Y009521D02*
X006288Y009521D01*
X006288Y009599D02*
X006635Y009599D01*
X006557Y009678D02*
X006288Y009678D01*
X006288Y009756D02*
X006506Y009756D01*
X006474Y009835D02*
X006288Y009835D01*
X006288Y009913D02*
X006441Y009913D01*
X006415Y009992D02*
X006288Y009992D01*
X006288Y010070D02*
X006415Y010070D01*
X006415Y010149D02*
X006288Y010149D01*
X006288Y010227D02*
X006415Y010227D01*
X006430Y010306D02*
X006288Y010306D01*
X006288Y010384D02*
X006463Y010384D01*
X006495Y010463D02*
X006288Y010463D01*
X006288Y010541D02*
X006529Y010541D01*
X006608Y010620D02*
X006288Y010620D01*
X006288Y010698D02*
X006686Y010698D01*
X006810Y010777D02*
X006288Y010777D01*
X006289Y010855D02*
X007000Y010855D01*
X007296Y010855D02*
X007868Y010855D01*
X007868Y010777D02*
X007486Y010777D01*
X007610Y010698D02*
X007868Y010698D01*
X007891Y010620D02*
X007688Y010620D01*
X007767Y010541D02*
X011463Y010541D01*
X011463Y010463D02*
X007801Y010463D01*
X007833Y010384D02*
X008441Y010384D01*
X008432Y010369D02*
X008423Y010333D01*
X008423Y010105D01*
X008423Y009796D01*
X008432Y009760D01*
X008451Y009729D01*
X008477Y009703D01*
X008509Y009684D01*
X008544Y009675D01*
X008733Y009675D01*
X008733Y010025D01*
X008813Y010025D01*
X008813Y009675D01*
X009001Y009675D01*
X009037Y009684D01*
X009069Y009703D01*
X009095Y009729D01*
X009113Y009760D01*
X009123Y009796D01*
X009123Y010333D01*
X009113Y010369D01*
X009095Y010400D01*
X009069Y010427D01*
X009037Y010445D01*
X009001Y010455D01*
X008813Y010455D01*
X008813Y010105D01*
X008733Y010105D01*
X008733Y010455D01*
X008544Y010455D01*
X008509Y010445D01*
X008477Y010427D01*
X008451Y010400D01*
X008432Y010369D01*
X008423Y010306D02*
X007866Y010306D01*
X007881Y010227D02*
X008423Y010227D01*
X008423Y010149D02*
X007881Y010149D01*
X007881Y010070D02*
X008423Y010070D01*
X008423Y010105D02*
X008423Y010105D01*
X008423Y009992D02*
X007881Y009992D01*
X007854Y009913D02*
X008423Y009913D01*
X008423Y009835D02*
X007822Y009835D01*
X007789Y009756D02*
X008435Y009756D01*
X008533Y009678D02*
X008313Y009678D01*
X008432Y009599D02*
X009524Y009599D01*
X009602Y009678D02*
X009013Y009678D01*
X009111Y009756D02*
X009681Y009756D01*
X009759Y009835D02*
X009123Y009835D01*
X009123Y009913D02*
X010213Y009913D01*
X010213Y009992D02*
X009123Y009992D01*
X009123Y010070D02*
X010213Y010070D01*
X010213Y010149D02*
X009123Y010149D01*
X009123Y010227D02*
X010213Y010227D01*
X010213Y010306D02*
X009123Y010306D01*
X009104Y010384D02*
X010241Y010384D01*
X010165Y010553D02*
X010062Y010553D01*
X009967Y010593D01*
X009895Y010665D01*
X009855Y010760D01*
X009855Y010863D01*
X009895Y010958D01*
X009967Y011030D01*
X010062Y011069D01*
X010165Y011069D01*
X010260Y011030D01*
X010332Y010958D01*
X010372Y010863D01*
X010372Y010760D01*
X010332Y010665D01*
X010260Y010593D01*
X010165Y010553D01*
X010287Y010620D02*
X010691Y010620D01*
X010668Y010698D02*
X010346Y010698D01*
X010372Y010777D02*
X010668Y010777D01*
X010668Y010855D02*
X010372Y010855D01*
X010342Y010934D02*
X010668Y010934D01*
X010668Y011012D02*
X010278Y011012D01*
X009949Y011012D02*
X009347Y011012D01*
X009329Y011030D02*
X009234Y011069D01*
X009131Y011069D01*
X009036Y011030D01*
X008964Y010958D01*
X008924Y010863D01*
X008924Y010760D01*
X008964Y010665D01*
X009036Y010593D01*
X009131Y010553D01*
X009234Y010553D01*
X009329Y010593D01*
X009401Y010665D01*
X009440Y010760D01*
X009440Y010863D01*
X009401Y010958D01*
X009329Y011030D01*
X009411Y010934D02*
X009885Y010934D01*
X009855Y010855D02*
X009440Y010855D01*
X009440Y010777D02*
X009855Y010777D01*
X009881Y010698D02*
X009415Y010698D01*
X009356Y010620D02*
X009940Y010620D01*
X010805Y010384D02*
X011463Y010384D01*
X011465Y010306D02*
X010833Y010306D01*
X010833Y010227D02*
X011510Y010227D01*
X011513Y010149D02*
X010833Y010149D01*
X010833Y010070D02*
X011503Y010070D01*
X011503Y009992D02*
X010833Y009992D01*
X010833Y009913D02*
X011503Y009913D01*
X011503Y009835D02*
X010833Y009835D01*
X010816Y009756D02*
X011503Y009756D01*
X011488Y009678D02*
X010345Y009678D01*
X010266Y009599D02*
X011409Y009599D01*
X011331Y009521D02*
X009813Y009521D01*
X009734Y009442D02*
X010552Y009442D01*
X010474Y009364D02*
X009668Y009364D01*
X009668Y009285D02*
X010395Y009285D01*
X010317Y009207D02*
X009668Y009207D01*
X009668Y009128D02*
X010238Y009128D01*
X010160Y009050D02*
X009668Y009050D01*
X009698Y008840D02*
X009323Y008465D01*
X009668Y008500D02*
X010372Y008500D01*
X010372Y008579D02*
X009668Y008579D01*
X009713Y008657D02*
X010372Y008657D01*
X010372Y008736D02*
X010242Y008736D01*
X010320Y008814D02*
X010372Y008814D01*
X010399Y008893D02*
X010399Y008893D01*
X010477Y008971D02*
X010540Y008971D01*
X010916Y008971D02*
X011046Y008971D01*
X011124Y009050D02*
X010948Y009050D01*
X010948Y009128D02*
X011203Y009128D01*
X011413Y009207D02*
X012876Y009207D01*
X012876Y009128D02*
X012243Y009128D01*
X012191Y009285D02*
X011491Y009285D01*
X011570Y009364D02*
X012113Y009364D01*
X012078Y009442D02*
X011648Y009442D01*
X011723Y009715D02*
X011348Y009340D01*
X010648Y009340D01*
X010148Y008840D01*
X009698Y008840D01*
X009668Y008422D02*
X009939Y008422D01*
X009939Y008343D02*
X009668Y008343D01*
X009668Y008265D02*
X009918Y008265D01*
X009899Y008186D02*
X009668Y008186D01*
X009621Y007558D02*
X009730Y007558D01*
X009925Y007558D02*
X009939Y007558D01*
X008925Y007558D02*
X008534Y007558D01*
X008563Y007480D02*
X008878Y007480D01*
X008878Y007401D02*
X008563Y007401D01*
X008563Y007323D02*
X008878Y007323D01*
X008878Y007244D02*
X008539Y007244D01*
X008506Y007166D02*
X008878Y007166D01*
X008878Y007087D02*
X008449Y007087D01*
X008370Y007009D02*
X008819Y007009D01*
X008740Y006930D02*
X008196Y006930D01*
X008367Y006852D02*
X008733Y006852D01*
X008733Y006773D02*
X008446Y006773D01*
X008505Y006695D02*
X008733Y006695D01*
X008733Y006616D02*
X008538Y006616D01*
X008563Y006538D02*
X008733Y006538D01*
X008733Y006459D02*
X008563Y006459D01*
X008563Y006381D02*
X008733Y006381D01*
X008733Y006302D02*
X008535Y006302D01*
X008503Y006224D02*
X008733Y006224D01*
X008733Y006145D02*
X008441Y006145D01*
X008362Y006067D02*
X008748Y006067D01*
X008826Y005988D02*
X007753Y005988D01*
X007823Y006067D02*
X007674Y006067D01*
X007745Y006145D02*
X007596Y006145D01*
X007683Y006224D02*
X007452Y006224D01*
X007650Y006302D02*
X006288Y006302D01*
X006288Y006224D02*
X006844Y006224D01*
X006700Y006145D02*
X006288Y006145D01*
X006288Y006067D02*
X006622Y006067D01*
X006543Y005988D02*
X006288Y005988D01*
X006288Y005910D02*
X006501Y005910D01*
X006468Y005831D02*
X006288Y005831D01*
X006288Y005753D02*
X006436Y005753D01*
X006415Y005674D02*
X006288Y005674D01*
X006288Y005596D02*
X006415Y005596D01*
X006415Y005517D02*
X006288Y005517D01*
X006288Y005439D02*
X006415Y005439D01*
X006436Y005360D02*
X006288Y005360D01*
X006288Y005282D02*
X006468Y005282D01*
X006501Y005203D02*
X006288Y005203D01*
X006288Y005125D02*
X006543Y005125D01*
X006621Y005046D02*
X006288Y005046D01*
X006288Y004968D02*
X006700Y004968D01*
X006843Y004889D02*
X006288Y004889D01*
X009144Y006067D02*
X011503Y006067D01*
X011512Y006145D02*
X009645Y006145D01*
X009668Y006224D02*
X011768Y006224D01*
X011768Y006302D02*
X009668Y006302D01*
X009668Y006381D02*
X011768Y006381D01*
X011768Y006459D02*
X009668Y006459D01*
X009668Y006538D02*
X011768Y006538D01*
X011768Y006616D02*
X009668Y006616D01*
X010023Y007040D02*
X010523Y007040D01*
X010548Y007040D02*
X010723Y007040D01*
X011003Y006711D02*
X011003Y006711D01*
X010987Y006695D02*
X011768Y006695D01*
X011768Y006773D02*
X011633Y006773D01*
X011674Y006852D02*
X011768Y006852D01*
X011768Y006930D02*
X011674Y006930D01*
X011674Y007009D02*
X011768Y007009D01*
X011768Y007087D02*
X011674Y007087D01*
X011674Y007166D02*
X011815Y007166D01*
X012104Y007087D02*
X012693Y007087D01*
X012693Y007166D02*
X012183Y007166D01*
X012203Y007244D02*
X012693Y007244D01*
X012693Y007323D02*
X012203Y007323D01*
X012203Y007401D02*
X012693Y007401D01*
X012693Y007480D02*
X012203Y007480D01*
X012203Y007558D02*
X012693Y007558D01*
X012693Y007637D02*
X012203Y007637D01*
X012203Y007715D02*
X012693Y007715D01*
X012693Y007794D02*
X012203Y007794D01*
X012203Y007872D02*
X012693Y007872D01*
X012693Y007951D02*
X012196Y007951D01*
X012117Y008029D02*
X012693Y008029D01*
X012693Y008108D02*
X012068Y008108D01*
X012068Y008186D02*
X012618Y008186D01*
X012539Y008265D02*
X012068Y008265D01*
X012068Y008343D02*
X012461Y008343D01*
X012382Y008422D02*
X012068Y008422D01*
X012304Y008500D02*
X011674Y008500D01*
X011674Y008579D02*
X012225Y008579D01*
X012147Y008657D02*
X011674Y008657D01*
X011674Y008736D02*
X012068Y008736D01*
X012357Y008814D02*
X012876Y008814D01*
X012876Y008736D02*
X012436Y008736D01*
X012514Y008657D02*
X012903Y008657D01*
X012671Y008500D02*
X013418Y008500D01*
X013418Y008422D02*
X012750Y008422D01*
X012828Y008343D02*
X013461Y008343D01*
X013539Y008265D02*
X012907Y008265D01*
X012953Y008186D02*
X013618Y008186D01*
X013696Y008108D02*
X013293Y008108D01*
X013382Y008029D02*
X013775Y008029D01*
X013853Y007951D02*
X013424Y007951D01*
X013444Y007872D02*
X013932Y007872D01*
X014010Y007794D02*
X013444Y007794D01*
X013418Y007715D02*
X014089Y007715D01*
X014167Y007637D02*
X013369Y007637D01*
X013261Y007558D02*
X014246Y007558D01*
X014324Y007480D02*
X012953Y007480D01*
X012953Y007558D02*
X013014Y007558D01*
X012953Y007401D02*
X014403Y007401D01*
X014443Y007323D02*
X012953Y007323D01*
X012953Y007244D02*
X014216Y007244D01*
X014138Y007166D02*
X012953Y007166D01*
X013009Y007087D02*
X014128Y007087D01*
X013739Y007009D02*
X013456Y007009D01*
X013470Y006930D02*
X013726Y006930D01*
X013726Y006852D02*
X013470Y006852D01*
X013470Y006773D02*
X013726Y006773D01*
X013726Y006695D02*
X013470Y006695D01*
X013470Y006616D02*
X013726Y006616D01*
X013726Y006538D02*
X013470Y006538D01*
X013469Y006459D02*
X013727Y006459D01*
X014053Y006224D02*
X012028Y006224D01*
X012028Y006302D02*
X014104Y006302D01*
X014053Y006145D02*
X012284Y006145D01*
X012293Y006067D02*
X014055Y006067D01*
X014133Y005988D02*
X012293Y005988D01*
X012293Y005910D02*
X014258Y005910D01*
X014398Y006035D02*
X014273Y006160D01*
X014398Y006035D02*
X014398Y005465D01*
X014041Y005439D02*
X014005Y005439D01*
X014005Y005517D02*
X014041Y005517D01*
X014041Y005596D02*
X014005Y005596D01*
X014005Y005674D02*
X014041Y005674D01*
X014041Y005753D02*
X014005Y005753D01*
X013975Y005831D02*
X014071Y005831D01*
X014538Y006067D02*
X014787Y006067D01*
X014709Y006145D02*
X014493Y006145D01*
X014493Y006224D02*
X014630Y006224D01*
X014552Y006302D02*
X014441Y006302D01*
X014473Y006381D02*
X012028Y006381D01*
X012028Y006459D02*
X012877Y006459D01*
X012876Y006538D02*
X012028Y006538D01*
X012028Y006616D02*
X012876Y006616D01*
X012876Y006695D02*
X012028Y006695D01*
X012028Y006773D02*
X012876Y006773D01*
X012876Y006852D02*
X012028Y006852D01*
X012028Y006930D02*
X012799Y006930D01*
X012720Y007009D02*
X012028Y007009D01*
X011503Y005988D02*
X009188Y005988D01*
X010654Y005910D02*
X011503Y005910D01*
X011503Y005831D02*
X010693Y005831D01*
X010693Y005753D02*
X011503Y005753D01*
X011503Y005674D02*
X010693Y005674D01*
X010693Y005596D02*
X011503Y005596D01*
X011527Y005517D02*
X010693Y005517D01*
X010693Y005439D02*
X011497Y005439D01*
X012269Y005517D02*
X012553Y005517D01*
X012553Y005439D02*
X012299Y005439D01*
X012333Y005360D02*
X012566Y005360D01*
X012645Y005282D02*
X012333Y005282D01*
X012293Y005596D02*
X012593Y005596D01*
X012671Y005674D02*
X012293Y005674D01*
X012293Y005753D02*
X013293Y005753D01*
X013293Y005674D02*
X012874Y005674D01*
X012953Y005596D02*
X013293Y005596D01*
X013323Y005831D02*
X012293Y005831D01*
X012901Y005282D02*
X013293Y005282D01*
X014005Y005282D02*
X014041Y005282D01*
X014041Y005360D02*
X014005Y005360D01*
X014319Y006459D02*
X014443Y006459D01*
X014443Y006538D02*
X014320Y006538D01*
X014320Y006616D02*
X014443Y006616D01*
X014443Y006695D02*
X014320Y006695D01*
X014320Y006773D02*
X014443Y006773D01*
X012981Y008108D02*
X012953Y008108D01*
X012593Y008579D02*
X013418Y008579D01*
X013418Y009285D02*
X012405Y009285D01*
X012483Y009364D02*
X013418Y009364D01*
X013418Y009442D02*
X012518Y009442D01*
X011938Y010777D02*
X011858Y010777D01*
X011858Y010855D02*
X011938Y010855D01*
X011938Y010934D02*
X011858Y010934D01*
X010668Y011091D02*
X008628Y011091D01*
X008628Y011169D02*
X010668Y011169D01*
X009018Y011012D02*
X008628Y011012D01*
X008628Y010934D02*
X008954Y010934D01*
X008924Y010855D02*
X008628Y010855D01*
X008628Y010777D02*
X008924Y010777D01*
X008950Y010698D02*
X008628Y010698D01*
X008604Y010620D02*
X009009Y010620D01*
X008813Y010384D02*
X008733Y010384D01*
X008733Y010306D02*
X008813Y010306D01*
X008813Y010227D02*
X008733Y010227D01*
X008733Y010149D02*
X008813Y010149D01*
X008813Y009992D02*
X008733Y009992D01*
X008733Y009913D02*
X008813Y009913D01*
X008813Y009835D02*
X008733Y009835D01*
X008733Y009756D02*
X008813Y009756D01*
X008813Y009678D02*
X008733Y009678D01*
X008887Y009521D02*
X008503Y009521D01*
X008551Y009442D02*
X008878Y009442D01*
X008878Y009364D02*
X008582Y009364D01*
X008598Y009285D02*
X008878Y009285D01*
X008133Y009364D02*
X008053Y009364D01*
X008053Y009442D02*
X008133Y009442D01*
X008133Y009521D02*
X008053Y009521D01*
X008053Y009599D02*
X008133Y009599D01*
X008133Y009678D02*
X008053Y009678D01*
X007872Y009678D02*
X007739Y009678D01*
X007753Y009599D02*
X007661Y009599D01*
X007683Y009521D02*
X007582Y009521D01*
X007635Y009442D02*
X007420Y009442D01*
X007591Y009128D02*
X006288Y009128D01*
X006288Y009050D02*
X006959Y009050D01*
X006907Y009028D02*
X006806Y008927D01*
X006752Y008796D01*
X006752Y008654D01*
X006806Y008523D01*
X006907Y008423D01*
X007038Y008369D01*
X007179Y008369D01*
X007310Y008423D01*
X007411Y008523D01*
X007465Y008654D01*
X007465Y008796D01*
X007411Y008927D01*
X007310Y009028D01*
X007179Y009082D01*
X007038Y009082D01*
X006907Y009028D01*
X006850Y008971D02*
X006288Y008971D01*
X006288Y008893D02*
X006792Y008893D01*
X006759Y008814D02*
X006288Y008814D01*
X006288Y008736D02*
X006752Y008736D01*
X006752Y008657D02*
X006288Y008657D01*
X006288Y008579D02*
X006783Y008579D01*
X006830Y008500D02*
X006288Y008500D01*
X006288Y008422D02*
X006910Y008422D01*
X007307Y008422D02*
X007641Y008422D01*
X007623Y008343D02*
X006288Y008343D01*
X006288Y008265D02*
X007623Y008265D01*
X007624Y008186D02*
X006288Y008186D01*
X006288Y008108D02*
X007657Y008108D01*
X007689Y008029D02*
X006288Y008029D01*
X006288Y007951D02*
X007761Y007951D01*
X007857Y007872D02*
X006288Y007872D01*
X006288Y007794D02*
X007826Y007794D01*
X007747Y007715D02*
X006288Y007715D01*
X006288Y007637D02*
X007684Y007637D01*
X007651Y007558D02*
X006288Y007558D01*
X006288Y007480D02*
X007623Y007480D01*
X007623Y007401D02*
X006288Y007401D01*
X006288Y007323D02*
X007623Y007323D01*
X007647Y007244D02*
X007322Y007244D01*
X007310Y007256D02*
X007179Y007310D01*
X007038Y007310D01*
X006907Y007256D01*
X006806Y007156D01*
X006752Y007025D01*
X006752Y006883D01*
X006806Y006752D01*
X006907Y006651D01*
X007038Y006597D01*
X007179Y006597D01*
X007310Y006651D01*
X007411Y006752D01*
X007465Y006883D01*
X007465Y007025D01*
X007411Y007156D01*
X007310Y007256D01*
X007401Y007166D02*
X007679Y007166D01*
X007737Y007087D02*
X007439Y007087D01*
X007465Y007009D02*
X007815Y007009D01*
X007818Y006852D02*
X007452Y006852D01*
X007465Y006930D02*
X007989Y006930D01*
X007740Y006773D02*
X007420Y006773D01*
X007354Y006695D02*
X007681Y006695D01*
X007648Y006616D02*
X007225Y006616D01*
X006992Y006616D02*
X006288Y006616D01*
X006288Y006538D02*
X007623Y006538D01*
X007623Y006459D02*
X006288Y006459D01*
X006288Y006381D02*
X007623Y006381D01*
X006863Y006695D02*
X006288Y006695D01*
X006288Y006773D02*
X006797Y006773D01*
X006765Y006852D02*
X006288Y006852D01*
X006288Y006930D02*
X006752Y006930D01*
X006752Y007009D02*
X006288Y007009D01*
X006288Y007087D02*
X006778Y007087D01*
X006816Y007166D02*
X006288Y007166D01*
X006288Y007244D02*
X006895Y007244D01*
X007387Y008500D02*
X007674Y008500D01*
X007723Y008579D02*
X007434Y008579D01*
X007465Y008657D02*
X007802Y008657D01*
X007926Y008736D02*
X007465Y008736D01*
X007458Y008814D02*
X007780Y008814D01*
X007698Y008893D02*
X007425Y008893D01*
X007367Y008971D02*
X007646Y008971D01*
X007611Y009050D02*
X007258Y009050D01*
X007868Y010934D02*
X006303Y010934D01*
X006336Y011012D02*
X007868Y011012D01*
X007868Y011091D02*
X006390Y011091D01*
X006482Y011169D02*
X007868Y011169D01*
X018481Y005517D02*
X018493Y005517D01*
X018493Y005439D02*
X018493Y005439D01*
X018493Y005360D02*
X018493Y005360D01*
X018493Y005282D02*
X018451Y005282D01*
X018493Y005203D02*
X018373Y005203D01*
X010278Y005203D02*
X010198Y005203D01*
X010198Y005125D02*
X010278Y005125D01*
X010278Y005046D02*
X010198Y005046D01*
X010198Y004968D02*
X010278Y004968D01*
X010278Y004889D02*
X010198Y004889D01*
X010198Y004811D02*
X010278Y004811D01*
X010278Y004732D02*
X010198Y004732D01*
X010198Y005282D02*
X010278Y005282D01*
D27*
X012773Y005465D03*
X014273Y006160D03*
X014348Y007065D03*
X015448Y007065D03*
X014473Y007815D03*
X015023Y008365D03*
X014548Y008540D03*
X015398Y009090D03*
X014373Y009315D03*
X014198Y009565D03*
X014873Y009565D03*
X015173Y009890D03*
X016348Y010215D03*
X016823Y010740D03*
X017473Y010740D03*
X017998Y010565D03*
X016933Y009470D03*
X017848Y008715D03*
X017623Y008190D03*
X018073Y007840D03*
X017023Y007840D03*
X018398Y006240D03*
X018273Y005415D03*
X018623Y004990D03*
X020548Y006215D03*
X021598Y007590D03*
X024873Y006765D03*
X025048Y004965D03*
X025398Y004715D03*
X024873Y008915D03*
X021948Y010215D03*
X022648Y010915D03*
X025048Y010690D03*
X025398Y010965D03*
X013773Y010940D03*
X013048Y010165D03*
X012648Y009840D03*
X012298Y009490D03*
X010728Y009095D03*
X010523Y010190D03*
X006523Y010965D03*
X009828Y007345D03*
X010023Y007040D03*
X006523Y004715D03*
D28*
X023373Y007465D02*
X023523Y007465D01*
X023898Y007840D01*
X024873Y007840D01*
X024398Y007840D01*
D29*
X024873Y007840D03*
M02*
