%
M48
M72
T01C0.0120
T02C0.0236
T03C0.0335
T04C0.0360
T05C0.0394
T06C0.0433
T07C0.0866
%
T01
X6523Y4715
X10023Y7040
X9828Y7345
X10728Y9095
X12298Y9490
X12648Y9840
X13048Y10165
X14198Y9565
X14373Y9315
X14873Y9565
X15173Y9890
X16348Y10215
X16823Y10740
X17473Y10740
X17998Y10565
X16933Y9470
X17848Y8715
X17623Y8190
X18073Y7840
X17023Y7840
X15448Y7065
X14348Y7065
X14473Y7815
X15023Y8365
X14548Y8540
X15398Y9090
X13773Y10940
X10523Y10190
X6523Y10965
X18398Y6240
X18273Y5415
X18623Y4990
X20548Y6215
X21598Y7590
X24873Y6765
X25048Y4965
X25398Y4715
X24873Y8915
X21948Y10215
X22648Y10915
X25048Y10690
X25398Y10965
X14273Y6160
X12773Y5465
T02
X10113Y10811
X9182Y10811
T03
X13137Y7840
X14909Y7840
T04
X8093Y8283
X8093Y7396
X8093Y6462
X8093Y9217
T05
X24873Y7840
T06
X7109Y8725
X7109Y6954
T07
X7148Y5556
X7148Y10123
M30
