G75*
%MOIN*%
%OFA0B0*%
%FSLAX24Y24*%
%IPPOS*%
%LPD*%
%AMOC8*
5,1,8,0,0,1.08239X$1,22.5*
%
%ADD10R,0.0631X0.0552*%
%ADD11R,0.0512X0.0512*%
%ADD12R,0.0460X0.0540*%
%ADD13R,0.0600X0.0600*%
%ADD14C,0.0276*%
%ADD15C,0.0780*%
%ADD16C,0.1306*%
%ADD17C,0.0473*%
%ADD18R,0.0670X0.0985*%
%ADD19R,0.1690X0.0740*%
%ADD20R,0.0900X0.0460*%
%ADD21R,0.0434X0.0493*%
%ADD22C,0.0375*%
%ADD23R,0.0236X0.0394*%
%ADD24R,0.0158X0.0394*%
%ADD25R,0.0394X0.0158*%
%ADD26R,0.0867X0.0867*%
%ADD27R,0.0552X0.0631*%
%ADD28OC8,0.0631*%
D10*
X011898Y005091D03*
X011898Y005839D03*
X009273Y006466D03*
X009273Y007214D03*
X009273Y008466D03*
X009273Y009214D03*
X011898Y009841D03*
X011898Y010589D03*
D11*
X024234Y010215D03*
X025061Y010215D03*
X025061Y005465D03*
X024234Y005465D03*
D12*
X010523Y010065D03*
X008773Y010065D03*
D13*
X008248Y010965D03*
X011048Y010965D03*
D14*
X010113Y010811D03*
X009182Y010811D03*
D15*
X008093Y009217D03*
X008093Y008283D03*
X008093Y007396D03*
X008093Y006462D03*
D16*
X007148Y005556D03*
X007148Y010123D03*
D17*
X007109Y008725D03*
X007109Y006954D03*
D18*
X009057Y005340D03*
X010238Y005340D03*
D19*
X024895Y006764D03*
X024895Y007840D03*
X024895Y008915D03*
D20*
X023373Y008465D03*
X023373Y007465D03*
X023373Y006465D03*
X016173Y006658D03*
X016173Y005871D03*
X016173Y005084D03*
X016173Y007446D03*
X016173Y008233D03*
X016173Y009021D03*
X016173Y009808D03*
X016173Y010595D03*
D21*
X014873Y008952D03*
X014023Y008952D03*
X013173Y008952D03*
X013173Y006727D03*
X014023Y006727D03*
X014873Y006727D03*
D22*
X014909Y007840D03*
X013137Y007840D03*
D23*
X013550Y009900D03*
X013865Y009900D03*
X014180Y009900D03*
X014495Y009900D03*
X014495Y010529D03*
X014180Y010529D03*
X013865Y010529D03*
X013550Y010529D03*
D24*
X011515Y008647D03*
X011318Y008647D03*
X011121Y008647D03*
X010924Y008647D03*
X010728Y008647D03*
X010531Y008647D03*
X010531Y007032D03*
X010728Y007032D03*
X010924Y007032D03*
X011121Y007032D03*
X011318Y007032D03*
X011515Y007032D03*
D25*
X011791Y007347D03*
X011791Y007544D03*
X011791Y007741D03*
X011791Y007938D03*
X011791Y008135D03*
X011791Y008332D03*
X010216Y008332D03*
X010216Y008135D03*
X010216Y007938D03*
X010216Y007741D03*
X010216Y007544D03*
X010216Y007347D03*
D26*
X011023Y007840D03*
D27*
X013649Y005465D03*
X014397Y005465D03*
D28*
X024873Y007840D03*
M02*
