G75*
%MOIN*%
%OFA0B0*%
%FSLAX24Y24*%
%IPPOS*%
%LPD*%
%AMOC8*
5,1,8,0,0,1.08239X$1,22.5*
%
%ADD10R,0.0631X0.0552*%
%ADD11C,0.0276*%
%ADD12C,0.0780*%
%ADD13C,0.1306*%
%ADD14C,0.0473*%
%ADD15R,0.0552X0.0631*%
%ADD16C,0.0217*%
%ADD17R,0.1376X0.0604*%
%ADD18R,0.0631X0.0237*%
%ADD19R,0.0237X0.0631*%
%ADD20R,0.1690X0.0740*%
%ADD21C,0.0375*%
%ADD22R,0.0512X0.0257*%
%ADD23R,0.0434X0.0631*%
%ADD24R,0.0340X0.0540*%
%ADD25R,0.0540X0.0340*%
%ADD26R,0.0631X0.0749*%
%ADD27R,0.0540X0.0290*%
%ADD28OC8,0.0631*%
D10*
X011148Y005466D03*
X011148Y006214D03*
X011148Y009466D03*
X011148Y010214D03*
X024523Y009966D03*
X024523Y010714D03*
X024523Y005714D03*
X024523Y004966D03*
D11*
X010113Y010811D03*
X009182Y010811D03*
D12*
X008093Y009217D03*
X008093Y008283D03*
X008093Y007396D03*
X008093Y006462D03*
D13*
X007148Y005556D03*
X007148Y010123D03*
D14*
X007109Y008725D03*
X007109Y006954D03*
D15*
X009274Y006340D03*
X010022Y006340D03*
G36*
X017500Y005498D02*
X017110Y005108D01*
X016666Y005552D01*
X017056Y005942D01*
X017500Y005498D01*
G37*
G36*
X018029Y006027D02*
X017639Y005637D01*
X017195Y006081D01*
X017585Y006471D01*
X018029Y006027D01*
G37*
X010022Y009340D03*
X009274Y009340D03*
D16*
X016812Y010022D02*
X016812Y010022D01*
X017216Y010426D01*
X017216Y010426D01*
X016812Y010022D01*
X017028Y010238D02*
X017028Y010238D01*
X017146Y009688D02*
X017146Y009688D01*
X017550Y010092D01*
X017550Y010092D01*
X017146Y009688D01*
X017362Y009904D02*
X017362Y009904D01*
X017480Y009353D02*
X017480Y009353D01*
X017884Y009757D01*
X017884Y009757D01*
X017480Y009353D01*
X017696Y009569D02*
X017696Y009569D01*
D17*
G36*
X017620Y009191D02*
X016648Y010163D01*
X017076Y010591D01*
X018048Y009619D01*
X017620Y009191D01*
G37*
D18*
G36*
X016625Y008647D02*
X017070Y009092D01*
X017237Y008925D01*
X016792Y008480D01*
X016625Y008647D01*
G37*
G36*
X016847Y008424D02*
X017292Y008869D01*
X017459Y008702D01*
X017014Y008257D01*
X016847Y008424D01*
G37*
G36*
X017070Y008202D02*
X017515Y008647D01*
X017682Y008480D01*
X017237Y008035D01*
X017070Y008202D01*
G37*
G36*
X016402Y008870D02*
X016847Y009315D01*
X017014Y009148D01*
X016569Y008703D01*
X016402Y008870D01*
G37*
G36*
X016179Y009092D02*
X016624Y009537D01*
X016791Y009370D01*
X016346Y008925D01*
X016179Y009092D01*
G37*
G36*
X015957Y009315D02*
X016402Y009760D01*
X016569Y009593D01*
X016124Y009148D01*
X015957Y009315D01*
G37*
G36*
X015734Y009538D02*
X016179Y009983D01*
X016346Y009816D01*
X015901Y009371D01*
X015734Y009538D01*
G37*
G36*
X015511Y009761D02*
X015956Y010206D01*
X016123Y010039D01*
X015678Y009594D01*
X015511Y009761D01*
G37*
G36*
X015288Y009983D02*
X015733Y010428D01*
X015900Y010261D01*
X015455Y009816D01*
X015288Y009983D01*
G37*
G36*
X015066Y010206D02*
X015511Y010651D01*
X015678Y010484D01*
X015233Y010039D01*
X015066Y010206D01*
G37*
G36*
X014843Y010429D02*
X015288Y010874D01*
X015455Y010707D01*
X015010Y010262D01*
X014843Y010429D01*
G37*
G36*
X011614Y007199D02*
X012059Y007644D01*
X012226Y007477D01*
X011781Y007032D01*
X011614Y007199D01*
G37*
G36*
X011836Y006977D02*
X012281Y007422D01*
X012448Y007255D01*
X012003Y006810D01*
X011836Y006977D01*
G37*
G36*
X012059Y006754D02*
X012504Y007199D01*
X012671Y007032D01*
X012226Y006587D01*
X012059Y006754D01*
G37*
G36*
X012282Y006531D02*
X012727Y006976D01*
X012894Y006809D01*
X012449Y006364D01*
X012282Y006531D01*
G37*
G36*
X012505Y006309D02*
X012950Y006754D01*
X013117Y006587D01*
X012672Y006142D01*
X012505Y006309D01*
G37*
G36*
X012727Y006086D02*
X013172Y006531D01*
X013339Y006364D01*
X012894Y005919D01*
X012727Y006086D01*
G37*
G36*
X012950Y005863D02*
X013395Y006308D01*
X013562Y006141D01*
X013117Y005696D01*
X012950Y005863D01*
G37*
G36*
X013173Y005640D02*
X013618Y006085D01*
X013785Y005918D01*
X013340Y005473D01*
X013173Y005640D01*
G37*
G36*
X013395Y005418D02*
X013840Y005863D01*
X014007Y005696D01*
X013562Y005251D01*
X013395Y005418D01*
G37*
G36*
X013618Y005195D02*
X014063Y005640D01*
X014230Y005473D01*
X013785Y005028D01*
X013618Y005195D01*
G37*
G36*
X013841Y004972D02*
X014286Y005417D01*
X014453Y005250D01*
X014008Y004805D01*
X013841Y004972D01*
G37*
D19*
G36*
X014843Y005250D02*
X015010Y005417D01*
X015455Y004972D01*
X015288Y004805D01*
X014843Y005250D01*
G37*
G36*
X015066Y005473D02*
X015233Y005640D01*
X015678Y005195D01*
X015511Y005028D01*
X015066Y005473D01*
G37*
G36*
X015288Y005696D02*
X015455Y005863D01*
X015900Y005418D01*
X015733Y005251D01*
X015288Y005696D01*
G37*
G36*
X015511Y005918D02*
X015678Y006085D01*
X016123Y005640D01*
X015956Y005473D01*
X015511Y005918D01*
G37*
G36*
X015734Y006141D02*
X015901Y006308D01*
X016346Y005863D01*
X016179Y005696D01*
X015734Y006141D01*
G37*
G36*
X015957Y006364D02*
X016124Y006531D01*
X016569Y006086D01*
X016402Y005919D01*
X015957Y006364D01*
G37*
G36*
X016179Y006587D02*
X016346Y006754D01*
X016791Y006309D01*
X016624Y006142D01*
X016179Y006587D01*
G37*
G36*
X016402Y006809D02*
X016569Y006976D01*
X017014Y006531D01*
X016847Y006364D01*
X016402Y006809D01*
G37*
G36*
X016625Y007032D02*
X016792Y007199D01*
X017237Y006754D01*
X017070Y006587D01*
X016625Y007032D01*
G37*
G36*
X016847Y007255D02*
X017014Y007422D01*
X017459Y006977D01*
X017292Y006810D01*
X016847Y007255D01*
G37*
G36*
X017070Y007477D02*
X017237Y007644D01*
X017682Y007199D01*
X017515Y007032D01*
X017070Y007477D01*
G37*
G36*
X012505Y009370D02*
X012672Y009537D01*
X013117Y009092D01*
X012950Y008925D01*
X012505Y009370D01*
G37*
G36*
X012727Y009593D02*
X012894Y009760D01*
X013339Y009315D01*
X013172Y009148D01*
X012727Y009593D01*
G37*
G36*
X012950Y009816D02*
X013117Y009983D01*
X013562Y009538D01*
X013395Y009371D01*
X012950Y009816D01*
G37*
G36*
X013173Y010039D02*
X013340Y010206D01*
X013785Y009761D01*
X013618Y009594D01*
X013173Y010039D01*
G37*
G36*
X013395Y010261D02*
X013562Y010428D01*
X014007Y009983D01*
X013840Y009816D01*
X013395Y010261D01*
G37*
G36*
X013618Y010484D02*
X013785Y010651D01*
X014230Y010206D01*
X014063Y010039D01*
X013618Y010484D01*
G37*
G36*
X013841Y010707D02*
X014008Y010874D01*
X014453Y010429D01*
X014286Y010262D01*
X013841Y010707D01*
G37*
G36*
X012282Y009148D02*
X012449Y009315D01*
X012894Y008870D01*
X012727Y008703D01*
X012282Y009148D01*
G37*
G36*
X012059Y008925D02*
X012226Y009092D01*
X012671Y008647D01*
X012504Y008480D01*
X012059Y008925D01*
G37*
G36*
X011836Y008702D02*
X012003Y008869D01*
X012448Y008424D01*
X012281Y008257D01*
X011836Y008702D01*
G37*
G36*
X011614Y008480D02*
X011781Y008647D01*
X012226Y008202D01*
X012059Y008035D01*
X011614Y008480D01*
G37*
D20*
X024895Y008915D03*
X024895Y006764D03*
D21*
X014909Y007840D03*
X013137Y007840D03*
D22*
X010285Y008214D03*
X009261Y008214D03*
X009261Y007840D03*
X009261Y007466D03*
X010285Y007466D03*
D23*
X009215Y005340D03*
X010081Y005340D03*
D24*
X018798Y005765D03*
X019298Y005765D03*
X019798Y005765D03*
X020298Y005765D03*
X020798Y005765D03*
X021298Y005765D03*
X021798Y005765D03*
X022298Y005765D03*
X022298Y010915D03*
X021798Y010915D03*
X021298Y010915D03*
X020798Y010915D03*
X020298Y010915D03*
X019798Y010915D03*
X019298Y010915D03*
X018798Y010915D03*
D25*
X018498Y010090D03*
X018498Y009590D03*
X018498Y009090D03*
X018498Y008590D03*
X018498Y008090D03*
X018498Y007590D03*
X018498Y007090D03*
X018498Y006590D03*
D26*
X019251Y004965D03*
X022795Y004965D03*
D27*
X018148Y005017D03*
X018148Y004662D03*
D28*
X024873Y007840D03*
M02*
